<?xml version="1.0" encoding="UTF-8"?>
<svg version="1.1" xmlns="http://www.w3.org/2000/svg" width="1080" height="1080">
<path d="M0,0 L1080,0 L1080,1080 L0,1080 Z M615,250 L615,251 L614,251 L614,252 L612,252 L612,253 L610,253 L610,254 L608,254 L608,255 L606,255 L606,256 L604,256 L604,257 L602,257 L602,258 L598,258 L598,257 L596,257 L596,256 L593,256 L593,255 L590,255 L590,254 L588,254 L588,253 L585,253 L585,252 L582,252 L582,253 L581,253 L581,256 L580,256 L580,259 L579,259 L579,262 L578,262 L578,266 L577,266 L577,269 L576,269 L576,270 L575,270 L575,271 L573,271 L573,272 L570,272 L570,273 L568,273 L568,274 L566,274 L566,275 L563,275 L563,276 L561,276 L561,277 L559,277 L559,280 L560,280 L560,282 L561,282 L561,284 L562,284 L562,286 L563,286 L563,288 L564,288 L564,290 L565,290 L565,292 L566,292 L566,294 L567,294 L567,297 L566,297 L566,300 L565,300 L565,302 L564,302 L564,305 L563,305 L563,307 L562,307 L562,310 L561,310 L561,314 L563,314 L563,315 L566,315 L566,316 L569,316 L569,317 L572,317 L572,318 L575,318 L575,319 L579,319 L579,321 L580,321 L580,323 L581,323 L581,325 L582,325 L582,327 L583,327 L583,330 L584,330 L584,332 L585,332 L585,334 L586,334 L586,337 L589,337 L589,336 L591,336 L591,335 L592,335 L592,334 L594,334 L594,333 L596,333 L596,332 L598,332 L598,331 L600,331 L600,330 L602,330 L602,329 L607,329 L607,330 L610,330 L610,331 L612,331 L612,332 L615,332 L615,333 L617,333 L617,334 L620,334 L620,335 L623,335 L623,332 L624,332 L624,329 L625,329 L625,326 L626,326 L626,324 L627,324 L627,319 L628,319 L628,317 L629,317 L629,316 L631,316 L631,315 L634,315 L634,314 L636,314 L636,313 L638,313 L638,312 L641,312 L641,311 L643,311 L643,310 L645,310 L645,309 L646,309 L646,307 L645,307 L645,305 L644,305 L644,303 L643,303 L643,301 L642,301 L642,299 L641,299 L641,297 L640,297 L640,295 L639,295 L639,294 L638,294 L638,288 L639,288 L639,286 L640,286 L640,283 L641,283 L641,281 L642,281 L642,278 L643,278 L643,276 L644,276 L644,273 L642,273 L642,272 L639,272 L639,271 L635,271 L635,270 L632,270 L632,269 L629,269 L629,268 L627,268 L627,267 L626,267 L626,266 L625,266 L625,264 L624,264 L624,262 L623,262 L623,260 L622,260 L622,257 L621,257 L621,255 L620,255 L620,253 L619,253 L619,251 L618,251 L618,250 Z M458,266 L458,267 L452,267 L452,268 L448,268 L448,269 L444,269 L444,270 L441,270 L441,271 L438,271 L438,272 L436,272 L436,273 L434,273 L434,274 L431,274 L431,275 L429,275 L429,276 L427,276 L427,277 L425,277 L425,278 L424,278 L424,279 L422,279 L422,280 L420,280 L420,281 L419,281 L419,282 L417,282 L417,283 L416,283 L416,284 L415,284 L415,285 L413,285 L413,286 L412,286 L412,287 L411,287 L411,288 L410,288 L410,289 L409,289 L409,290 L408,290 L408,291 L406,291 L406,292 L405,292 L405,293 L404,293 L404,294 L403,294 L403,295 L402,295 L402,297 L401,297 L401,298 L400,298 L400,299 L399,299 L399,300 L398,300 L398,301 L397,301 L397,302 L396,302 L396,304 L395,304 L395,305 L394,305 L394,306 L393,306 L393,308 L392,308 L392,309 L391,309 L391,311 L390,311 L390,312 L389,312 L389,314 L388,314 L388,316 L387,316 L387,318 L386,318 L386,320 L385,320 L385,322 L384,322 L384,324 L383,324 L383,326 L382,326 L382,329 L381,329 L381,331 L380,331 L380,334 L379,334 L379,338 L378,338 L378,342 L377,342 L377,347 L376,347 L376,372 L377,372 L377,375 L378,375 L378,380 L379,380 L379,384 L380,384 L380,387 L381,387 L381,390 L382,390 L382,392 L383,392 L383,395 L384,395 L384,397 L385,397 L385,399 L386,399 L386,400 L387,400 L387,402 L388,402 L388,404 L389,404 L389,405 L390,405 L390,407 L391,407 L391,408 L392,408 L392,410 L393,410 L393,411 L394,411 L394,412 L395,412 L395,414 L396,414 L396,415 L397,415 L397,416 L398,416 L398,417 L399,417 L399,418 L400,418 L400,419 L401,419 L401,420 L402,420 L402,421 L403,421 L403,422 L404,422 L404,423 L405,423 L405,424 L406,424 L406,425 L407,425 L407,426 L409,426 L409,427 L410,427 L410,428 L411,428 L411,429 L413,429 L413,430 L414,430 L414,431 L416,431 L416,432 L418,432 L418,433 L420,433 L420,434 L422,434 L422,435 L424,435 L424,436 L426,436 L426,437 L429,437 L429,438 L432,438 L432,439 L436,439 L436,440 L442,440 L442,441 L447,441 L447,442 L507,442 L507,441 L508,441 L508,440 L507,440 L507,439 L505,439 L505,438 L504,438 L504,437 L503,437 L503,436 L501,436 L501,435 L500,435 L500,434 L499,434 L499,433 L497,433 L497,432 L496,432 L496,431 L495,431 L495,430 L493,430 L493,429 L492,429 L492,428 L491,428 L491,427 L489,427 L489,426 L488,426 L488,425 L487,425 L487,424 L485,424 L485,423 L484,423 L484,422 L483,422 L483,421 L481,421 L481,420 L480,420 L480,419 L479,419 L479,418 L477,418 L477,417 L476,417 L476,416 L474,416 L474,415 L473,415 L473,414 L472,414 L472,413 L471,413 L471,412 L469,412 L469,411 L468,411 L468,410 L467,410 L467,409 L465,409 L465,408 L464,408 L464,407 L463,407 L463,406 L461,406 L461,405 L460,405 L460,404 L459,404 L459,403 L457,403 L457,402 L456,402 L456,401 L455,401 L455,400 L453,400 L453,399 L452,399 L452,398 L451,398 L451,397 L449,397 L449,396 L448,396 L448,395 L447,395 L447,394 L445,394 L445,393 L444,393 L444,392 L443,392 L443,391 L441,391 L441,390 L440,390 L440,389 L439,389 L439,388 L438,388 L438,387 L437,387 L437,386 L435,386 L435,384 L434,384 L434,383 L433,383 L433,382 L432,382 L432,381 L431,381 L431,380 L430,380 L430,378 L429,378 L429,376 L428,376 L428,374 L427,374 L427,372 L426,372 L426,369 L425,369 L425,366 L424,366 L424,353 L425,353 L425,346 L426,346 L426,343 L427,343 L427,341 L428,341 L428,339 L429,339 L429,337 L430,337 L430,336 L431,336 L431,334 L432,334 L432,333 L433,333 L433,331 L434,331 L434,330 L435,330 L435,329 L436,329 L436,328 L437,328 L437,327 L438,327 L438,326 L440,326 L440,325 L441,325 L441,324 L442,324 L442,323 L444,323 L444,322 L446,322 L446,321 L447,321 L447,320 L450,320 L450,319 L452,319 L452,318 L455,318 L455,317 L461,317 L461,316 L539,316 L539,314 L538,314 L538,312 L537,312 L537,308 L536,308 L536,302 L535,302 L535,279 L536,279 L536,275 L537,275 L537,273 L538,273 L538,269 L539,269 L539,266 Z M470,372 L470,373 L471,373 L471,374 L472,374 L472,375 L473,375 L473,376 L475,376 L475,377 L476,377 L476,378 L477,378 L477,379 L478,379 L478,380 L479,380 L479,381 L481,381 L481,382 L482,382 L482,383 L483,383 L483,384 L484,384 L484,385 L486,385 L486,386 L487,386 L487,387 L488,387 L488,388 L489,388 L489,389 L490,389 L490,390 L492,390 L492,391 L493,391 L493,392 L494,392 L494,393 L495,393 L495,394 L497,394 L497,395 L498,395 L498,396 L499,396 L499,397 L500,397 L500,398 L501,398 L501,399 L503,399 L503,400 L504,400 L504,401 L505,401 L505,402 L506,402 L506,403 L507,403 L507,404 L509,404 L509,405 L510,405 L510,406 L511,406 L511,407 L512,407 L512,408 L513,408 L513,409 L515,409 L515,410 L516,410 L516,411 L517,411 L517,412 L518,412 L518,413 L519,413 L519,414 L521,414 L521,415 L522,415 L522,416 L523,416 L523,417 L524,417 L524,418 L526,418 L526,419 L527,419 L527,420 L529,420 L529,421 L532,421 L532,422 L544,422 L544,423 L547,423 L547,424 L550,424 L550,425 L552,425 L552,426 L554,426 L554,427 L555,427 L555,428 L557,428 L557,429 L558,429 L558,430 L560,430 L560,431 L561,431 L561,432 L562,432 L562,433 L563,433 L563,434 L564,434 L564,435 L565,435 L565,437 L566,437 L566,438 L567,438 L567,439 L568,439 L568,441 L569,441 L569,443 L570,443 L570,445 L571,445 L571,447 L572,447 L572,451 L573,451 L573,455 L574,455 L574,466 L573,466 L573,470 L572,470 L572,472 L571,472 L571,475 L570,475 L570,477 L569,477 L569,479 L568,479 L568,481 L567,481 L567,482 L566,482 L566,484 L565,484 L565,485 L564,485 L564,486 L563,486 L563,487 L562,487 L562,488 L561,488 L561,489 L560,489 L560,490 L558,490 L558,491 L557,491 L557,492 L555,492 L555,493 L554,493 L554,494 L552,494 L552,495 L550,495 L550,496 L547,496 L547,497 L544,497 L544,498 L539,498 L539,499 L429,499 L429,500 L425,500 L425,501 L419,501 L419,502 L417,502 L417,503 L414,503 L414,504 L412,504 L412,505 L410,505 L410,506 L408,506 L408,507 L406,507 L406,508 L405,508 L405,509 L403,509 L403,510 L402,510 L402,511 L400,511 L400,512 L399,512 L399,513 L398,513 L398,514 L397,514 L397,515 L395,515 L395,516 L394,516 L394,517 L393,517 L393,518 L392,518 L392,519 L391,519 L391,520 L390,520 L390,522 L389,522 L389,523 L388,523 L388,524 L387,524 L387,526 L386,526 L386,527 L385,527 L385,529 L384,529 L384,531 L383,531 L383,533 L382,533 L382,535 L381,535 L381,537 L380,537 L380,539 L379,539 L379,544 L378,544 L378,546 L377,546 L377,549 L378,549 L378,550 L542,550 L542,549 L548,549 L548,548 L553,548 L553,547 L556,547 L556,546 L559,546 L559,545 L562,545 L562,544 L565,544 L565,543 L567,543 L567,542 L569,542 L569,541 L572,541 L572,540 L574,540 L574,539 L575,539 L575,538 L577,538 L577,537 L579,537 L579,536 L580,536 L580,535 L582,535 L582,534 L583,534 L583,533 L584,533 L584,532 L586,532 L586,531 L587,531 L587,530 L588,530 L588,529 L589,529 L589,528 L591,528 L591,527 L592,527 L592,526 L593,526 L593,525 L594,525 L594,524 L595,524 L595,523 L596,523 L596,522 L597,522 L597,521 L598,521 L598,520 L599,520 L599,518 L600,518 L600,517 L601,517 L601,516 L602,516 L602,515 L603,515 L603,513 L604,513 L604,512 L605,512 L605,510 L606,510 L606,509 L607,509 L607,507 L608,507 L608,506 L609,506 L609,504 L610,504 L610,502 L611,502 L611,501 L612,501 L612,498 L613,498 L613,496 L614,496 L614,494 L615,494 L615,492 L616,492 L616,489 L617,489 L617,486 L618,486 L618,483 L619,483 L619,479 L620,479 L620,475 L621,475 L621,470 L622,470 L622,446 L621,446 L621,442 L620,442 L620,438 L619,438 L619,433 L618,433 L618,430 L617,430 L617,427 L616,427 L616,425 L615,425 L615,422 L614,422 L614,420 L613,420 L613,418 L612,418 L612,416 L611,416 L611,415 L610,415 L610,413 L609,413 L609,411 L608,411 L608,410 L607,410 L607,408 L606,408 L606,406 L605,406 L605,405 L604,405 L604,404 L603,404 L603,402 L602,402 L602,401 L601,401 L601,400 L600,400 L600,399 L599,399 L599,397 L598,397 L598,396 L597,396 L597,395 L596,395 L596,394 L595,394 L595,393 L594,393 L594,392 L593,392 L593,391 L591,391 L591,390 L590,390 L590,389 L589,389 L589,388 L588,388 L588,387 L587,387 L587,386 L585,386 L585,385 L584,385 L584,384 L582,384 L582,383 L581,383 L581,382 L579,382 L579,381 L577,381 L577,380 L575,380 L575,379 L573,379 L573,378 L570,378 L570,377 L568,377 L568,376 L564,376 L564,375 L561,375 L561,374 L558,374 L558,373 L551,373 L551,372 Z " fill="#FEFEFE" transform="translate(0,0)"/>
<path d="M0,0 L81,0 L81,1 L88,1 L88,2 L91,2 L91,3 L94,3 L94,4 L98,4 L98,5 L100,5 L100,6 L103,6 L103,7 L105,7 L105,8 L107,8 L107,9 L109,9 L109,10 L111,10 L111,11 L112,11 L112,12 L114,12 L114,13 L115,13 L115,14 L117,14 L117,15 L118,15 L118,16 L119,16 L119,17 L120,17 L120,18 L121,18 L121,19 L123,19 L123,20 L124,20 L124,21 L125,21 L125,22 L126,22 L126,23 L127,23 L127,24 L128,24 L128,25 L129,25 L129,27 L130,27 L130,28 L131,28 L131,29 L132,29 L132,30 L133,30 L133,32 L134,32 L134,33 L135,33 L135,34 L136,34 L136,36 L137,36 L137,38 L138,38 L138,39 L139,39 L139,41 L140,41 L140,43 L141,43 L141,44 L142,44 L142,46 L143,46 L143,48 L144,48 L144,50 L145,50 L145,53 L146,53 L146,55 L147,55 L147,58 L148,58 L148,61 L149,61 L149,66 L150,66 L150,70 L151,70 L151,74 L152,74 L152,98 L151,98 L151,103 L150,103 L150,107 L149,107 L149,111 L148,111 L148,114 L147,114 L147,117 L146,117 L146,120 L145,120 L145,122 L144,122 L144,124 L143,124 L143,126 L142,126 L142,129 L141,129 L141,130 L140,130 L140,132 L139,132 L139,134 L138,134 L138,135 L137,135 L137,137 L136,137 L136,138 L135,138 L135,140 L134,140 L134,141 L133,141 L133,143 L132,143 L132,144 L131,144 L131,145 L130,145 L130,146 L129,146 L129,148 L128,148 L128,149 L127,149 L127,150 L126,150 L126,151 L125,151 L125,152 L124,152 L124,153 L123,153 L123,154 L122,154 L122,155 L121,155 L121,156 L119,156 L119,157 L118,157 L118,158 L117,158 L117,159 L116,159 L116,160 L114,160 L114,161 L113,161 L113,162 L112,162 L112,163 L110,163 L110,164 L109,164 L109,165 L107,165 L107,166 L105,166 L105,167 L104,167 L104,168 L102,168 L102,169 L99,169 L99,170 L97,170 L97,171 L95,171 L95,172 L92,172 L92,173 L89,173 L89,174 L86,174 L86,175 L83,175 L83,176 L78,176 L78,177 L72,177 L72,178 L-92,178 L-92,177 L-93,177 L-93,174 L-92,174 L-92,172 L-91,172 L-91,167 L-90,167 L-90,165 L-89,165 L-89,163 L-88,163 L-88,161 L-87,161 L-87,159 L-86,159 L-86,157 L-85,157 L-85,155 L-84,155 L-84,154 L-83,154 L-83,152 L-82,152 L-82,151 L-81,151 L-81,150 L-80,150 L-80,148 L-79,148 L-79,147 L-78,147 L-78,146 L-77,146 L-77,145 L-76,145 L-76,144 L-75,144 L-75,143 L-73,143 L-73,142 L-72,142 L-72,141 L-71,141 L-71,140 L-70,140 L-70,139 L-68,139 L-68,138 L-67,138 L-67,137 L-65,137 L-65,136 L-64,136 L-64,135 L-62,135 L-62,134 L-60,134 L-60,133 L-58,133 L-58,132 L-56,132 L-56,131 L-53,131 L-53,130 L-51,130 L-51,129 L-45,129 L-45,128 L-41,128 L-41,127 L69,127 L69,126 L74,126 L74,125 L77,125 L77,124 L80,124 L80,123 L82,123 L82,122 L84,122 L84,121 L85,121 L85,120 L87,120 L87,119 L88,119 L88,118 L90,118 L90,117 L91,117 L91,116 L92,116 L92,115 L93,115 L93,114 L94,114 L94,113 L95,113 L95,112 L96,112 L96,110 L97,110 L97,109 L98,109 L98,107 L99,107 L99,105 L100,105 L100,103 L101,103 L101,100 L102,100 L102,98 L103,98 L103,94 L104,94 L104,83 L103,83 L103,79 L102,79 L102,75 L101,75 L101,73 L100,73 L100,71 L99,71 L99,69 L98,69 L98,67 L97,67 L97,66 L96,66 L96,65 L95,65 L95,63 L94,63 L94,62 L93,62 L93,61 L92,61 L92,60 L91,60 L91,59 L90,59 L90,58 L88,58 L88,57 L87,57 L87,56 L85,56 L85,55 L84,55 L84,54 L82,54 L82,53 L80,53 L80,52 L77,52 L77,51 L74,51 L74,50 L62,50 L62,49 L59,49 L59,48 L57,48 L57,47 L56,47 L56,46 L54,46 L54,45 L53,45 L53,44 L52,44 L52,43 L51,43 L51,42 L49,42 L49,41 L48,41 L48,40 L47,40 L47,39 L46,39 L46,38 L45,38 L45,37 L43,37 L43,36 L42,36 L42,35 L41,35 L41,34 L40,34 L40,33 L39,33 L39,32 L37,32 L37,31 L36,31 L36,30 L35,30 L35,29 L34,29 L34,28 L33,28 L33,27 L31,27 L31,26 L30,26 L30,25 L29,25 L29,24 L28,24 L28,23 L27,23 L27,22 L25,22 L25,21 L24,21 L24,20 L23,20 L23,19 L22,19 L22,18 L20,18 L20,17 L19,17 L19,16 L18,16 L18,15 L17,15 L17,14 L16,14 L16,13 L14,13 L14,12 L13,12 L13,11 L12,11 L12,10 L11,10 L11,9 L9,9 L9,8 L8,8 L8,7 L7,7 L7,6 L6,6 L6,5 L5,5 L5,4 L3,4 L3,3 L2,3 L2,2 L1,2 L1,1 L0,1 Z " fill="#000000" transform="translate(470,372)"/>
<path d="M0,0 L81,0 L81,3 L80,3 L80,7 L79,7 L79,9 L78,9 L78,13 L77,13 L77,36 L78,36 L78,42 L79,42 L79,46 L80,46 L80,48 L81,48 L81,50 L3,50 L3,51 L-3,51 L-3,52 L-6,52 L-6,53 L-8,53 L-8,54 L-11,54 L-11,55 L-12,55 L-12,56 L-14,56 L-14,57 L-16,57 L-16,58 L-17,58 L-17,59 L-18,59 L-18,60 L-20,60 L-20,61 L-21,61 L-21,62 L-22,62 L-22,63 L-23,63 L-23,64 L-24,64 L-24,65 L-25,65 L-25,67 L-26,67 L-26,68 L-27,68 L-27,70 L-28,70 L-28,71 L-29,71 L-29,73 L-30,73 L-30,75 L-31,75 L-31,77 L-32,77 L-32,80 L-33,80 L-33,87 L-34,87 L-34,100 L-33,100 L-33,103 L-32,103 L-32,106 L-31,106 L-31,108 L-30,108 L-30,110 L-29,110 L-29,112 L-28,112 L-28,114 L-27,114 L-27,115 L-26,115 L-26,116 L-25,116 L-25,117 L-24,117 L-24,118 L-23,118 L-23,120 L-21,120 L-21,121 L-20,121 L-20,122 L-19,122 L-19,123 L-18,123 L-18,124 L-17,124 L-17,125 L-15,125 L-15,126 L-14,126 L-14,127 L-13,127 L-13,128 L-11,128 L-11,129 L-10,129 L-10,130 L-9,130 L-9,131 L-7,131 L-7,132 L-6,132 L-6,133 L-5,133 L-5,134 L-3,134 L-3,135 L-2,135 L-2,136 L-1,136 L-1,137 L1,137 L1,138 L2,138 L2,139 L3,139 L3,140 L5,140 L5,141 L6,141 L6,142 L7,142 L7,143 L9,143 L9,144 L10,144 L10,145 L11,145 L11,146 L13,146 L13,147 L14,147 L14,148 L15,148 L15,149 L16,149 L16,150 L18,150 L18,151 L19,151 L19,152 L21,152 L21,153 L22,153 L22,154 L23,154 L23,155 L25,155 L25,156 L26,156 L26,157 L27,157 L27,158 L29,158 L29,159 L30,159 L30,160 L31,160 L31,161 L33,161 L33,162 L34,162 L34,163 L35,163 L35,164 L37,164 L37,165 L38,165 L38,166 L39,166 L39,167 L41,167 L41,168 L42,168 L42,169 L43,169 L43,170 L45,170 L45,171 L46,171 L46,172 L47,172 L47,173 L49,173 L49,174 L50,174 L50,175 L49,175 L49,176 L-11,176 L-11,175 L-16,175 L-16,174 L-22,174 L-22,173 L-26,173 L-26,172 L-29,172 L-29,171 L-32,171 L-32,170 L-34,170 L-34,169 L-36,169 L-36,168 L-38,168 L-38,167 L-40,167 L-40,166 L-42,166 L-42,165 L-44,165 L-44,164 L-45,164 L-45,163 L-47,163 L-47,162 L-48,162 L-48,161 L-49,161 L-49,160 L-51,160 L-51,159 L-52,159 L-52,158 L-53,158 L-53,157 L-54,157 L-54,156 L-55,156 L-55,155 L-56,155 L-56,154 L-57,154 L-57,153 L-58,153 L-58,152 L-59,152 L-59,151 L-60,151 L-60,150 L-61,150 L-61,149 L-62,149 L-62,148 L-63,148 L-63,146 L-64,146 L-64,145 L-65,145 L-65,144 L-66,144 L-66,142 L-67,142 L-67,141 L-68,141 L-68,139 L-69,139 L-69,138 L-70,138 L-70,136 L-71,136 L-71,134 L-72,134 L-72,133 L-73,133 L-73,131 L-74,131 L-74,129 L-75,129 L-75,126 L-76,126 L-76,124 L-77,124 L-77,121 L-78,121 L-78,118 L-79,118 L-79,114 L-80,114 L-80,109 L-81,109 L-81,106 L-82,106 L-82,81 L-81,81 L-81,76 L-80,76 L-80,72 L-79,72 L-79,68 L-78,68 L-78,65 L-77,65 L-77,63 L-76,63 L-76,60 L-75,60 L-75,58 L-74,58 L-74,56 L-73,56 L-73,54 L-72,54 L-72,52 L-71,52 L-71,50 L-70,50 L-70,48 L-69,48 L-69,46 L-68,46 L-68,45 L-67,45 L-67,43 L-66,43 L-66,42 L-65,42 L-65,40 L-64,40 L-64,39 L-63,39 L-63,38 L-62,38 L-62,36 L-61,36 L-61,35 L-60,35 L-60,34 L-59,34 L-59,33 L-58,33 L-58,32 L-57,32 L-57,31 L-56,31 L-56,29 L-55,29 L-55,28 L-54,28 L-54,27 L-53,27 L-53,26 L-52,26 L-52,25 L-50,25 L-50,24 L-49,24 L-49,23 L-48,23 L-48,22 L-47,22 L-47,21 L-46,21 L-46,20 L-45,20 L-45,19 L-43,19 L-43,18 L-42,18 L-42,17 L-41,17 L-41,16 L-39,16 L-39,15 L-38,15 L-38,14 L-36,14 L-36,13 L-34,13 L-34,12 L-33,12 L-33,11 L-31,11 L-31,10 L-29,10 L-29,9 L-27,9 L-27,8 L-24,8 L-24,7 L-22,7 L-22,6 L-20,6 L-20,5 L-17,5 L-17,4 L-14,4 L-14,3 L-10,3 L-10,2 L-6,2 L-6,1 L0,1 Z " fill="#010101" transform="translate(458,266)"/>
<path d="M0,0 L3,0 L3,1 L4,1 L4,3 L5,3 L5,5 L6,5 L6,7 L7,7 L7,10 L8,10 L8,12 L9,12 L9,14 L10,14 L10,16 L11,16 L11,17 L12,17 L12,18 L14,18 L14,19 L17,19 L17,20 L20,20 L20,21 L24,21 L24,22 L27,22 L27,23 L29,23 L29,26 L28,26 L28,28 L27,28 L27,31 L26,31 L26,33 L25,33 L25,36 L24,36 L24,38 L23,38 L23,44 L24,44 L24,45 L25,45 L25,47 L26,47 L26,49 L27,49 L27,51 L28,51 L28,53 L29,53 L29,55 L30,55 L30,57 L31,57 L31,59 L30,59 L30,60 L28,60 L28,61 L26,61 L26,62 L23,62 L23,63 L21,63 L21,64 L19,64 L19,65 L16,65 L16,66 L14,66 L14,67 L13,67 L13,69 L12,69 L12,74 L11,74 L11,76 L10,76 L10,79 L9,79 L9,82 L8,82 L8,85 L5,85 L5,84 L2,84 L2,83 L0,83 L0,82 L-3,82 L-3,81 L-5,81 L-5,80 L-8,80 L-8,79 L-13,79 L-13,80 L-15,80 L-15,81 L-17,81 L-17,82 L-19,82 L-19,83 L-21,83 L-21,84 L-23,84 L-23,85 L-24,85 L-24,86 L-26,86 L-26,87 L-29,87 L-29,84 L-30,84 L-30,82 L-31,82 L-31,80 L-32,80 L-32,77 L-33,77 L-33,75 L-34,75 L-34,73 L-35,73 L-35,71 L-36,71 L-36,69 L-40,69 L-40,68 L-43,68 L-43,67 L-46,67 L-46,66 L-49,66 L-49,65 L-52,65 L-52,64 L-54,64 L-54,60 L-53,60 L-53,57 L-52,57 L-52,55 L-51,55 L-51,52 L-50,52 L-50,50 L-49,50 L-49,47 L-48,47 L-48,44 L-49,44 L-49,42 L-50,42 L-50,40 L-51,40 L-51,38 L-52,38 L-52,36 L-53,36 L-53,34 L-54,34 L-54,32 L-55,32 L-55,30 L-56,30 L-56,27 L-54,27 L-54,26 L-52,26 L-52,25 L-49,25 L-49,24 L-47,24 L-47,23 L-45,23 L-45,22 L-42,22 L-42,21 L-40,21 L-40,20 L-39,20 L-39,19 L-38,19 L-38,16 L-37,16 L-37,12 L-36,12 L-36,9 L-35,9 L-35,6 L-34,6 L-34,3 L-33,3 L-33,2 L-30,2 L-30,3 L-27,3 L-27,4 L-25,4 L-25,5 L-22,5 L-22,6 L-19,6 L-19,7 L-17,7 L-17,8 L-13,8 L-13,7 L-11,7 L-11,6 L-9,6 L-9,5 L-7,5 L-7,4 L-5,4 L-5,3 L-3,3 L-3,2 L-1,2 L-1,1 L0,1 Z " fill="#FFDE5A" transform="translate(615,250)"/>
</svg>
