<svg xmlns="http://www.w3.org/2000/svg" viewBox="0 0 48 48"><path fill="#dad7e5" d="M47,9V41H20V26a3,3,0,0,0-2-2.82c-.62-.24-1-.18-3-.18V1H39V9Z"/><path fill="#edebf2" d="M47,9V39H33A13,13,0,0,1,20,26a3,3,0,0,0-2-2.82V1H39V9Z"/><path fill="#374f68" d="M20,26c0,19.51.06,18.24-.13,18.87A3,3,0,0,1,17,47H4a3,3,0,0,1-3-3V26a3,3,0,0,1,3-3H17A3,3,0,0,1,20,26Z"/><path fill="#425b72" d="M20,26c0,19.51.06,18.24-.13,18.87A3.23,3.23,0,0,1,19,45,16,16,0,0,1,3,29c0-5.32,0-5.27.13-5.87A3.1,3.1,0,0,1,4,23H17A3,3,0,0,1,20,26Z"/><polygon fill="#dad7e5" points="47 9 39 9 39 1 47 9"/><polygon fill="#dad7e5" points="45 7 39 7 39 1 45 7"/><path fill="#fc6" d="M21,16a1,1,0,0,1-.62-1.78l5-4a1,1,0,0,1,1.24,0l4.15,3.32,3.4-5.09a1,1,0,0,1,1.66,1.1C31.57,16,31.76,15.89,31.15,16s-.33.15-5.15-3.71C21.14,16.17,21.47,16,21,16Z"/><path fill="#7c7d7d" d="M42 31H24a1 1 0 0 1 0-2H42A1 1 0 0 1 42 31zM42 26H24a1 1 0 0 1 0-2H42A1 1 0 0 1 42 26zM36 36H24a1 1 0 0 1 0-2H36A1 1 0 0 1 36 36z"/><rect width="11" height="4" x="5" y="27" fill="#9fdbf3"/><path fill="#b2e5fb" d="M16,27v3H9a3,3,0,0,1-3-3Z"/><path fill="#dad7e5" d="M11 36H10a1 1 0 0 1 0-2h1A1 1 0 0 1 11 36zM6 36H5a1 1 0 0 1 0-2H6A1 1 0 0 1 6 36zM16 36H15a1 1 0 0 1 0-2h1A1 1 0 0 1 16 36zM11 40H10a1 1 0 0 1 0-2h1A1 1 0 0 1 11 40zM6 40H5a1 1 0 0 1 0-2H6A1 1 0 0 1 6 40zM11 44H10a1 1 0 0 1 0-2h1A1 1 0 0 1 11 44zM6 44H5a1 1 0 0 1 0-2H6A1 1 0 0 1 6 44z"/><rect width="3" height="6" x="14" y="38" fill="#dad7e5" rx="1"/><path fill="#edebf2" d="M17,39v4a2,2,0,0,1-2-2V38h1A1,1,0,0,1,17,39Z"/><path fill="#374f68" d="M37,20H21a1,1,0,0,1-1-1V7a1,1,0,0,1,2,0V18H37A1,1,0,0,1,37,20Z"/></svg>