<svg xmlns="http://www.w3.org/2000/svg" xmlns:xlink="http://www.w3.org/1999/xlink" viewBox="0 0 64 64"><defs><linearGradient id="b" x1="20" x2="44" y1="32" y2="32" gradientUnits="userSpaceOnUse"><stop offset="0" stop-color="#da5466"/><stop offset="1" stop-color="#f4929c"/></linearGradient><linearGradient id="c" x1="3.66" x2="60.34" y1="32" y2="32" gradientUnits="userSpaceOnUse"><stop offset="0" stop-color="#8cdd79"/><stop offset="1" stop-color="#d4e6b6"/></linearGradient><linearGradient id="d" x1="3.6" x2="60.39" y1="32" y2="32" gradientUnits="userSpaceOnUse"><stop offset="0" stop-color="#7aa8d7"/><stop offset="1" stop-color="#c3d2e7"/></linearGradient><linearGradient id="a" x1="27" x2="37" y1="32" y2="32" gradientUnits="userSpaceOnUse"><stop offset="0" stop-color="#e9a254"/><stop offset="1" stop-color="#f4bb79"/></linearGradient><linearGradient id="e" x1="53" x2="61" y1="24" y2="24" xlink:href="#a"/><linearGradient id="f" x1="10" x2="18" y1="13" y2="13" xlink:href="#a"/><linearGradient id="g" x1="1" x2="9" y1="49" y2="49" xlink:href="#a"/></defs><path fill="url(#b)" d="M32,64c-6.73,0-12-14.06-12-32S25.27,0,32,0,44,14.06,44,32,38.73,64,32,64ZM32,2C27.17,2,22,14.05,22,32s5.17,30,10,30S42,50,42,32,36.83,2,32,2Z"/><path fill="url(#c)" d="M43.74,25.23a83,83,0,0,0-20-10.14c-.15.64-.3,1.3-.43,2A82.77,82.77,0,0,1,43.89,27.75C54.8,35.53,60,43.49,58,47c-2.14,3.72-11,1.89-15.45.54-.13.68-.28,1.33-.43,2C65.59,56.44,66.66,40.93,43.74,25.23Zm-23.63,11C9.2,28.47,4,20.51,6,17c2.18-3.77,11.21-1.83,15.45-.54.13-.68.28-1.33.43-2C-1.59,7.56-2.66,23.07,20.26,38.77a83.28,83.28,0,0,0,20,10.14c.15-.64.3-1.3.43-2A82.51,82.51,0,0,1,20.11,36.25Z"/><path fill="url(#d)" d="M59.71,16c-1.69-2.94-6.24-3.89-12.8-2.68A61.24,61.24,0,0,0,32,18.45c.76.36,1.53.74,2.3,1.13a57.47,57.47,0,0,1,13-4.29c21.47-4,9.41,15.84-15.28,28,.77.38,1.53.74,2.29,1.09A80,80,0,0,0,52.21,32C58.76,25.77,61.86,19.72,59.71,16Zm-43,32.71c-21.68,4-9.12-16,15.28-28-.77-.38-1.53-.74-2.29-1.09A82.08,82.08,0,0,0,13.25,30.67C8.74,34.56,1.3,42.83,4.29,48c2.18,3.81,8.48,3.47,12.8,2.68A61.24,61.24,0,0,0,32,45.55c-.76-.36-1.53-.74-2.3-1.13A57.47,57.47,0,0,1,16.72,48.71Z"/><circle cx="32" cy="32" r="5" fill="url(#a)"/><circle cx="57" cy="24" r="4" fill="url(#e)"/><circle cx="14" cy="13" r="4" fill="url(#f)"/><circle cx="5" cy="49" r="4" fill="url(#g)"/></svg>