<svg xmlns="http://www.w3.org/2000/svg" xmlns:xlink="http://www.w3.org/1999/xlink" id="Capa_1" width="512" height="512" enable-background="new 0 0 510 510" viewBox="0 0 510 510">
  <linearGradient id="lg1">
    <stop offset="0" stop-color="#f9f7fc"/>
    <stop offset="1" stop-color="#f0ddfc"/>
  </linearGradient>
  <linearGradient xlink:href="#lg1" id="SVGID_1_" x1="371.311" x2="549.089" y1="212.12" y2="324.592" gradientUnits="userSpaceOnUse"/>
  <linearGradient xlink:href="#lg1" id="SVGID_2_" x1="470.353" x2="318.157" y1="212.232" y2="349.855" gradientUnits="userSpaceOnUse"/>
  <linearGradient id="lg2">
    <stop offset="0" stop-color="#ffda45"/>
    <stop offset="1" stop-color="#ffa425"/>
  </linearGradient>
  <linearGradient xlink:href="#lg2" id="SVGID_3_" x1="434.613" x2="472.081" y1="195.602" y2="195.602" gradientUnits="userSpaceOnUse"/>
  <linearGradient id="lg3">
    <stop offset="0" stop-color="#ffda45" stop-opacity="0"/>
    <stop offset="1" stop-color="#fcee21"/>
  </linearGradient>
  <linearGradient xlink:href="#lg3" id="SVGID_4_" x1="454.046" x2="442.487" y1="196.593" y2="180.206" gradientUnits="userSpaceOnUse"/>
  <linearGradient id="lg4">
    <stop offset="0" stop-color="#ffda45" stop-opacity="0"/>
    <stop offset="1" stop-color="#b53759"/>
  </linearGradient>
  <linearGradient xlink:href="#lg4" id="SVGID_5_" x1="453.998" x2="479.748" y1="202.782" y2="154.89" gradientUnits="userSpaceOnUse"/>
  <linearGradient xlink:href="#lg2" id="SVGID_6_" x1="393.992" x2="451.9" y1="119.303" y2="119.303" gradientUnits="userSpaceOnUse"/>
  <linearGradient xlink:href="#lg3" id="SVGID_7_" x1="424.026" x2="406.161" y1="120.835" y2="95.507" gradientUnits="userSpaceOnUse"/>
  <linearGradient xlink:href="#lg4" id="SVGID_8_" x1="423.952" x2="463.751" y1="130.4" y2="56.379" gradientUnits="userSpaceOnUse"/>
  <linearGradient id="lg5">
    <stop offset="0" stop-color="#fff" stop-opacity="0"/>
    <stop offset="1" stop-color="#fff"/>
  </linearGradient>
  <linearGradient xlink:href="#lg5" id="SVGID_9_" x1="485.072" x2="397.39" y1="236.778" y2="270.037" gradientUnits="userSpaceOnUse"/>
  <linearGradient xlink:href="#lg2" id="SVGID_10_" x1="416.607" x2="501.867" y1="309.352" y2="406.454" gradientUnits="userSpaceOnUse"/>
  <linearGradient id="lg6">
    <stop offset="0" stop-color="#f0ddfc" stop-opacity="0"/>
    <stop offset=".289" stop-color="#c8b7e0" stop-opacity=".289"/>
    <stop offset=".592" stop-color="#a595c8" stop-opacity=".592"/>
    <stop offset=".84" stop-color="#8f81b8" stop-opacity=".84"/>
    <stop offset="1" stop-color="#8779b3"/>
  </linearGradient>
  <linearGradient xlink:href="#lg6" id="SVGID_11_" x1="459.827" x2="364.08" y1="132.15" y2="-86.028" gradientUnits="userSpaceOnUse"/>
  <linearGradient xlink:href="#lg1" id="SVGID_12_" x1="431.148" x2="442.201" y1="47.07" y2="116.541" gradientUnits="userSpaceOnUse"/>
  <linearGradient xlink:href="#lg3" id="SVGID_13_" x1="386.776" x2="429.406" y1="283.822" y2="232.903" gradientUnits="userSpaceOnUse"/>
  <linearGradient xlink:href="#lg3" id="SVGID_14_" x1="469.255" x2="479.32" y1="285.103" y2="250.17" gradientUnits="userSpaceOnUse"/>
  <linearGradient xlink:href="#lg3" id="SVGID_15_" x1="456.386" x2="427.966" y1="297.595" y2="266.807" gradientUnits="userSpaceOnUse"/>
  <linearGradient id="SVGID_16_" x1="470.194" x2="346.252" y1="329.903" y2="355.165" gradientUnits="userSpaceOnUse">
    <stop offset="0" stop-color="#ffda45" stop-opacity="0"/>
    <stop offset="1" stop-color="#fff"/>
  </linearGradient>
  <linearGradient id="SVGID_17_" x1="428.107" x2="464.816" y1="355.753" y2="450.486" gradientUnits="userSpaceOnUse">
    <stop offset="0" stop-color="#f0ddfc" stop-opacity="0"/>
    <stop offset=".183" stop-color="#ecd9f9" stop-opacity=".183"/>
    <stop offset=".383" stop-color="#deccf0" stop-opacity=".383"/>
    <stop offset=".591" stop-color="#c9b8e1" stop-opacity=".591"/>
    <stop offset=".802" stop-color="#aa9bcc" stop-opacity=".802"/>
    <stop offset="1" stop-color="#8779b3"/>
  </linearGradient>
  <linearGradient xlink:href="#lg1" id="SVGID_18_" x1="112.911" x2="415.021" y1="228.486" y2="589.129" gradientUnits="userSpaceOnUse"/>
  <radialGradient id="SVGID_19_" cx="171.954" cy="169.55" r="320.787" gradientUnits="userSpaceOnUse">
    <stop offset="0" stop-color="#f0ddfc" stop-opacity="0"/>
    <stop offset=".445" stop-color="#eedbfb" stop-opacity=".445"/>
    <stop offset=".606" stop-color="#e7d5f6" stop-opacity=".606"/>
    <stop offset=".72" stop-color="#dcc9ee" stop-opacity=".72"/>
    <stop offset=".813" stop-color="#cbb9e2" stop-opacity=".813"/>
    <stop offset=".892" stop-color="#b5a4d3" stop-opacity=".892"/>
    <stop offset=".961" stop-color="#9a8bc0" stop-opacity=".961"/>
    <stop offset="1" stop-color="#8779b3"/>
  </radialGradient>
  <linearGradient xlink:href="#lg1" id="SVGID_20_" x1="227.507" x2="122.512" y1="254.904" y2="319.638" gradientUnits="userSpaceOnUse"/>
  <linearGradient id="lg7">
    <stop offset="0" stop-color="#92f37f"/>
    <stop offset=".282" stop-color="#8ff07e"/>
    <stop offset=".5" stop-color="#85e77d"/>
    <stop offset=".697" stop-color="#75d97a"/>
    <stop offset=".88" stop-color="#5ec476"/>
    <stop offset="1" stop-color="#4ab272"/>
  </linearGradient>
  <radialGradient xlink:href="#lg7" id="SVGID_21_" cx="175.01" cy="223.681" r="44.862" gradientUnits="userSpaceOnUse"/>
  <linearGradient id="lg8">
    <stop offset="0" stop-color="#92f37f" stop-opacity="0"/>
    <stop offset="1" stop-color="#ffee83"/>
  </linearGradient>
  <linearGradient xlink:href="#lg8" id="SVGID_22_" x1="186.013" x2="168.148" y1="238.995" y2="213.667" gradientUnits="userSpaceOnUse"/>
  <linearGradient id="lg9">
    <stop offset="0" stop-color="#4ab272" stop-opacity="0"/>
    <stop offset="1" stop-color="#009245"/>
  </linearGradient>
  <linearGradient xlink:href="#lg9" id="SVGID_23_" x1="185.938" x2="225.737" y1="248.56" y2="174.539" gradientUnits="userSpaceOnUse"/>
  <radialGradient xlink:href="#lg7" id="SVGID_24_" cx="199.603" cy="161.112" r="23.614" gradientUnits="userSpaceOnUse"/>
  <linearGradient xlink:href="#lg8" id="SVGID_25_" x1="205.394" x2="195.991" y1="169.173" y2="155.841" gradientUnits="userSpaceOnUse"/>
  <linearGradient xlink:href="#lg9" id="SVGID_26_" x1="205.355" x2="226.304" y1="174.207" y2="135.245" gradientUnits="userSpaceOnUse"/>
  <linearGradient xlink:href="#lg5" id="SVGID_27_" x1="188.17" x2="98.174" y1="264.701" y2="231.545" gradientUnits="userSpaceOnUse"/>
  <radialGradient xlink:href="#lg7" id="SVGID_28_" cx="130.508" cy="331.442" r="202.539" gradientUnits="userSpaceOnUse"/>
  <linearGradient xlink:href="#lg6" id="SVGID_29_" x1="207.864" x2="111.553" y1="132.687" y2="-86.777" gradientUnits="userSpaceOnUse"/>
  <linearGradient xlink:href="#lg1" id="SVGID_30_" x1="178.95" x2="190.002" y1="47.07" y2="116.541" gradientUnits="userSpaceOnUse"/>
  <linearGradient xlink:href="#lg8" id="SVGID_31_" x1="122.328" x2="157.853" y1="314.816" y2="270.41" gradientUnits="userSpaceOnUse"/>
  <linearGradient xlink:href="#lg8" id="SVGID_32_" x1="265.722" x2="254.472" y1="324.444" y2="285.07" gradientUnits="userSpaceOnUse"/>
  <linearGradient xlink:href="#lg8" id="SVGID_33_" x1="217.017" x2="240.306" y1="321.215" y2="260.428" gradientUnits="userSpaceOnUse"/>
  <linearGradient xlink:href="#lg8" id="SVGID_34_" x1="174.701" x2="162.07" y1="345.616" y2="287.987" gradientUnits="userSpaceOnUse"/>
  <linearGradient xlink:href="#lg8" id="SVGID_35_" x1="205.751" x2="129.998" y1="382.538" y2="466.541" gradientUnits="userSpaceOnUse"/>
  <linearGradient xlink:href="#lg5" id="SVGID_36_" x1="159.739" x2="406.045" y1="377.238" y2="265.927" gradientUnits="userSpaceOnUse"/>
  <linearGradient id="SVGID_37_" x1="172.46" x2="194.542" y1="361.889" y2="468.85" gradientUnits="userSpaceOnUse">
    <stop offset="0" stop-color="#4ab272" stop-opacity="0"/>
    <stop offset=".311" stop-color="#47b170" stop-opacity=".311"/>
    <stop offset=".52" stop-color="#3ead6b" stop-opacity=".52"/>
    <stop offset=".698" stop-color="#2fa662" stop-opacity=".698"/>
    <stop offset=".858" stop-color="#1a9d55" stop-opacity=".858"/>
    <stop offset="1" stop-color="#009245"/>
  </linearGradient>
  <path fill="url(#SVGID_1_)" d="m433.626 468.674c-36.576 0-66.226-29.65-66.226-66.226v-338.288h132.451v338.289c0 36.575-29.65 66.225-66.225 66.225z"/>
  <path fill="url(#SVGID_2_)" d="m434.506 455.749h-1.762c-28.829 0-52.199-23.37-52.199-52.199v-339.39h106.159v339.39c.001 28.829-23.369 52.199-52.198 52.199z"/>
  <circle cx="453.347" cy="195.602" r="18.734" fill="url(#SVGID_3_)"/>
  <circle cx="453.347" cy="195.602" r="15.635" fill="url(#SVGID_4_)"/>
  <path fill="url(#SVGID_5_)" d="m461.727 178.844c1.263 2.522 1.976 5.367 1.976 8.38 0 10.346-8.387 18.734-18.734 18.734-3.013 0-5.858-.712-8.38-1.976 3.076 6.139 9.424 10.354 16.758 10.354 10.346 0 18.734-8.387 18.734-18.734 0-7.334-4.215-13.682-10.354-16.758z"/>
  <circle cx="422.946" cy="119.303" r="28.954" fill="url(#SVGID_6_)"/>
  <circle cx="422.946" cy="119.303" r="24.165" fill="url(#SVGID_7_)"/>
  <path fill="url(#SVGID_8_)" d="m435.898 93.402c1.953 3.897 3.054 8.296 3.054 12.952 0 15.991-12.963 28.954-28.954 28.954-4.656 0-9.055-1.101-12.952-3.054 4.754 9.488 14.566 16.002 25.901 16.002 15.991 0 28.954-12.963 28.954-28.954-.001-11.334-6.515-21.146-16.003-25.9z"/>
  <path fill="url(#SVGID_9_)" d="m445.273 454.632c23.662-4.963 41.432-25.944 41.432-51.081v-339.391h-82.864v339.39c0 25.137 17.77 46.119 41.432 51.082z"/>
  <path fill="url(#SVGID_10_)" d="m486.706 234.258v169.288c0 28.834-23.375 52.198-52.198 52.198h-1.764c-28.822 0-52.198-23.364-52.198-52.198v-173.326c6.276-4.097 13.772-6.477 21.836-6.477 20.261 0 37.005 15.051 39.681 34.577.746-.071 1.504-.107 2.262-.107 4.121 0 8.017.947 11.475 2.629 2.203-15.039 15.157-26.585 30.8-26.585h.106z"/>
  <path fill="url(#SVGID_11_)" d="m499.953 64.16h-132.655v16.57l132.655 135.48z"/>
  <path fill="url(#SVGID_12_)" d="m488.686 83.953h-110.121c-11.771 0-21.314-9.542-21.314-21.314 0-11.771 9.543-21.314 21.314-21.314h110.122c11.771 0 21.314 9.543 21.314 21.314-.001 11.772-9.544 21.314-21.315 21.314z"/>
  <path fill="url(#SVGID_13_)" d="m442.064 258.32c-.001 0-.001 0 0 0-1.243-9.063-5.519-17.158-11.767-23.235-.063-.061-.122-.125-.185-.186-.007-.007-.015-.014-.022-.02-7.196-6.896-16.958-11.133-27.708-11.133-.196 0-.388.016-.584.018-.726.01-1.449.031-2.165.08-.389.026-.772.073-1.158.11-.53.052-1.06.104-1.584.176-.414.057-.823.127-1.233.196-.489.083-.976.171-1.459.271-.411.086-.821.177-1.227.275-.477.115-.95.241-1.42.373-.393.11-.787.22-1.176.342-.493.155-.979.327-1.463.5-.35.125-.703.242-1.048.377-.669.261-1.326.544-1.977.839-.215.098-.432.193-.646.294-.719.341-1.427.702-2.122 1.084-.253.139-.497.291-.747.436-.523.302-1.042.61-1.549.935-.094.06-.185.125-.278.186v67.136c6.281 4.094 13.777 6.481 21.836 6.481 7.175 0 13.909-1.888 19.741-5.192 12.136-6.881 20.318-19.909 20.318-34.857 0-1.868-.126-3.693-.377-5.486z"/>
  <path fill="url(#SVGID_14_)" d="m486.706 296.497v-62.238c-.015 0-.03-.001-.046-.001h-.061c-10.42 0-19.642 5.127-25.293 12.993-2.832 3.944-4.769 8.574-5.501 13.596-.21 1.479-.325 2.99-.325 4.532 0 10.962 5.664 20.601 14.234 26.14 4.867 3.157 10.668 4.983 16.888 4.983.035-.001.069-.005.104-.005z"/>
  <path fill="url(#SVGID_15_)" d="m470.658 284.543c0 2.413-.325 4.752-.944 6.975-3.053 11.15-13.259 19.343-25.385 19.343-9.336 0-17.539-4.867-22.206-12.199-2.602-4.081-4.112-8.916-4.112-14.119 0-13.773 10.573-25.081 24.053-26.224.745-.073 1.5-.105 2.266-.105 4.112 0 8.014.944 11.475 2.633 8.79 4.259 14.853 13.269 14.853 23.696z"/>
  <path fill="url(#SVGID_16_)" d="m486.599 234.258c-15.643 0-28.597 11.546-30.8 26.585-3.458-1.682-7.354-2.629-11.475-2.629-.758 0-1.516.036-2.262.107-2.612-19.055-18.622-33.841-38.222-34.544v198.433c0 1.388.054 2.763.161 4.123 1.17 14.934 12.79 27.032 27.6 29.28.546.083.942.13 1.142.13h1.764c26.12 0 47.767-19.188 51.596-44.247.108-.706.192-1.42.271-2.136.018-.159.044-.315.06-.474.178-1.755.27-3.535.27-5.337v-169.291z"/>
  <path fill="url(#SVGID_17_)" d="m367.4 325.107v77.342c0 36.575 29.65 66.226 66.226 66.226 36.575 0 66.226-29.65 66.226-66.226v-77.342z"/>
  <path fill="url(#SVGID_18_)" d="m356.361 384.311-90.32-132.893c-11.915-17.531-18.286-38.239-18.286-59.436v-127.822h-132.656v127.822c0 21.197-6.371 41.905-18.286 59.436l-90.32 132.893c-13.667 20.11-4.85 47.709 17.945 56.17 101.283 37.592 212.694 37.592 313.977 0 22.796-8.461 31.614-36.06 17.946-56.17z"/>
  <path fill="url(#SVGID_19_)" d="m322.924 335.113c-91.887 30.353-191.108 30.353-282.995 0l-33.436 49.198c-13.667 20.11-4.85 47.709 17.945 56.17 101.283 37.592 212.694 37.592 313.977 0 22.795-8.461 31.613-36.06 17.945-56.17z"/>
  <path fill="url(#SVGID_20_)" d="m181.427 456.832c-52.354 0-103.786-9.236-152.868-27.453-7.43-2.758-13.074-8.669-15.487-16.219-2.412-7.549-1.24-15.639 3.215-22.193l90.32-132.893c13.303-19.573 20.334-42.427 20.334-66.092v-115.98h108.973v115.98c0 23.665 7.031 46.519 20.334 66.092l90.32 132.893c4.454 6.555 5.626 14.644 3.215 22.193-2.412 7.55-8.057 13.461-15.487 16.219-49.083 18.217-100.515 27.453-152.869 27.453z"/>
  <circle cx="184.932" cy="237.463" r="28.954" fill="url(#SVGID_21_)"/>
  <circle cx="184.932" cy="237.463" r="24.165" fill="url(#SVGID_22_)"/>
  <path fill="url(#SVGID_23_)" d="m197.884 211.562c1.953 3.897 3.054 8.296 3.054 12.952 0 15.991-12.963 28.954-28.954 28.954-4.656 0-9.055-1.101-12.952-3.054 4.754 9.488 14.566 16.002 25.901 16.002 15.991 0 28.954-12.963 28.954-28.954-.001-11.334-6.515-21.146-16.003-25.9z"/>
  <circle cx="204.826" cy="168.366" r="15.241" fill="url(#SVGID_24_)"/>
  <circle cx="204.826" cy="168.366" r="12.72" fill="url(#SVGID_25_)"/>
  <path fill="url(#SVGID_26_)" d="m211.643 154.733c1.028 2.051 1.607 4.367 1.607 6.818 0 8.417-6.823 15.241-15.24 15.241-2.451 0-4.766-.579-6.818-1.607 2.502 4.994 7.667 8.423 13.633 8.423 8.417 0 15.241-6.823 15.241-15.24 0-5.968-3.429-11.132-8.423-13.635z"/>
  <path fill="url(#SVGID_27_)" d="m266.041 251.418c-11.915-17.531-18.286-38.239-18.286-59.436v-115.98h-85.985v115.98c0 23.665-7.031 46.519-20.334 66.092l-90.32 132.893c-4.455 6.555-5.627 14.644-3.215 22.193 2.412 7.55 8.057 13.461 15.487 16.219 49.082 18.217 100.514 27.453 152.868 27.453 43.537 0 86.432-6.41 127.873-19.038 18.46-10.61 24.689-35.155 12.231-53.484z"/>
  <path fill="url(#SVGID_28_)" d="m349.779 413.156c-2.404 7.555-8.052 13.464-15.489 16.223-49.072 18.213-100.512 27.449-152.863 27.449-52.352 0-103.792-9.236-152.863-27.449-7.437-2.759-13.085-8.668-15.489-16.223-2.416-7.543-1.243-15.631 3.209-22.191l71.215-104.763c8.123-12.031 21.883-19.941 37.491-19.941 22.866 0 41.777 16.981 44.797 39.03.841-.083 1.693-.118 2.558-.118 4.642 0 9.047 1.066 12.955 2.972 2.475-16.981 17.099-30.019 34.767-30.019 11.51 0 21.729 5.53 28.136 14.092 4.05-2.084 8.633-3.245 13.488-3.245 9.142 0 17.324 4.121 22.771 10.622l3.398 4.997 58.711 86.373c4.452 6.56 5.624 14.648 3.208 22.191z"/>
  <path fill="url(#SVGID_29_)" d="m247.755 191.982v-127.822h-132.656v16.57l135.481 135.48c-1.86-7.9-2.825-16.026-2.825-24.228z"/>
  <path fill="url(#SVGID_30_)" d="m236.488 83.953h-110.122c-11.771 0-21.314-9.542-21.314-21.314 0-11.771 9.543-21.314 21.314-21.314h110.122c11.771 0 21.314 9.543 21.314 21.314 0 11.772-9.543 21.314-21.314 21.314z"/>
  <path fill="url(#SVGID_31_)" d="m170.213 311.484c0 16.874-9.236 31.582-22.937 39.35-6.584 3.73-14.186 5.862-22.286 5.862-24.974 0-45.211-20.237-45.211-45.211 0-9.355 2.842-18.058 7.721-25.282 8.123-12.031 21.883-19.941 37.491-19.941 22.866 0 41.777 16.981 44.797 39.03.283 2.024.425 4.084.425 6.192z"/>
  <path fill="url(#SVGID_32_)" d="m291.412 318.684c0 16.413-13.31 29.711-29.722 29.711-7.626 0-14.565-2.866-19.823-7.59 8.123-6.418 13.334-16.377 13.334-27.544 0-7.898-2.605-15.181-6.998-21.043 4.05-2.084 8.633-3.245 13.488-3.245 9.142 0 17.324 4.121 22.771 10.622 1.302 1.539 2.439 3.209 3.398 4.997 2.261 4.192 3.552 8.988 3.552 14.092z"/>
  <path fill="url(#SVGID_33_)" d="m255.2 313.26c0 11.167-5.21 21.125-13.334 27.544-5.992 4.76-13.57 7.59-21.8 7.59-7.022 0-13.57-2.06-19.065-5.625-9.675-6.252-16.069-17.135-16.069-29.509 0-1.741.13-3.446.367-5.116 2.475-16.981 17.099-30.019 34.767-30.019 11.51 0 21.729 5.53 28.136 14.092 4.393 5.862 6.998 13.145 6.998 21.043z"/>
  <path fill="url(#SVGID_34_)" d="m202.067 334.895c0 2.724-.367 5.364-1.066 7.875-3.446 12.587-14.968 21.836-28.657 21.836-10.539 0-19.799-5.494-25.069-13.772-2.937-4.606-4.642-10.065-4.642-15.939 0-15.548 11.936-28.313 27.153-29.604.841-.083 1.693-.118 2.558-.118 4.642 0 9.047 1.066 12.955 2.972 9.924 4.808 16.768 14.979 16.768 26.75z"/>
  <path fill="url(#SVGID_35_)" d="m287.859 304.592-3.398-4.997c-5.447-6.501-13.63-10.622-22.771-10.622-4.855 0-9.438 1.161-13.488 3.245-6.406-8.562-16.626-14.092-28.136-14.092-17.668 0-32.292 13.038-34.767 30.019-3.908-1.907-8.313-2.972-12.955-2.972-.864 0-1.717.035-2.558.118-2.571-18.77-16.661-33.86-34.9-37.935l-32.164 47.325c-.555.817-1.097 1.638-1.625 2.464-38.5 60.155 5.661 139.148 77.08 139.671 1.083.008 2.167.012 3.25.012 52.352 0 103.792-9.236 152.863-27.449 7.436-2.759 13.085-8.668 15.489-16.223 2.416-7.543 1.243-15.631-3.209-22.191z"/>
  <path fill="url(#SVGID_36_)" d="m349.779 413.156c-2.404 7.555-8.052 13.464-15.489 16.223-49.072 18.213-100.512 27.449-152.863 27.449-52.352 0-103.792-9.236-152.863-27.449-7.437-2.759-13.085-8.668-15.489-16.223-2.416-7.543-1.243-15.631 3.209-22.191l71.215-104.763c8.123-12.031 21.883-19.941 37.491-19.941 22.866 0 41.777 16.981 44.797 39.03.841-.083 1.693-.118 2.558-.118 4.642 0 9.047 1.066 12.955 2.972 2.475-16.981 17.099-30.019 34.767-30.019 11.51 0 21.729 5.53 28.136 14.092 4.05-2.084 8.633-3.245 13.488-3.245 9.142 0 17.324 4.121 22.771 10.622l3.398 4.997 58.711 86.373c4.452 6.56 5.624 14.648 3.208 22.191z"/>
  <path fill="url(#SVGID_37_)" d="m311.12 338.812c-84.593 25.394-174.791 25.394-259.384.001l-35.452 52.152c-4.452 6.56-5.625 14.648-3.209 22.191 2.404 7.555 8.052 13.464 15.489 16.223 49.072 18.213 100.512 27.449 152.863 27.449 52.352 0 103.792-9.236 152.863-27.449 7.436-2.759 13.085-8.668 15.489-16.223 2.416-7.543 1.243-15.631-3.209-22.191z"/>
</svg>
