<svg xmlns="http://www.w3.org/2000/svg" xmlns:xlink="http://www.w3.org/1999/xlink" id="Capa_1" width="512" height="512" enable-background="new 0 0 510 510" viewBox="0 0 510 510">
  <linearGradient id="lg1">
    <stop offset="0" stop-color="#ffda45"/>
    <stop offset="1" stop-color="#ffa425"/>
  </linearGradient>
  <linearGradient xlink:href="#lg1" id="SVGID_1_" x1="223.88" x2="389.931" y1="176.268" y2="596.365" gradientUnits="userSpaceOnUse"/>
  <linearGradient xlink:href="#lg1" id="SVGID_2_" x1="465" x2="-135.9" y1="465" y2="-135.9" gradientUnits="userSpaceOnUse"/>
  <linearGradient id="lg2">
    <stop offset="0" stop-color="#ffda45" stop-opacity="0"/>
    <stop offset="1" stop-color="#b53759"/>
  </linearGradient>
  <linearGradient xlink:href="#lg2" id="SVGID_3_" x1="213.564" x2="152.564" y1="448.936" y2="394.269" gradientUnits="userSpaceOnUse"/>
  <linearGradient id="SVGID_4_" x1="227.546" x2="374.035" y1="185.544" y2="556.148" gradientUnits="userSpaceOnUse">
    <stop offset="0" stop-color="#7e8595"/>
    <stop offset="1" stop-color="#555a66"/>
  </linearGradient>
  <linearGradient id="lg3">
    <stop offset="0" stop-color="#555a66" stop-opacity="0"/>
    <stop offset="1" stop-color="#555a66"/>
  </linearGradient>
  <linearGradient xlink:href="#lg3" id="SVGID_5_" x1="53" x2="12.988" y1="255" y2="255" gradientUnits="userSpaceOnUse"/>
  <linearGradient xlink:href="#lg3" id="SVGID_6_" x1="255" x2="255" y1="130" y2="87.704" gradientUnits="userSpaceOnUse"/>
  <linearGradient id="SVGID_7_" x1="276.236" x2="4.732" y1="300.681" y2="-283.354" gradientUnits="userSpaceOnUse">
    <stop offset="0" stop-color="#bec3d2" stop-opacity="0"/>
    <stop offset=".221" stop-color="#c5c9d7" stop-opacity=".221"/>
    <stop offset=".534" stop-color="#d7dae3" stop-opacity=".534"/>
    <stop offset=".901" stop-color="#f6f6f8" stop-opacity=".901"/>
    <stop offset="1" stop-color="#fff"/>
  </linearGradient>
  <linearGradient xlink:href="#lg3" id="SVGID_8_" x1="194.505" x2="171.613" y1="422.245" y2="399.353" gradientUnits="userSpaceOnUse"/>
  <linearGradient xlink:href="#lg1" id="SVGID_9_" x1="96.497" x2="110.699" y1="396.217" y2="445.548" gradientUnits="userSpaceOnUse"/>
  <linearGradient id="SVGID_10_" x1="98.135" x2="65.468" y1="408.538" y2="365.871" gradientUnits="userSpaceOnUse">
    <stop offset="0" stop-color="#ffda45" stop-opacity="0"/>
    <stop offset="1" stop-color="#fcee21"/>
  </linearGradient>
  <linearGradient xlink:href="#lg2" id="SVGID_11_" x1="128.071" x2="140.682" y1="421.555" y2="343.636" gradientUnits="userSpaceOnUse"/>
  <linearGradient id="lg4">
    <stop offset="0" stop-color="#f9f7fc"/>
    <stop offset="1" stop-color="#f0ddfc"/>
  </linearGradient>
  <linearGradient xlink:href="#lg4" id="SVGID_12_" x1="90.122" x2="154.122" y1="173.022" y2="407.021" gradientUnits="userSpaceOnUse"/>
  <linearGradient xlink:href="#lg4" id="SVGID_13_" x1="229.427" x2="293.427" y1="136.837" y2="370.837" gradientUnits="userSpaceOnUse"/>
  <linearGradient xlink:href="#lg4" id="SVGID_14_" x1="355.494" x2="419.494" y1="104.273" y2="338.274" gradientUnits="userSpaceOnUse"/>
  <linearGradient xlink:href="#lg3" id="SVGID_15_" x1="387.432" x2="376.932" y1="397.944" y2="357.444" gradientUnits="userSpaceOnUse"/>
  <linearGradient xlink:href="#lg4" id="SVGID_16_" x1="354.639" x2="374.192" y1="312.756" y2="384.247" gradientTransform="rotate(-65.97 363.266 362.54)" gradientUnits="userSpaceOnUse"/>
  <path fill="url(#SVGID_1_)" d="m494.098 433.512h-478.196c-8.782 0-15.902-7.12-15.902-15.903v-325.218c0-8.783 7.12-15.902 15.902-15.902h478.195c8.783 0 15.902 7.12 15.902 15.902v325.219c.001 8.782-7.119 15.902-15.901 15.902z"/>
  <path fill="url(#SVGID_2_)" d="m486.067 425.453h-462.134c-8.435 0-15.273-6.838-15.273-15.273v-310.36c0-8.435 6.838-15.273 15.273-15.273h462.133c8.435 0 15.273 6.838 15.273 15.273v310.36c.001 8.435-6.837 15.273-15.272 15.273z"/>
  <path fill="url(#SVGID_3_)" d="m216.213 433.512-40.85-40.85-3.603-1.104v41.954z"/>
  <path fill="url(#SVGID_4_)" d="m472.591 409.942h-435.181c-7.061 0-12.785-5.724-12.785-12.785v-284.313c0-7.061 5.724-12.785 12.785-12.785h435.181c7.061 0 12.785 5.724 12.785 12.785v284.313c0 7.061-5.724 12.785-12.785 12.785z"/>
  <path fill="url(#SVGID_5_)" d="m66 100.058h-28.59c-7.061 0-12.785 5.724-12.785 12.785v284.313c0 7.061 5.724 12.785 12.785 12.785h28.59z"/>
  <path fill="url(#SVGID_6_)" d="m472.59 100.058h-435.18c-7.061 0-12.785 5.724-12.785 12.785v23.157h460.752v-23.156c-.001-7.062-5.725-12.786-12.787-12.786z"/>
  <path fill="url(#SVGID_7_)" d="m458.022 395.043h-406.044c-6.436 0-11.654-5.218-11.654-11.654v-256.778c0-6.436 5.218-11.654 11.654-11.654h406.044c6.436 0 11.654 5.218 11.654 11.654v256.778c0 6.436-5.218 11.654-11.654 11.654z"/>
  <path fill="url(#SVGID_8_)" d="m192.643 409.942-17.28-17.28-3.603-1.104v18.384z"/>
  <path fill="url(#SVGID_9_)" d="m135.445 393.188c0 6.057-4.911 10.968-10.968 10.968h-46.564c-6.057 0-10.968-4.91-10.968-10.968 0-.9-.73-1.63-1.63-1.63h-34.895c-3.201 0-5.796 2.595-5.796 5.796v30.362c0 3.201 2.595 5.796 5.796 5.796h141.55c3.201 0 5.796-2.595 5.796-5.796v-30.362c0-3.201-2.595-5.796-5.796-5.796h-34.895c-.9 0-1.63.73-1.63 1.63z"/>
  <path fill="url(#SVGID_10_)" d="m30.63 423.423v-21.777c0-2.255 1.828-4.083 4.083-4.083h23.92c1.626 0 3.086.969 3.743 2.456 2.634 5.966 8.608 10.142 15.538 10.142h46.564c6.93 0 12.903-4.175 15.537-10.142.657-1.487 2.117-2.456 3.743-2.456h23.92c2.255 0 4.083 1.828 4.083 4.083v21.777c0 2.255-1.828 4.083-4.083 4.083h-132.965c-2.255 0-4.083-1.828-4.083-4.083z"/>
  <path fill="url(#SVGID_11_)" d="m171.97 433.512c3.201 0 5.796-2.595 5.796-5.796v-30.362c0-1.932-.949-3.639-2.403-4.692l-99.997 40.85z"/>
  <path fill="url(#SVGID_12_)" d="m63.795 307.569c0-.434.143-1.229.436-2.392l40.45-132.66c1.159-3.622 3.806-6.415 7.938-8.373 4.131-1.957 8.879-2.936 14.244-2.936 5.361 0 10.112.979 14.244 2.936 4.133 1.958 6.775 4.751 7.939 8.373l40.667 132.66c.289 1.162.436 1.957.436 2.392 0 3.773-2.357 7.035-7.068 9.787-4.713 2.756-9.605 4.132-14.68 4.132-6.234 0-9.932-2.101-11.091-6.307l-7.393-27.185h-45.888l-7.395 27.185c-1.162 4.206-4.858 6.307-11.091 6.307-5.076 0-9.971-1.376-14.68-4.132-4.712-2.752-7.068-6.015-7.068-9.787zm47.193-45.67h31.751l-15.875-58.283z"/>
  <path fill="url(#SVGID_13_)" d="m209.765 311.266v-138.314c0-3.334 1.447-5.906 4.35-7.721 2.898-1.811 6.378-2.718 10.439-2.718h44.582c28.996 0 43.495 12.905 43.495 38.71 0 17.398-6.164 28.782-18.485 34.145 7.395 2.756 12.974 6.707 16.746 11.851 3.768 5.149 5.654 12.798 5.654 22.944v4.567c0 16.238-3.953 28.092-11.853 35.557-7.903 7.469-18.523 11.2-31.859 11.2h-48.279c-4.496 0-8.084-1.013-10.766-3.044-2.685-2.028-4.024-4.421-4.024-7.177zm33.709-88.947h22.835c3.915 0 6.959-1.484 9.134-4.458 2.175-2.97 3.262-6.487 3.262-10.548 0-4.057-1.087-7.611-3.262-10.656s-5.219-4.566-9.134-4.566h-22.835zm0 69.592h21.748c11.597 0 17.397-6.666 17.397-20.008v-3.479c0-13.338-5.801-20.008-17.397-20.008h-21.748z"/>
  <path fill="url(#SVGID_14_)" d="m339.423 271.468v-57.631c0-17.687 4.818-30.664 14.462-38.929 9.641-8.264 22.217-12.396 37.732-12.396 15.946 0 29.032 3.843 39.255 11.526 10.221 7.686 15.332 18.268 15.332 31.751 0 6.235-1.306 10.477-3.915 12.723-2.61 2.249-6.96 3.37-13.049 3.37-10.874 0-16.528-3.404-16.963-10.221-.435-13.049-6.888-19.572-19.355-19.572-13.048 0-19.573 7.251-19.573 21.747v57.631c0 14.499 6.596 21.747 19.791 21.747 4.057 0 7.428-.652 10.112-1.957 2.681-1.305 4.6-3.296 5.763-5.98 1.159-2.681 1.92-4.892 2.283-6.633.361-1.74.688-4.132.979-7.177.577-6.814 6.161-10.222 16.745-10.222 6.232 0 10.656 1.125 13.267 3.371 2.609 2.25 3.915 6.49 3.915 12.723 0 14.064-5.111 25.156-15.332 33.273-10.223 8.121-23.309 12.179-39.255 12.179-15.516 0-28.092-4.132-37.732-12.396-9.643-8.263-14.462-21.236-14.462-38.927z"/>
  <path fill="url(#SVGID_15_)" d="m379.307 357.183c-.944-1.287-2.22-2.357-3.782-3.053l-28.317-12.616c-4.793-2.135-10.409.019-12.544 4.812-1.855 4.165-.469 8.948 3.07 11.532l52.084 52.084h42.248z"/>
  <path fill="url(#SVGID_16_)" d="m380.336 366.674c-2.135 4.793-7.751 6.947-12.544 4.812l-28.317-12.616c-4.793-2.135-6.947-7.751-4.812-12.544 2.135-4.793 7.751-6.947 12.544-4.812l28.317 12.616c4.793 2.135 6.947 7.752 4.812 12.544z"/>
</svg>
