<svg xmlns="http://www.w3.org/2000/svg" xmlns:xlink="http://www.w3.org/1999/xlink" viewBox="0 0 64 64"><defs><linearGradient id="b" x1="1" x2="57.02" y1="32" y2="32" gradientUnits="userSpaceOnUse"><stop offset="0" stop-color="#f2c4b0"/><stop offset="1" stop-color="#ffe3d7"/></linearGradient><linearGradient id="c" x1="11" x2="51" y1="21" y2="21" gradientUnits="userSpaceOnUse"><stop offset="0" stop-color="#da5466"/><stop offset="1" stop-color="#f4929c"/></linearGradient><linearGradient id="a" x1="55" x2="60" y1="5.5" y2="5.5" gradientUnits="userSpaceOnUse"><stop offset="0" stop-color="#fbcc88"/><stop offset="1" stop-color="#ffe5c3"/></linearGradient><linearGradient id="d" x1="51" x2="53" y1="2.5" y2="2.5" xlink:href="#a"/><linearGradient id="e" x1="52" x2="54" y1="3.5" y2="3.5" gradientTransform="matrix(0 -1 -1 0 64 64)" xlink:href="#a"/></defs><path fill="url(#b)" d="M51.37,42.15A19.52,19.52,0,0,0,47,54.27V64H23V58a2,2,0,0,0-2-2H13a4,4,0,0,1-4-4V46L1,42C5.19,26.29,4.93,26.93,5,27,4.14,12,17.44-1.67,34,.17,53.94,2.37,64.15,26,51.37,42.15Z"/><path fill="url(#c)" d="M49.81,22.17a4,4,0,0,0-2.82-5A6,6,0,0,0,41,11a4,4,0,0,0-6.57-3,6,6,0,0,0-9.91,1.6A6,6,0,0,0,16.36,17a4,4,0,0,0-4.17,5.13A2,2,0,0,0,13.08,26c2.36,0,2.05,2,3.92,2H33.15A4.17,4.17,0,0,1,36,29.21,3.79,3.79,0,0,0,39,30l3.65,5.48a1.17,1.17,0,0,0,2.12-.84L44,30a3,3,0,0,0,2.3-1.09A3,3,0,0,0,50,25.74,2,2,0,0,0,49.81,22.17Z"/><path fill="#eab39b" d="M29,58H23a2,2,0,0,0-2-2h8A1,1,0,0,1,29,58Z"/><path fill="url(#a)" d="M56,8a1,1,0,0,1-.71-1.71l3-3a1,1,0,1,1,1.42,1.42C56.59,7.82,56.58,8,56,8Z"/><path fill="url(#d)" d="M52,5a1,1,0,0,1-1-1V1a1,1,0,0,1,2,0V4A1,1,0,0,1,52,5Z"/><path fill="url(#e)" d="M62,12H59a1,1,0,0,1,0-2h3a1,1,0,0,1,0,2Z"/><path fill="#cf4055" d="M30 14H27a19.06 19.06 0 00-1.19-1.6 1 1 0 00-1.6 1.2l1.1 1.47a5 5 0 01.75 4.61A1 1 0 0027 21a1 1 0 00.95-.68A7 7 0 0028 16h2a1 1 0 000-2zM21.29 21.29a1.81 1.81 0 01-2.58 0 1 1 0 00-1.42 1.42c2.61 2.61 6.87 0 5.42-1.42A1 1 0 0021.29 21.29zM43 21H41.75A8.36 8.36 0 0042 19a1 1 0 00-2 0c0 2.71-1.45 4-2.71 5.29A1 1 0 0038 26c.55 0 .78-.36 1.59-1.17A8.2 8.2 0 0041 23c.25 0-.75 0 2 0a1 1 0 000-2z"/></svg>