<svg xmlns="http://www.w3.org/2000/svg" xmlns:xlink="http://www.w3.org/1999/xlink" id="Capa_1" width="512" height="512" enable-background="new 0 0 510 510" viewBox="0 0 510 510">
  <linearGradient id="lg1">
    <stop offset="0" stop-color="#f9f7fc"/>
    <stop offset="1" stop-color="#f0ddfc"/>
  </linearGradient>
  <linearGradient xlink:href="#lg1" id="SVGID_1_" x1="105.448" x2="559.089" y1="65.076" y2="518.717" gradientUnits="userSpaceOnUse"/>
  <linearGradient xlink:href="#lg1" id="SVGID_2_" x1="516.706" x2="603.142" y1="602.384" y2="602.384" gradientTransform="rotate(-90 325.097 672.481)" gradientUnits="userSpaceOnUse"/>
  <linearGradient id="lg2">
    <stop offset="0" stop-color="#f0ddfc" stop-opacity="0"/>
    <stop offset=".289" stop-color="#c8b7e0" stop-opacity=".289"/>
    <stop offset=".592" stop-color="#a595c8" stop-opacity=".592"/>
    <stop offset=".84" stop-color="#8f81b8" stop-opacity=".84"/>
    <stop offset="1" stop-color="#8779b3"/>
  </linearGradient>
  <linearGradient xlink:href="#lg2" id="SVGID_3_" x1="549.151" x2="549.151" y1="847.441" y2="752.334" gradientTransform="rotate(-90 325.097 672.481)" gradientUnits="userSpaceOnUse"/>
  <linearGradient xlink:href="#lg2" id="SVGID_4_" x1="598.624" x2="510.202" y1="838.273" y2="749.851" gradientTransform="rotate(-90 325.097 672.481)" gradientUnits="userSpaceOnUse"/>
  <linearGradient xlink:href="#lg1" id="SVGID_5_" x1="528.802" x2="586.621" y1="792.218" y2="720.552" gradientTransform="rotate(-90 325.097 672.481)" gradientUnits="userSpaceOnUse"/>
  <linearGradient xlink:href="#lg2" id="SVGID_6_" x1="494.385" x2="287.181" y1="276.371" y2="93.952" gradientUnits="userSpaceOnUse"/>
  <linearGradient id="SVGID_7_" x1="329.142" x2="443.893" y1="172.941" y2="322.21" gradientUnits="userSpaceOnUse">
    <stop offset="0" stop-color="#ff7044"/>
    <stop offset="1" stop-color="#f92814"/>
  </linearGradient>
  <linearGradient id="lg3">
    <stop offset="0" stop-color="#f92814" stop-opacity="0"/>
    <stop offset="1" stop-color="#c1272d"/>
  </linearGradient>
  <linearGradient xlink:href="#lg3" id="SVGID_8_" x1="375.783" x2="370.656" y1="243.328" y2="171.03" gradientUnits="userSpaceOnUse"/>
  <linearGradient xlink:href="#lg1" id="SVGID_9_" x1="298.164" x2="364.351" y1="177.799" y2="263.896" gradientUnits="userSpaceOnUse"/>
  <linearGradient xlink:href="#lg1" id="SVGID_10_" x1="393.637" x2="470.441" y1="173.451" y2="273.359" gradientUnits="userSpaceOnUse"/>
  <linearGradient id="SVGID_11_" x1="400.828" x2="276.771" y1="194.304" y2="104.15" gradientUnits="userSpaceOnUse">
    <stop offset="0" stop-color="#18cffc" stop-opacity="0"/>
    <stop offset="1" stop-color="#65e1dc"/>
  </linearGradient>
  <linearGradient xlink:href="#lg3" id="SVGID_12_" x1="370.347" x2="370.347" y1="276.855" y2="171.811" gradientUnits="userSpaceOnUse"/>
  <linearGradient xlink:href="#lg2" id="SVGID_13_" x1="320.214" x2="320.214" y1="244.366" y2="166.894" gradientUnits="userSpaceOnUse"/>
  <linearGradient xlink:href="#lg2" id="SVGID_14_" x1="420.48" x2="420.48" y1="244.366" y2="166.894" gradientUnits="userSpaceOnUse"/>
  <linearGradient id="lg4">
    <stop offset="0" stop-color="#ffda45"/>
    <stop offset=".509" stop-color="#ffd844"/>
    <stop offset=".692" stop-color="#ffd140"/>
    <stop offset=".823" stop-color="#ffc639"/>
    <stop offset=".928" stop-color="#ffb52f"/>
    <stop offset="1" stop-color="#ffa425"/>
  </linearGradient>
  <radialGradient xlink:href="#lg4" id="SVGID_15_" cx="344.246" cy="43.26" r="175.212" gradientUnits="userSpaceOnUse"/>
  <radialGradient xlink:href="#lg4" id="SVGID_16_" cx="1180.096" cy="352.318" r="158.137" gradientTransform="rotate(180 787 255)" gradientUnits="userSpaceOnUse"/>
  <linearGradient id="SVGID_17_" x1="322.383" x2="463.015" y1="55.438" y2="196.069" gradientUnits="userSpaceOnUse">
    <stop offset="0" stop-color="#ffda45"/>
    <stop offset="1" stop-color="#ffa425"/>
  </linearGradient>
  <linearGradient id="SVGID_18_" x1="490.184" x2="265.991" y1="215.872" y2="23.345" gradientUnits="userSpaceOnUse">
    <stop offset="0" stop-color="#ffda45" stop-opacity="0"/>
    <stop offset=".519" stop-color="#d9874f" stop-opacity=".519"/>
    <stop offset="1" stop-color="#b53759"/>
  </linearGradient>
  <linearGradient id="lg5">
    <stop offset="0" stop-color="#ffda45"/>
    <stop offset="1" stop-color="#fcb37e"/>
  </linearGradient>
  <linearGradient xlink:href="#lg5" id="SVGID_19_" x1="343.641" x2="447.743" y1="80.287" y2="188.14" gradientUnits="userSpaceOnUse"/>
  <linearGradient id="lg6">
    <stop offset="0" stop-color="#fcb37e" stop-opacity="0"/>
    <stop offset="1" stop-color="#ff7044"/>
  </linearGradient>
  <linearGradient xlink:href="#lg6" id="SVGID_20_" x1="327.7" x2="392.447" y1="85.945" y2="155.009" gradientUnits="userSpaceOnUse"/>
  <linearGradient xlink:href="#lg5" id="SVGID_21_" x1="325.93" x2="370.285" y1="132.639" y2="132.639" gradientUnits="userSpaceOnUse"/>
  <linearGradient xlink:href="#lg6" id="SVGID_22_" x1="359.765" x2="435.544" y1="111.645" y2="197.016" gradientUnits="userSpaceOnUse"/>
  <linearGradient xlink:href="#lg6" id="SVGID_23_" x1="316.365" x2="413.726" y1="134.316" y2="130.959" gradientUnits="userSpaceOnUse"/>
  <linearGradient xlink:href="#lg5" id="SVGID_24_" x1="403.394" x2="378.454" y1="173.535" y2="62.745" gradientUnits="userSpaceOnUse"/>
  <linearGradient xlink:href="#lg5" id="SVGID_25_" x1="332.827" x2="347.695" y1="78.782" y2="143.05" gradientUnits="userSpaceOnUse"/>
  <linearGradient xlink:href="#lg6" id="SVGID_26_" x1="396.135" x2="304.049" y1="77.914" y2="41.464" gradientUnits="userSpaceOnUse"/>
  <linearGradient xlink:href="#lg6" id="SVGID_27_" x1="356.155" x2="403.636" y1="47.688" y2="128.742" gradientUnits="userSpaceOnUse"/>
  <linearGradient xlink:href="#lg6" id="SVGID_28_" x1="415.058" x2="326.81" y1="78.32" y2="156.497" gradientUnits="userSpaceOnUse"/>
  <linearGradient xlink:href="#lg6" id="SVGID_29_" x1="399.199" x2="429.895" y1="110.092" y2="21.843" gradientUnits="userSpaceOnUse"/>
  <linearGradient id="SVGID_30_" x1="372.15" x2="342.325" y1="104.619" y2="61.54" gradientUnits="userSpaceOnUse">
    <stop offset="0" stop-color="#ffda45" stop-opacity="0"/>
    <stop offset="1" stop-color="#ffee83"/>
  </linearGradient>
  <path fill="url(#SVGID_1_)" d="m478.187 14.707v432.896h-419.412v-432.896c0-8.123 6.585-14.707 14.707-14.707h389.998c8.123 0 14.707 6.584 14.707 14.707z"/>
  <path fill="url(#SVGID_2_)" d="m58.658 386.887c-14.872.624-26.845 27.927-26.845 61.541 0 33.613 11.973 60.917 26.845 61.541v.031h392.173c15.104 0 27.355-27.566 27.355-61.572s-12.251-61.572-27.355-61.572h-392.173z"/>
  <path fill="url(#SVGID_3_)" d="m450.832 386.856c15.104 0 27.355 27.566 27.355 61.572s-12.251 61.572-27.355 61.572c-15.117 0-27.368-27.566-27.368-61.572s12.251-61.572 27.368-61.572z"/>
  <path fill="url(#SVGID_4_)" d="m450.832 386.856c15.104 0 27.355 27.566 27.355 61.572 0 3.871-.163 7.657-.463 11.333-.163 1.004-.35 1.974-.563 2.927-.263 1.157-.551 2.28-.863 3.361-.213.715-.438 1.412-.676 2.084-.125.34-.238.672-.363.996-1.727 4.577-4.03 8.031-6.645 9.818-1.114.766-2.303 1.234-3.516 1.353-.2.017-.413.025-.613.025h-37.066c-2.503-9.308-3.954-20.223-3.954-31.896 0-.272 0-.553.013-.825.186-33.625 12.362-60.748 27.354-60.748z"/>
  <path fill="url(#SVGID_5_)" d="m423.476 447.603h26.842c0 .272-.013.544-.013.825 0 17.612 6.345 31.896 14.178 31.896h-37.066c-2.503-9.308-3.954-20.223-3.954-31.896.001-.272.001-.553.013-.825z"/>
  <g fill="#bec3d2">
    <path d="M280.573 364.994h-143.983c-2.214 0-4.008-1.795-4.008-4.008v-13.983c0-2.214 1.795-4.008 4.008-4.008h143.983c2.214 0 4.008 1.795 4.008 4.008v13.983c0 2.214-1.794 4.008-4.008 4.008zM351.825 364.994h-45.235c-2.214 0-4.008-1.795-4.008-4.008v-13.983c0-2.214 1.795-4.008 4.008-4.008h45.236c2.214 0 4.008 1.795 4.008 4.008v13.983c0 2.214-1.795 4.008-4.009 4.008zM400.372 364.994h-23.958c-2.214 0-4.008-1.795-4.008-4.008v-13.983c0-2.214 1.795-4.008 4.008-4.008h23.958c2.214 0 4.008 1.795 4.008 4.008v13.983c.001 2.214-1.794 4.008-4.008 4.008zM351.48 231.266h-143.984c-2.214 0-4.008-1.795-4.008-4.008v-13.983c0-2.214 1.795-4.008 4.008-4.008h143.984c2.214 0 4.008 1.795 4.008 4.008v13.983c0 2.213-1.795 4.008-4.008 4.008zM181.825 231.266h-45.235c-2.214 0-4.008-1.795-4.008-4.008v-13.983c0-2.214 1.795-4.008 4.008-4.008h45.236c2.214 0 4.008 1.795 4.008 4.008v13.983c0 2.213-1.795 4.008-4.009 4.008zM400.372 231.266h-23.958c-2.214 0-4.008-1.795-4.008-4.008v-13.983c0-2.214 1.795-4.008 4.008-4.008h23.958c2.214 0 4.008 1.795 4.008 4.008v13.983c.001 2.213-1.794 4.008-4.008 4.008zM256.389 142.401h143.983c2.214 0 4.008 1.795 4.008 4.008v13.983c0 2.214-1.795 4.008-4.008 4.008h-143.983c-2.214 0-4.008-1.795-4.008-4.008v-13.982c0-2.214 1.794-4.009 4.008-4.009zM185.137 142.401h45.236c2.214 0 4.008 1.795 4.008 4.008v13.983c0 2.214-1.795 4.008-4.008 4.008h-45.236c-2.214 0-4.008-1.795-4.008-4.008v-13.982c-.001-2.214 1.794-4.009 4.008-4.009zM136.59 142.401h23.958c2.214 0 4.008 1.795 4.008 4.008v13.983c0 2.214-1.795 4.008-4.008 4.008h-23.958c-2.214 0-4.008-1.795-4.008-4.008v-13.982c-.001-2.214 1.794-4.009 4.008-4.009zM185.483 276.13h143.983c2.214 0 4.008 1.795 4.008 4.008v13.983c0 2.214-1.795 4.008-4.008 4.008h-143.983c-2.214 0-4.008-1.795-4.008-4.008v-13.983c-.001-2.213 1.794-4.008 4.008-4.008zM355.137 276.13h45.236c2.214 0 4.008 1.795 4.008 4.008v13.983c0 2.214-1.795 4.008-4.008 4.008h-45.236c-2.214 0-4.008-1.795-4.008-4.008v-13.983c-.001-2.213 1.794-4.008 4.008-4.008zM136.59 276.13h23.958c2.214 0 4.008 1.795 4.008 4.008v13.983c0 2.214-1.795 4.008-4.008 4.008h-23.958c-2.214 0-4.008-1.795-4.008-4.008v-13.983c-.001-2.213 1.794-4.008 4.008-4.008z"/>
  </g>
  <path fill="url(#SVGID_6_)" d="m457.801 40.32c-1.703-2.455-4.048-4.46-6.855-5.743l-19.858-9.08c-.16-.073-.309-.164-.466-.242-.191-.161-.388-.311-.585-.462l-19.127-19.315c-4.008-4.369-7.012-4.319-12.823-3.139l-21.377 4.338c-2.219.45-4.507.45-6.726 0l-21.377-4.338c-5.811-1.179-11.814.771-15.823 5.139l-14.749 16.074c-1.528 1.665-3.373 3.007-5.428 3.946l-19.858 9.08c-5.382 2.461-9.086 7.555-9.766 13.433l-2.513 21.701c-.259 2.233-.96 4.393-2.063 6.352l-10.723 19.041c-2.901 5.151-2.901 11.443 0 16.595l10.723 19.041c1.103 1.959 1.805 4.119 2.063 6.352l2.513 19.701c.564 4.874.212 9.204 4.167 11.946 1.769 1.08 12.731-2.464 14.404-1.304.487.701-4.814 17.53-4.814 20.458v97.859c0 2.385 2.145 3.977 4.256 3.649v.607l155.594 155.594h21.598v-386.897z"/>
  <path fill="url(#SVGID_7_)" d="m370.087 115.487c-40.682.141-73.348 33.725-73.348 74.407v97.859c0 2.982 3.354 4.733 5.801 3.028l60.829-42.382c4.193-2.922 9.763-2.922 13.957 0l60.829 42.382c2.447 1.705 5.801-.046 5.801-3.028v-98.658c-.001-40.74-33.097-73.749-73.869-73.608z"/>
  <path fill="url(#SVGID_8_)" d="m443.955 287.753v-98.658c0-40.74-33.096-73.749-73.869-73.608-34.965.121-64.009 24.946-71.481 57.75l.205.912 72.079 72.079c2.258.1 4.495.818 6.436 2.171l60.829 42.382c2.448 1.705 5.801-.046 5.801-3.028z"/>
  <path fill="url(#SVGID_9_)" d="m328.053 129.037v143.965l-15.678 10.925v-139.811c4.46-5.759 9.738-10.85 15.666-15.066z"/>
  <path fill="url(#SVGID_10_)" d="m428.319 143.735v140.193l-15.678-10.925v-144.153c5.928 4.166 11.212 9.188 15.678 14.885z"/>
  <path fill="url(#SVGID_11_)" d="m370.347 115.489v130.718c2.441 0 4.882.73 6.978 2.191l60.829 42.382c2.447 1.705 5.801-.046 5.801-3.028v-98.658c0-40.652-32.955-73.605-73.608-73.605z"/>
  <path fill="url(#SVGID_12_)" d="m438.155 278.85-60.829-42.382c-4.193-2.922-9.763-2.922-13.957 0l-60.829 42.382c-2.447 1.705-5.801-.046-5.801-3.028v11.931c0 2.982 3.354 4.733 5.801 3.028l60.829-42.382c4.193-2.922 9.763-2.922 13.957 0l60.829 42.382c2.447 1.705 5.801-.046 5.801-3.028v-11.931c-.001 2.982-3.354 4.732-5.801 3.028z"/>
  <path fill="url(#SVGID_13_)" d="m328.053 129.034v74.362l-15.678-15.678v-43.606c.312-.4.631-.8.949-1.199.337-.418.687-.843 1.037-1.255.287-.337.575-.675.862-1.006.587-.668 1.181-1.33 1.793-1.974.219-.237.444-.468.668-.7.587-.618 1.193-1.218 1.805-1.811.6-.581 1.206-1.156 1.83-1.712.112-.106.225-.206.337-.306.319-.287.637-.568.962-.843.531-.462 1.068-.912 1.612-1.355.256-.212.512-.418.775-.625.244-.194.487-.381.731-.568.5-.387.999-.762 1.505-1.131.262-.2.531-.387.8-.581z"/>
  <path fill="url(#SVGID_14_)" d="m428.319 143.735v140.193l-15.678-10.925v-144.153c5.928 4.166 11.212 9.188 15.678 14.885z"/>
  <path fill="url(#SVGID_15_)" d="m476.011 111.699-10.723 19.041c-1.103 1.959-1.805 4.118-2.063 6.352l-2.513 21.701c-.681 5.878-4.385 10.973-9.766 13.434l-19.858 9.079c-2.055.939-3.901 2.281-5.428 3.946l-14.749 16.073c-4.009 4.369-10.012 6.319-15.823 5.139l-21.377-4.338c-2.22-.45-4.507-.45-6.726 0l-21.377 4.338c-5.811 1.179-11.814-.771-15.823-5.139l-14.749-16.074c-1.528-1.665-3.373-3.007-5.428-3.946l-19.858-9.079c-5.382-2.461-9.086-7.555-9.766-13.434l-2.513-21.701c-.259-2.233-.96-4.393-2.063-6.352l-10.723-19.041c-2.901-5.151-2.901-11.443 0-16.595l10.723-19.041c1.103-1.959 1.805-4.118 2.063-6.352l2.513-21.701c.681-5.878 4.385-10.973 9.766-13.434l19.858-9.079c2.055-.939 3.901-2.281 5.428-3.946l14.749-16.073c4.009-4.369 10.012-6.319 15.823-5.139l21.377 4.338c2.22.45 4.507.45 6.726 0l21.377-4.338c5.811-1.179 11.814.771 15.823 5.139l14.749 16.074c1.528 1.665 3.373 3.007 5.428 3.946l19.858 9.079c5.382 2.461 9.086 7.555 9.766 13.434l2.513 21.701c.259 2.233.96 4.393 2.063 6.352l10.723 19.041c2.901 5.152 2.901 11.444 0 16.595z"/>
  <path fill="url(#SVGID_16_)" d="m274.981 95.913 9.678-17.186c.996-1.768 1.629-3.717 1.862-5.733l2.268-19.586c.614-5.305 3.957-9.904 8.815-12.124l17.923-8.195c1.855-.848 3.52-2.059 4.899-3.561l13.312-14.507c3.618-3.943 9.036-5.703 14.281-4.639l19.294 3.915c2.003.407 4.068.407 6.071 0l19.294-3.916c5.244-1.064 10.663.696 14.281 4.638l13.312 14.507c1.379 1.503 3.045 2.713 4.899 3.561l17.923 8.195c4.857 2.221 8.2 6.819 8.815 12.124l2.268 19.586c.233 2.016.867 3.965 1.862 5.733l9.678 17.186c2.618 4.649 2.618 10.328 0 14.977l-9.678 17.186c-.996 1.768-1.629 3.717-1.862 5.733l-2.268 19.586c-.614 5.305-3.957 9.904-8.815 12.124l-17.923 8.195c-1.855.848-3.52 2.059-4.899 3.561l-13.312 14.507c-3.618 3.943-9.036 5.703-14.281 4.639l-19.294-3.915c-2.003-.407-4.068-.407-6.071 0l-19.294 3.915c-5.244 1.064-10.663-.696-14.281-4.638l-13.312-14.507c-1.379-1.503-3.045-2.713-4.899-3.561l-17.923-8.195c-4.857-2.221-8.2-6.819-8.815-12.124l-2.268-19.586c-.233-2.016-.867-3.965-1.862-5.733l-9.678-17.186c-2.619-4.648-2.619-10.327 0-14.976z"/>
  <circle cx="370.347" cy="103.402" r="83.455" fill="url(#SVGID_17_)"/>
  <path fill="url(#SVGID_18_)" d="m438.543 81.51c-.672-1.392-1.981-2.489-3.761-2.743l-18.568-2.7-41.385-41.284v-.001c-.907-1.867-2.694-2.81-4.481-2.81s-3.574.943-4.481 2.81l-18.442 37.948-41.513 6.037c-2.054.293-3.486 1.707-4.028 3.405-.551 1.707-.204 3.699 1.298 5.13l29.419 29.338c.063.085.134.166.203.247l-6.799 39.66c-.347 2.001.516 3.779 1.921 4.828l40.524 40.525c1.752-.198 3.526-.125 5.26.227l21.377 4.338c5.81 1.179 11.814-.771 15.823-5.139l14.749-16.073c1.528-1.665 3.373-3.006 5.428-3.946l19.858-9.079c5.382-2.461 9.086-7.555 9.766-13.434l2.513-21.701c.259-2.233.96-4.393 2.063-6.352l8.1-14.384z"/>
  <path fill="url(#SVGID_19_)" d="m438.81 82.173c-.542-1.698-1.974-3.112-4.028-3.405l-41.513-6.037-18.44-37.948c-.907-1.867-2.694-2.81-4.481-2.81s-3.574.943-4.481 2.81l-18.44 37.948-41.513 6.037c-2.054.293-3.485 1.707-4.028 3.405-.551 1.707-.204 3.699 1.298 5.13l29.821 28.425-6.997 40.82c-.347 2.001.516 3.779 1.92 4.828 1.414 1.058 3.379 1.387 5.21.471l37.21-18.547 37.21 18.547c1.832.916 3.797.587 5.21-.471 1.405-1.049 2.267-2.827 1.921-4.828l-6.997-40.82 29.821-28.425c1.501-1.432 1.848-3.423 1.297-5.13zm-68.463 21.712-.062.018.027-.027.036-.053.036.053.027.027z"/>
  <path fill="url(#SVGID_20_)" d="m370.312 103.876-.027.027-37.281 11.825-29.821-28.425c-1.503-1.432-1.849-3.423-1.298-5.13z"/>
  <path fill="url(#SVGID_21_)" d="m370.285 103.903-42.358 57.473c-1.405-1.049-2.267-2.827-1.92-4.828l6.997-40.82z"/>
  <path fill="url(#SVGID_22_)" d="m412.767 161.376c-1.414 1.058-3.379 1.387-5.21.471l-37.21-18.547v-39.415l.062.018z"/>
  <path fill="url(#SVGID_23_)" d="m370.347 103.885v39.415l-37.21 18.547c-1.832.916-3.797.587-5.21-.471l42.358-57.473z"/>
  <path fill="url(#SVGID_24_)" d="m412.767 161.376-42.358-57.473 37.281 11.825 6.997 40.82c.348 2.001-.515 3.779-1.92 4.828z"/>
  <path fill="url(#SVGID_25_)" d="m370.347 103.823-.036.053-68.427-21.704c.542-1.698 1.974-3.112 4.028-3.405l41.513-6.037z"/>
  <path fill="url(#SVGID_26_)" d="m393.269 72.73-22.922 31.093v-71.85c1.787 0 3.574.943 4.481 2.81z"/>
  <path fill="url(#SVGID_27_)" d="m370.347 31.972v71.85l-22.922-31.092 18.44-37.948c.908-1.867 2.695-2.81 4.482-2.81z"/>
  <path fill="url(#SVGID_28_)" d="m438.81 82.173-68.427 21.704-.036-.053 22.922-31.093 41.513 6.037c2.054.293 3.486 1.706 4.028 3.405z"/>
  <path fill="url(#SVGID_29_)" d="m437.512 87.303-29.821 28.425-37.281-11.825-.027-.027 68.427-21.704c.551 1.708.204 3.699-1.298 5.131z"/>
  <path fill="url(#SVGID_30_)" d="m427.215 84.714c-.45-1.411-1.639-2.585-3.346-2.829l-34.483-5.015-15.317-31.521c-.753-1.551-2.238-2.334-3.722-2.334s-2.969.783-3.722 2.334l-15.318 31.521-34.483 5.015c-1.706.244-2.895 1.418-3.346 2.829-.458 1.418-.17 3.072 1.078 4.261l24.771 23.611-5.812 33.907c-.288 1.662.428 3.139 1.595 4.01 1.174.879 2.807 1.152 4.328.391l30.908-15.406 30.908 15.406c1.521.761 3.154.487 4.328-.391 1.167-.871 1.883-2.349 1.595-4.01l-5.812-33.907 24.771-23.611c1.249-1.189 1.537-2.843 1.079-4.261zm-56.868 18.035-.052.015.022-.022.03-.044.029.044.022.022z"/>
</svg>
