<svg xmlns="http://www.w3.org/2000/svg" viewBox="0 0 48 48"><path fill="#7c7d7d" d="M23,30H17a1,1,0,0,1,0-2h6A1,1,0,0,1,23,30Z"/><path fill="#7c7d7d" d="M31 30H25a1 1 0 0 1 0-2h6A1 1 0 0 1 31 30zM14 30H12a1 1 0 0 1 0-2h2A1 1 0 0 1 14 30zM36 30H34a1 1 0 0 1 0-2h2A1 1 0 0 1 36 30z"/><path fill="#374f68" d="M29,12a5,5,0,1,1-7-4.59A5,5,0,0,1,29,12Z"/><path fill="#425b72" d="M27.18,15.86a5,5,0,0,1-4.36-8.71C27.92,5.81,31.25,12.5,27.18,15.86Z"/><path fill="#c6c3d8" d="M22.35,16.72c-11.17,29.78-10,27-10.22,26.45a11.85,11.85,0,0,1-.52-9.5l7.55-20.41A5,5,0,0,0,22.35,16.72Z"/><path fill="#dad7e5" d="M20.35,17.72,11.44,41.49c-1.66-5.09-.24-6.71,6.66-25.37A4.86,4.86,0,0,0,20.35,17.72Z"/><path fill="#7c7d7d" d="M12.13 43.17C11 46.31 10.93 47 10 47a1 1 0 0 1-.94-1.35l2-5.45A11.26 11.26 0 0 0 12.13 43.17zM35.87 43.17C37.05 46.31 37.07 47 38 47a1 1 0 0 0 .94-1.35l-2-5.45A11.26 11.26 0 0 1 35.87 43.17z"/><path fill="#dad7e5" d="M36.62,41.3a12.26,12.26,0,0,1-.92,2.22L25.65,16.72a5,5,0,0,0,3.19-3.46l7.55,20.41A11.88,11.88,0,0,1,36.62,41.3Z"/><path fill="#edebf2" d="M36.62,41.3,27.1,15.92a5,5,0,0,0,1.74-2.66l7.55,20.41A11.88,11.88,0,0,1,36.62,41.3Z"/><rect width="4" height="8" x="22" y="25" fill="#374f68" rx="1"/><path fill="#425b72" d="M26,26v6a3,3,0,0,1-3-3V25h2A1,1,0,0,1,26,26Z"/><path fill="#dad7e5" d="M26,1V7.41a5.1,5.1,0,0,0-4,0V1Z"/><path fill="#edebf2" d="M26,1V6.1A4.71,4.71,0,0,0,25,6a1.93,1.93,0,0,1-2-1.88V1Z"/><path fill="#2c435e" d="M25,12a1,1,0,0,0-2,0A1,1,0,0,0,25,12Z"/></svg>