<svg xmlns="http://www.w3.org/2000/svg" xmlns:xlink="http://www.w3.org/1999/xlink" viewBox="0 0 64 64"><defs><linearGradient id="d" x1="48" x2="16" y1="39" y2="39" gradientUnits="userSpaceOnUse"><stop offset="0" stop-color="#474f72"/><stop offset="1" stop-color="#878c9f"/></linearGradient><linearGradient id="b" x1="17" x2="34" y1="36.5" y2="36.5" gradientTransform="matrix(-1 0 0 1 64 0)" gradientUnits="userSpaceOnUse"><stop offset="0" stop-color="#7aa8d7"/><stop offset="1" stop-color="#c3d2e7"/></linearGradient><linearGradient id="a" x1="16.03" x2="19.86" y1="60.89" y2="60.89" gradientTransform="matrix(-1 0 0 1 64 0)" gradientUnits="userSpaceOnUse"><stop offset="0" stop-color="#949aaf"/><stop offset="1" stop-color="#c6ccda"/></linearGradient><linearGradient id="c" x1="17" x2="34" y1="36.5" y2="36.5" gradientUnits="userSpaceOnUse"><stop offset="0" stop-color="#d4d8e1"/><stop offset="1" stop-color="#f3f4f5"/></linearGradient><linearGradient id="e" x1="30" x2="34" y1="5" y2="5" xlink:href="#a"/><linearGradient id="f" x1="24" x2="40" y1="15" y2="15" xlink:href="#b"/><linearGradient id="g" x1="28" x2="36" y1="15" y2="15" xlink:href="#c"/><linearGradient id="h" x1="16.03" x2="19.86" y1="60.89" y2="60.89" xlink:href="#a"/><linearGradient id="i" x1="30" x2="34" y1="39" y2="39" xlink:href="#b"/></defs><path fill="url(#d)" d="M47,40H17a1,1,0,0,1,0-2H47a1,1,0,0,1,0,2Z"/><path fill="url(#b)" d="M36,14,47,59l-1.66-.71a11.52,11.52,0,0,1-6.68-7.94L30,14Z"/><path fill="url(#a)" d="M47,59l.92,3.34a1.31,1.31,0,1,1-2.53.66l-1.25-5.23Z"/><path fill="url(#c)" d="M28,14,17,59l1.66-.71a11.52,11.52,0,0,0,6.68-7.94L34,14Z"/><path fill="url(#e)" d="M34,10H30V2a2,2,0,0,1,4,0Z"/><circle cx="32" cy="15" r="8" fill="url(#f)"/><circle cx="32" cy="15" r="4" fill="url(#g)"/><path fill="url(#h)" d="M17,59l-.92,3.34a1.31,1.31,0,1,0,2.53.66l1.25-5.23Z"/><path fill="url(#i)" d="M32,42a2,2,0,0,1-2-2V38a2,2,0,0,1,4,0v2A2,2,0,0,1,32,42Z"/></svg>