<svg xmlns="http://www.w3.org/2000/svg" xmlns:xlink="http://www.w3.org/1999/xlink" id="Capa_1" width="512" height="512" enable-background="new 0 0 510 510" viewBox="0 0 510 510">
  <linearGradient id="lg1">
    <stop offset="0" stop-color="#ff7044"/>
    <stop offset="1" stop-color="#f92814"/>
  </linearGradient>
  <linearGradient xlink:href="#lg1" id="SVGID_1_" x1="292.028" x2="213.085" y1="213.005" y2="302.069" gradientUnits="userSpaceOnUse"/>
  <linearGradient id="lg2">
    <stop offset="0" stop-color="#ff7044" stop-opacity="0"/>
    <stop offset="1" stop-color="#ffa425"/>
  </linearGradient>
  <linearGradient xlink:href="#lg2" id="SVGID_2_" x1="232.334" x2="-108.74" y1="243.073" y2="117.574" gradientUnits="userSpaceOnUse"/>
  <linearGradient id="SVGID_3_" x1="335.569" x2="281.553" y1="316.579" y2="262.563" gradientUnits="userSpaceOnUse">
    <stop offset="0" stop-color="#f92814" stop-opacity="0"/>
    <stop offset="1" stop-color="#c1272d"/>
  </linearGradient>
  <linearGradient xlink:href="#lg1" id="SVGID_4_" x1="239.063" x2="289.667" y1="231.194" y2="306.088" gradientUnits="userSpaceOnUse"/>
  <linearGradient xlink:href="#lg2" id="SVGID_5_" x1="296.016" x2="164.445" y1="343.27" y2=".173" gradientUnits="userSpaceOnUse"/>
  <linearGradient id="lg3">
    <stop offset="0" stop-color="#ffda45"/>
    <stop offset="1" stop-color="#ffa425"/>
  </linearGradient>
  <linearGradient xlink:href="#lg3" id="SVGID_6_" x1="1511.468" x2="1562.415" y1="-519.607" y2="-468.659" gradientTransform="rotate(16.13 -1475.068 -4651.949)" gradientUnits="userSpaceOnUse"/>
  <linearGradient id="lg4">
    <stop offset="0" stop-color="#ffda45" stop-opacity="0"/>
    <stop offset="1" stop-color="#fcee21"/>
  </linearGradient>
  <linearGradient xlink:href="#lg4" id="SVGID_7_" x1="1530.905" x2="1506.634" y1="-498.197" y2="-532.607" gradientTransform="rotate(16.13 -1475.068 -4651.949)" gradientUnits="userSpaceOnUse"/>
  <linearGradient id="lg5">
    <stop offset="0" stop-color="#ffda45" stop-opacity="0"/>
    <stop offset="1" stop-color="#b53759"/>
  </linearGradient>
  <linearGradient xlink:href="#lg5" id="SVGID_8_" x1="1527.552" x2="1581.623" y1="-489.812" y2="-590.376" gradientTransform="rotate(16.13 -1475.068 -4651.949)" gradientUnits="userSpaceOnUse"/>
  <linearGradient xlink:href="#lg3" id="SVGID_9_" x1="1495.833" x2="1546.78" y1="-263.905" y2="-212.957" gradientTransform="rotate(16.13 -1475.068 -4651.949)" gradientUnits="userSpaceOnUse"/>
  <linearGradient xlink:href="#lg4" id="SVGID_10_" x1="1515.27" x2="1490.999" y1="-242.496" y2="-276.905" gradientTransform="rotate(16.13 -1475.068 -4651.949)" gradientUnits="userSpaceOnUse"/>
  <linearGradient xlink:href="#lg5" id="SVGID_11_" x1="1511.917" x2="1565.988" y1="-234.111" y2="-334.674" gradientTransform="rotate(16.13 -1475.068 -4651.949)" gradientUnits="userSpaceOnUse"/>
  <linearGradient id="lg6">
    <stop offset="0" stop-color="#18cffc"/>
    <stop offset="1" stop-color="#4a98f7"/>
  </linearGradient>
  <linearGradient xlink:href="#lg6" id="SVGID_12_" x1="330.308" x2="381.256" y1="88.138" y2="139.085" gradientUnits="userSpaceOnUse"/>
  <linearGradient id="lg7">
    <stop offset="0" stop-color="#18cffc" stop-opacity="0"/>
    <stop offset="1" stop-color="#65e1dc"/>
  </linearGradient>
  <linearGradient xlink:href="#lg7" id="SVGID_13_" x1="349.746" x2="325.475" y1="109.547" y2="75.137" gradientUnits="userSpaceOnUse"/>
  <linearGradient id="lg8">
    <stop offset="0" stop-color="#0469bc" stop-opacity="0"/>
    <stop offset="1" stop-color="#0469bc"/>
  </linearGradient>
  <linearGradient xlink:href="#lg8" id="SVGID_14_" x1="346.392" x2="400.463" y1="117.932" y2="17.368" gradientUnits="userSpaceOnUse"/>
  <linearGradient xlink:href="#lg6" id="SVGID_15_" x1="330.308" x2="381.256" y1="455.945" y2="506.893" gradientUnits="userSpaceOnUse"/>
  <linearGradient xlink:href="#lg7" id="SVGID_16_" x1="349.746" x2="325.475" y1="477.354" y2="442.945" gradientUnits="userSpaceOnUse"/>
  <linearGradient xlink:href="#lg8" id="SVGID_17_" x1="346.392" x2="400.463" y1="485.739" y2="385.175" gradientUnits="userSpaceOnUse"/>
  <linearGradient id="lg9">
    <stop offset="0" stop-color="#92f37f"/>
    <stop offset="1" stop-color="#4ab272"/>
  </linearGradient>
  <linearGradient xlink:href="#lg9" id="SVGID_18_" x1="146.091" x2="197.038" y1="25.599" y2="76.547" gradientUnits="userSpaceOnUse"/>
  <linearGradient id="lg10">
    <stop offset="0" stop-color="#92f37f" stop-opacity="0"/>
    <stop offset="1" stop-color="#ffee83"/>
  </linearGradient>
  <linearGradient xlink:href="#lg10" id="SVGID_19_" x1="165.529" x2="141.257" y1="47.009" y2="12.599" gradientUnits="userSpaceOnUse"/>
  <linearGradient id="lg11">
    <stop offset="0" stop-color="#4ab272" stop-opacity="0"/>
    <stop offset="1" stop-color="#009245"/>
  </linearGradient>
  <linearGradient xlink:href="#lg11" id="SVGID_20_" x1="162.175" x2="216.246" y1="55.393" y2="-45.171" gradientUnits="userSpaceOnUse"/>
  <linearGradient xlink:href="#lg9" id="SVGID_21_" x1="247.364" x2="298.311" y1="331.107" y2="382.055" gradientUnits="userSpaceOnUse"/>
  <linearGradient xlink:href="#lg10" id="SVGID_22_" x1="266.802" x2="242.53" y1="352.516" y2="318.107" gradientUnits="userSpaceOnUse"/>
  <linearGradient xlink:href="#lg11" id="SVGID_23_" x1="263.448" x2="317.519" y1="360.901" y2="260.337" gradientUnits="userSpaceOnUse"/>
  <g fill="#7e8595">
    <path d="M78.56 34.756h352.881v11.122h-352.881zM78.56 97.294h352.881v11.122h-352.881zM125.638 159.833h258.725v11.122h-258.725z"/>
    <path d="m78.56 463.684h352.881v11.122h-352.881z" transform="rotate(180 255 469.245)"/>
    <path d="m78.56 401.145h352.881v11.122h-352.881z" transform="rotate(180 255 406.707)"/>
    <path d="m125.638 338.607h258.725v11.122h-258.725z" transform="rotate(180 255 344.168)"/>
  </g>
  <path fill="url(#SVGID_1_)" d="m442.236 509.561c-12.577 0-22.772-10.195-22.772-22.772 0-30.599-7.775-60.955-22.487-87.785-14.711-26.83-36.124-49.708-61.923-66.161l-184.598-117.725c-32.234-20.557-58.987-49.143-77.367-82.665s-28.097-71.45-28.097-109.681c0-12.577 10.195-22.772 22.772-22.772s22.772 10.195 22.772 22.772c0 30.599 7.775 60.955 22.487 87.785 14.711 26.83 36.123 49.708 61.922 66.161l184.597 117.725c32.234 20.557 58.988 49.143 77.368 82.665s28.096 71.45 28.096 109.681c.002 12.577-10.193 22.772-22.77 22.772z"/>
  <path fill="url(#SVGID_2_)" d="m436.911 377.108c-18.381-33.522-45.135-62.108-77.368-82.665l-184.597-117.725c-25.799-16.453-47.211-39.331-61.922-66.161-14.712-26.83-22.487-57.186-22.487-87.785 0-9.32-5.601-17.328-13.619-20.852-8.018 3.525-13.619 11.532-13.619 20.852 0 38.231 9.716 76.159 28.096 109.681s45.134 62.108 77.367 82.665l184.597 117.725c25.799 16.453 47.212 39.331 61.923 66.161 14.712 26.83 22.487 57.186 22.487 87.785 0 9.32 5.602 17.328 13.619 20.852 8.018-3.525 13.619-11.532 13.619-20.852.001-38.231-9.715-76.158-28.096-109.681z"/>
  <path fill="url(#SVGID_3_)" d="m359.543 294.443-82.725-52.757-43.606 26.209 101.842 64.949c10.263 6.545 19.817 14.122 28.546 22.544h59.719c-17.064-24.183-38.759-44.99-63.776-60.945z"/>
  <path fill="url(#SVGID_4_)" d="m67.764 509.561c-12.577 0-22.772-10.195-22.772-22.772 0-38.231 9.716-76.159 28.096-109.681s45.134-62.108 77.367-82.665l184.597-117.725c25.799-16.453 47.212-39.331 61.923-66.161 14.712-26.83 22.487-57.186 22.487-87.785.002-12.577 10.197-22.772 22.774-22.772s22.772 10.195 22.772 22.772c0 38.231-9.716 76.159-28.096 109.681s-45.135 62.108-77.368 82.665l-184.598 117.725c-25.799 16.452-47.211 39.331-61.922 66.161-14.712 26.83-22.487 57.186-22.487 87.785-.001 12.577-10.196 22.772-22.773 22.772z"/>
  <path fill="url(#SVGID_5_)" d="m174.946 332.843 184.597-117.725c32.234-20.557 58.988-49.143 77.368-82.665s28.096-71.45 28.096-109.681c0-10.104-6.582-18.665-15.69-21.643-9.108 2.978-15.69 11.54-15.69 21.643 0 30.599-7.775 60.955-22.487 87.785-14.711 26.83-36.124 49.708-61.923 66.161l-184.597 117.725c-32.234 20.557-58.987 49.143-77.367 82.665s-28.096 71.45-28.096 109.681c0 10.104 6.582 18.665 15.69 21.643 9.108-2.978 15.69-11.54 15.69-21.643 0-30.599 7.775-60.955 22.487-87.785 14.711-26.83 36.122-49.708 61.922-66.161z"/>
  <circle cx="255.001" cy="165.394" r="39.337" fill="url(#SVGID_6_)"/>
  <circle cx="255.001" cy="165.394" r="32.83" fill="url(#SVGID_7_)"/>
  <path fill="url(#SVGID_8_)" d="m281.673 136.473c1.079 5.823.857 11.979-.899 18.057-6.03 20.871-27.838 32.903-48.71 26.872-6.077-1.756-11.403-4.851-15.754-8.87 2.627 14.177 12.977 26.379 27.771 30.653 20.872 6.03 42.68-6.001 48.71-26.872 4.275-14.794-.527-30.057-11.118-39.84z"/>
  <circle cx="168.997" cy="406.706" r="39.337" fill="url(#SVGID_9_)"/>
  <circle cx="168.997" cy="406.706" r="32.83" fill="url(#SVGID_10_)"/>
  <path fill="url(#SVGID_11_)" d="m195.67 377.785c1.079 5.823.857 11.979-.899 18.057-6.03 20.871-27.838 32.903-48.71 26.872-6.077-1.756-11.403-4.851-15.754-8.87 2.627 14.177 12.977 26.379 27.771 30.653 20.872 6.03 42.68-6.001 48.71-26.872 4.275-14.794-.527-30.057-11.118-39.84z"/>
  <circle cx="345.026" cy="102.856" r="39.337" fill="url(#SVGID_12_)"/>
  <circle cx="345.026" cy="102.856" r="32.83" fill="url(#SVGID_13_)"/>
  <path fill="url(#SVGID_14_)" d="m362.623 67.667c2.653 5.295 4.149 11.271 4.149 17.597 0 21.725-17.612 39.337-39.337 39.337-6.326 0-12.302-1.495-17.597-4.149 6.459 12.89 19.789 21.74 35.188 21.74 21.725 0 39.337-17.612 39.337-39.337 0-15.399-8.85-28.729-21.74-35.188z"/>
  <circle cx="345.026" cy="470.663" r="39.337" fill="url(#SVGID_15_)"/>
  <circle cx="345.026" cy="470.663" r="32.83" fill="url(#SVGID_16_)"/>
  <path fill="url(#SVGID_17_)" d="m362.623 435.475c2.653 5.295 4.149 11.271 4.149 17.597 0 21.725-17.612 39.337-39.337 39.337-6.326 0-12.302-1.495-17.597-4.149 6.459 12.89 19.789 21.74 35.188 21.74 21.725 0 39.337-17.612 39.337-39.337 0-15.399-8.85-28.73-21.74-35.188z"/>
  <circle cx="160.809" cy="40.317" r="39.337" fill="url(#SVGID_18_)"/>
  <circle cx="160.809" cy="40.317" r="32.83" fill="url(#SVGID_19_)"/>
  <path fill="url(#SVGID_20_)" d="m178.405 5.129c2.653 5.295 4.149 11.271 4.149 17.597 0 21.725-17.612 39.337-39.337 39.337-6.326 0-12.302-1.495-17.597-4.149 6.459 12.89 19.789 21.74 35.188 21.74 21.725 0 39.337-17.612 39.337-39.337.001-15.399-8.849-28.729-21.74-35.188z"/>
  <circle cx="262.082" cy="345.825" r="39.337" fill="url(#SVGID_21_)"/>
  <circle cx="262.082" cy="345.825" r="32.83" fill="url(#SVGID_22_)"/>
  <path fill="url(#SVGID_23_)" d="m279.678 310.637c2.653 5.295 4.149 11.271 4.149 17.597 0 21.725-17.612 39.337-39.337 39.337-6.326 0-12.302-1.495-17.597-4.149 6.459 12.89 19.789 21.74 35.188 21.74 21.725 0 39.337-17.612 39.337-39.337.001-15.399-8.849-28.73-21.74-35.188z"/>
</svg>
