<svg xmlns="http://www.w3.org/2000/svg" xmlns:xlink="http://www.w3.org/1999/xlink" id="Capa_1" width="512" height="512" enable-background="new 0 0 510 510" viewBox="0 0 510 510">
  <radialGradient id="SVGID_1_" cx="236.032" cy="225.359" r="233.691" gradientUnits="userSpaceOnUse">
    <stop offset="0" stop-color="#ffda45"/>
    <stop offset=".509" stop-color="#ffd844"/>
    <stop offset=".692" stop-color="#ffd140"/>
    <stop offset=".823" stop-color="#ffc639"/>
    <stop offset=".928" stop-color="#ffb52f"/>
    <stop offset="1" stop-color="#ffa425"/>
  </radialGradient>
  <linearGradient id="SVGID_2_" x1="344.999" x2="377.59" y1="162.383" y2="-148.254" gradientUnits="userSpaceOnUse">
    <stop offset="0" stop-color="#ffda45" stop-opacity="0"/>
    <stop offset="1" stop-color="#fcee21"/>
  </linearGradient>
  <linearGradient id="lg1">
    <stop offset="0" stop-color="#ffda45" stop-opacity="0"/>
    <stop offset="1" stop-color="#b53759"/>
  </linearGradient>
  <linearGradient xlink:href="#lg1" id="SVGID_3_" x1="284.088" x2="227.088" y1="37.419" y2="12.419" gradientUnits="userSpaceOnUse"/>
  <linearGradient id="lg2">
    <stop offset="0" stop-color="#ffda45"/>
    <stop offset="1" stop-color="#ffa425"/>
  </linearGradient>
  <linearGradient xlink:href="#lg2" id="SVGID_4_" x1="215.25" x2="255.31" y1="25.83" y2="54.348" gradientUnits="userSpaceOnUse"/>
  <linearGradient xlink:href="#lg2" id="SVGID_5_" x1="211.709" x2="257.55" y1="-358.836" y2="-326.203" gradientTransform="matrix(1 0 0 -1 0 87.924)" gradientUnits="userSpaceOnUse"/>
  <linearGradient xlink:href="#lg1" id="SVGID_6_" x1="262.801" x2="197.301" y1="444.09" y2="371.09" gradientUnits="userSpaceOnUse"/>
  <linearGradient id="SVGID_7_" x1="141.669" x2="365.101" y1="143.202" y2="366.634" gradientUnits="userSpaceOnUse">
    <stop offset="0" stop-color="#18cffc"/>
    <stop offset="1" stop-color="#4a98f7"/>
  </linearGradient>
  <linearGradient id="lg3">
    <stop offset="0" stop-color="#18cffc" stop-opacity="0"/>
    <stop offset="1" stop-color="#65e1dc"/>
  </linearGradient>
  <linearGradient xlink:href="#lg3" id="SVGID_8_" x1="259.114" x2="192.783" y1="435.43" y2="-42.382" gradientUnits="userSpaceOnUse"/>
  <linearGradient xlink:href="#lg3" id="SVGID_9_" x1="270.74" x2="87.069" y1="272.273" y2="88.603" gradientUnits="userSpaceOnUse"/>
  <linearGradient id="lg4">
    <stop offset="0" stop-color="#92f37f"/>
    <stop offset="1" stop-color="#4ab272"/>
  </linearGradient>
  <linearGradient xlink:href="#lg4" id="SVGID_10_" x1="113.788" x2="404.24" y1="242.071" y2="448.16" gradientUnits="userSpaceOnUse"/>
  <linearGradient xlink:href="#lg4" id="SVGID_11_" x1="173.028" x2="463.481" y1="158.58" y2="364.669" gradientUnits="userSpaceOnUse"/>
  <linearGradient id="SVGID_12_" x1="185.753" x2="103.47" y1="173.73" y2="91.448" gradientUnits="userSpaceOnUse">
    <stop offset="0" stop-color="#92f37f" stop-opacity="0"/>
    <stop offset="1" stop-color="#ffee83"/>
  </linearGradient>
  <linearGradient xlink:href="#lg4" id="SVGID_13_" x1="331.58" x2="461.741" y1="248.197" y2="271.096" gradientUnits="userSpaceOnUse"/>
  <linearGradient xlink:href="#lg4" id="SVGID_14_" x1="352.216" x2="482.377" y1="130.899" y2="153.798" gradientUnits="userSpaceOnUse"/>
  <linearGradient id="SVGID_15_" x1="264.833" x2="518.225" y1="251.992" y2="-219.282" gradientUnits="userSpaceOnUse">
    <stop offset="0" stop-color="#0469bc" stop-opacity="0"/>
    <stop offset="1" stop-color="#0469bc"/>
  </linearGradient>
  <linearGradient xlink:href="#lg2" id="SVGID_16_" x1="230.939" x2="230.939" y1="458.334" y2="480.871" gradientUnits="userSpaceOnUse"/>
  <linearGradient xlink:href="#lg2" id="SVGID_17_" x1="230.939" x2="230.939" y1="482.247" y2="520.652" gradientUnits="userSpaceOnUse"/>
  <path fill="url(#SVGID_1_)" d="m230.939 446.39c0-9.321 7.185-17.003 16.473-17.776 100.851-8.396 180.352-93.16 180.352-196.142 0-102.984-79.503-187.749-180.356-196.143-9.286-.773-16.469-8.453-16.469-17.771v-18.558c60.007 0 116.543 22.581 159.903 63.725 48.834 46.337 75.29 111.919 72.341 179.174-2.551 58.182-26.42 112.514-67.862 153.956-39.367 39.367-90.367 62.877-145.249 67.318-10.326.836-19.133-7.422-19.133-17.783z"/>
  <path fill="url(#SVGID_2_)" d="m250.073 464.173c54.882-4.441 105.881-27.951 145.249-67.318 41.442-41.442 65.311-95.775 67.862-153.956.05-1.139.07-2.277.103-3.415-1.814-61.184-27.746-119.722-72.444-162.135-38.688-36.71-87.864-58.643-140.636-62.944-7.965-.649-15.037 4.045-17.902 10.967 2.504 6.015 8.223 10.385 15.104 10.958 100.853 8.394 180.356 93.159 180.356 196.143 0 2.281-.053 4.549-.13 6.812.077 2.262.13 4.531.13 6.812 0 102.982-79.501 187.746-180.352 196.142-6.885.573-12.607 4.947-15.111 10.966 2.847 6.897 9.854 11.609 17.771 10.968z"/>
  <path fill="url(#SVGID_3_)" d="m245.815 36.121c.524.09 1.054.164 1.593.208 12.365 1.029 24.406 3.213 36.022 6.431l-37.615-37.616z"/>
  <path fill="url(#SVGID_4_)" d="m255.047 62.323h-48.216v-38.215c0-13.315 10.794-24.108 24.108-24.108 13.314 0 24.108 10.793 24.108 24.108z"/>
  <path fill="url(#SVGID_5_)" d="m206.831 401.909h48.216v62.323h-48.216z"/>
  <path fill="url(#SVGID_6_)" d="m255.047 401.909h-48.216v13.343l48.216 48.216z"/>
  <circle cx="230.939" cy="232.473" r="184.345" fill="url(#SVGID_7_)"/>
  <path fill="url(#SVGID_8_)" d="m360.741 135.511c-6.326-4.647-13.033-8.908-20.062-12.779-3.871-7.029-8.132-13.737-12.779-20.063-25.804-35.127-60.239-54.472-96.961-54.472-36.723 0-71.157 19.345-96.961 54.472-4.647 6.326-8.908 13.033-12.779 20.062-7.029 3.87-13.736 8.132-20.062 12.779-35.127 25.804-54.472 60.239-54.472 96.961s19.345 71.157 54.472 96.961c6.326 4.647 13.033 8.908 20.062 12.779 3.87 7.029 8.132 13.737 12.779 20.062 25.804 35.127 60.239 54.472 96.961 54.472s71.158-19.345 96.961-54.472c4.647-6.326 8.909-13.033 12.779-20.063 7.029-3.87 13.736-8.132 20.062-12.779 35.127-25.804 54.472-60.239 54.472-96.961s-19.345-71.155-54.472-96.959zm-129.802 272.561c-10.12 0-20.847-15.075-29.327-40.798 9.612 1.131 19.409 1.717 29.327 1.717 9.919 0 19.716-.586 29.327-1.717-8.48 25.723-19.206 40.798-29.327 40.798zm0-47.757c-10.965 0-21.694-.742-32.108-2.149-5.779-20.434-9.975-44.964-12.376-71.745 14.376 1.028 29.289 1.557 44.484 1.557 15.194 0 30.108-.53 44.484-1.557-2.401 26.781-6.596 51.31-12.376 71.745-10.413 1.407-21.143 2.149-32.108 2.149zm0-303.442c10.12 0 20.847 15.075 29.327 40.798-9.612-1.131-19.409-1.717-29.327-1.717-9.919 0-19.715.586-29.327 1.717 8.481-25.723 19.207-40.798 29.327-40.798zm0 47.757c10.965 0 21.695.743 32.108 2.149 5.779 20.435 9.975 44.964 12.376 71.745-14.376-1.028-29.289-1.557-44.484-1.557-15.194 0-30.108.53-44.484 1.557 2.401-26.781 6.596-51.311 12.376-71.745 10.414-1.407 21.144-2.149 32.108-2.149zm-46.831 127.843c0-15.467.558-30.625 1.633-45.198 14.573-1.075 29.731-1.633 45.198-1.633 15.468 0 30.625.558 45.199 1.633 1.075 14.573 1.633 29.731 1.633 45.198s-.558 30.625-1.633 45.198c-14.574 1.075-29.731 1.633-45.199 1.633-15.467 0-30.625-.558-45.198-1.633-1.075-14.574-1.633-29.731-1.633-45.198zm-7.117 44.483c-26.781-2.401-51.311-6.596-71.745-12.376-1.407-10.413-2.149-21.143-2.149-32.108s.743-21.694 2.149-32.108c20.434-5.779 44.964-9.975 71.745-12.376-1.028 14.375-1.557 29.289-1.557 44.484s.529 30.109 1.557 44.484zm107.897-88.967c26.781 2.401 51.31 6.597 71.745 12.376 1.407 10.413 2.149 21.143 2.149 32.108s-.743 21.694-2.149 32.108c-20.435 5.779-44.964 9.975-71.745 12.376 1.028-14.375 1.557-29.289 1.557-44.484.001-15.195-.529-30.109-1.557-44.484zm-.695-8.77c-2.285-26.25-6.267-50.457-11.748-70.972 22.622 4.007 43.541 11.21 61.803 20.917 9.706 18.262 16.91 39.181 20.917 61.803-20.516-5.481-44.722-9.463-70.972-11.748zm-106.507 0c-26.25 2.285-50.457 6.266-70.972 11.747 4.007-22.622 11.21-43.541 20.917-61.803 18.262-9.706 39.181-16.91 61.803-20.916-5.481 20.516-9.463 44.722-11.748 70.972zm-81.548 82.581c-25.723-8.48-40.798-19.207-40.798-29.327s15.075-20.847 40.798-29.327c-1.131 9.612-1.717 19.409-1.717 29.327s.587 19.715 1.717 29.327zm81.548 23.925c2.285 26.25 6.266 50.457 11.747 70.972-22.622-4.007-43.541-11.21-61.803-20.916-9.706-18.262-16.91-39.181-20.917-61.803 20.517 5.481 44.723 9.463 70.973 11.747zm106.507 0c26.25-2.284 50.457-6.266 70.972-11.747-4.007 22.622-11.21 43.54-20.917 61.803-18.262 9.706-39.181 16.91-61.803 20.917 5.481-20.516 9.463-44.722 11.748-70.973zm81.548-82.579c25.723 8.48 40.797 19.207 40.797 29.327s-15.075 20.846-40.797 29.327c1.131-9.612 1.717-19.409 1.717-29.327-.001-9.919-.587-19.716-1.717-29.327zm38.749 9.79c-8.488-7.238-21.943-13.745-40.059-19.312-3.155-19.974-8.739-39.005-16.555-56.435 29.659 19.313 50.287 45.834 56.614 75.747zm-78.266-97.399c-17.431-7.816-36.461-13.401-56.436-16.556-5.567-18.117-12.074-31.572-19.312-40.06 29.913 6.328 56.434 26.956 75.748 56.616zm-114.821-56.616c-7.238 8.488-13.745 21.943-19.313 40.06-19.975 3.155-39.005 8.739-56.436 16.556 19.314-29.66 45.836-50.288 75.749-56.616zm-97.399 78.267c-7.816 17.43-13.401 36.461-16.555 56.436-18.117 5.568-31.572 12.074-40.06 19.313 6.327-29.914 26.954-56.435 56.615-75.749zm-56.616 114.821c8.488 7.238 21.943 13.745 40.06 19.312 3.155 19.975 8.739 39.005 16.555 56.436-29.66-19.314-50.287-45.835-56.615-75.748zm78.267 97.399c17.43 7.816 36.461 13.401 56.436 16.556 5.568 18.117 12.074 31.572 19.313 40.06-29.914-6.328-56.436-26.955-75.749-56.616zm114.821 56.615c7.238-8.488 13.745-21.943 19.312-40.06 19.975-3.155 39.006-8.739 56.436-16.556-19.314 29.661-45.835 50.289-75.748 56.616zm97.399-78.266c7.816-17.43 13.401-36.461 16.555-56.435 18.117-5.567 31.571-12.074 40.059-19.312-6.326 29.912-26.954 56.433-56.614 75.747z"/>
  <circle cx="230.939" cy="232.473" r="164.552" fill="url(#SVGID_9_)"/>
  <path fill="url(#SVGID_10_)" d="m213.714 240.149 7.136 7.136c2.61 2.61 4.077 6.15 4.077 9.842 0 7.687 6.232 13.918 13.918 13.918 8.017 0 14.515 6.499 14.515 14.515 0 10.423-2.175 20.733-6.385 30.268l-25.694 58.186c-3.517 7.965-13.938 9.913-20.095 3.756-8.974-8.974-14.015-21.145-14.015-33.836v-6.768c0-17.645-7.009-34.566-19.486-47.043l-.76-.76c-11.741-11.741-18.337-27.666-18.337-44.271v-2.426c0-11.518 9.337-20.856 20.856-20.856 16.604.002 32.528 6.598 44.27 18.339z"/>
  <path fill="url(#SVGID_11_)" d="m167.538 59.325c-46.155 16.906-83.662 51.741-104.094 96.07-2.422 5.253-3.621 10.988-3.621 16.773 0 10.775 4.28 21.108 11.899 28.727l3.768 3.768c16.884 16.884 39.784 26.369 63.661 26.369 3.567 0 6.459-2.892 6.459-6.459 0-3.567-2.892-6.459-6.459-6.459h-19.855c-9.157 0-16.58-7.423-16.58-16.58 0-9.157 7.423-16.581 16.58-16.581h15.507c18.594 0 36.427-7.386 49.575-20.535l23.943-23.943c5.214-5.214 12.285-8.143 19.659-8.143 10.666 0 20.393-6.103 25.033-15.707 5.687-11.771-2.889-25.438-15.961-25.438h-30.892c-9.083 0-16.445-7.363-16.445-16.445 0-11.462-11.414-19.36-22.177-15.417z"/>
  <path fill="url(#SVGID_12_)" d="m237.053 91.188h-30.893c-9.083 0-16.445-7.363-16.445-16.445 0-.54-.033-1.069-.083-1.592-60.225 15.57-107.071 64.385-119.802 125.701.608.698 1.233 1.384 1.892 2.044l3.768 3.768c16.884 16.884 39.784 26.369 63.661 26.369 3.567 0 6.459-2.892 6.459-6.459 0-3.567-2.892-6.459-6.459-6.459h-19.855c-9.157 0-16.58-7.423-16.58-16.581s7.423-16.581 16.58-16.581h15.507c18.594 0 36.427-7.386 49.575-20.535l23.943-23.943c5.214-5.214 12.285-8.143 19.659-8.143 10.666 0 20.393-6.103 25.033-15.707 5.688-11.77-2.887-25.437-15.96-25.437z"/>
  <path fill="url(#SVGID_13_)" d="m410.993 192.753c-2.546-11.592-12.911-19.791-24.779-19.791h-25.987-13.891c-23.61 0-42.75 19.14-42.75 42.75v5.201c0 20.738 16.811 37.549 37.549 37.549 10.544 0 19.092 8.548 19.092 19.092v49.855c0 12.992 16.869 18.167 24.089 7.366 15.004-22.446 25.211-48.374 29.154-76.313 1.193-8.487 1.815-17.169 1.815-25.989 0-13.639-1.482-26.928-4.292-39.72z"/>
  <path fill="url(#SVGID_14_)" d="m395.491 149.286h-55.065c-9.85 0-17.835-7.985-17.835-17.835 0-9.85 7.985-17.835 17.835-17.835h31.433c9.188 10.881 17.14 22.845 23.632 35.67z"/>
  <path fill="url(#SVGID_15_)" d="m313.403 67.569c12.433 24.814 19.442 52.818 19.442 82.463 0 101.811-82.534 184.345-184.345 184.345-29.645 0-57.649-7.008-82.463-19.442 30.267 60.408 92.737 101.882 164.904 101.882 101.811 0 184.345-82.534 184.345-184.345-.001-72.166-41.476-134.636-101.883-164.903z"/>
  <path fill="url(#SVGID_16_)" d="m340.667 504.678h-219.456c-5.878 0-10.644-4.765-10.644-10.644v-32.222c0-5.878 4.766-10.644 10.644-10.644h219.456c5.878 0 10.644 4.765 10.644 10.644v32.222c0 5.879-4.765 10.644-10.644 10.644z"/>
  <path fill="url(#SVGID_17_)" d="m356.615 510h-251.351c-5.878 0-10.644-4.765-10.644-10.644v-6.022c0-12.472 10.111-22.583 22.583-22.583h227.473c12.472 0 22.583 10.111 22.583 22.583v6.022c-.001 5.879-4.766 10.644-10.644 10.644z"/>
</svg>
