<svg xmlns="http://www.w3.org/2000/svg" xmlns:xlink="http://www.w3.org/1999/xlink" enable-background="new 0 0 64 64" viewBox="0 0 64 64"><defs><path id="a" d="M64,61.2c0,1.6-1.3,2.8-2.8,2.8c-0.7,0-1.5-0.3-2-0.8L43,47l4-4l16.2,16.2C63.7,59.7,64,60.4,64,61.2z"/></defs><clipPath id="b"><use overflow="visible" xlink:href="#a"/></clipPath><g clip-path="url(#b)"><path fill="#474f72" d="M43,43c0,22,0.1,21,0,21C43,42,42.9,43,43,43z"/><rect width=".3" height="21" x="43" y="43" fill="#474f72"/><rect width=".3" height="21" x="43.3" y="43" fill="#485073"/><rect width=".3" height="21" x="43.7" y="43" fill="#495173"/><rect width=".3" height="21" x="44" y="43" fill="#4a5274"/><rect width=".3" height="21" x="44.3" y="43" fill="#4b5375"/><rect width=".3" height="21" x="44.6" y="43" fill="#4c5476"/><rect width=".3" height="21" x="45" y="43" fill="#4d5576"/><rect width=".3" height="21" x="45.3" y="43" fill="#4e5677"/><rect width=".3" height="21" x="45.6" y="43" fill="#4f5778"/><rect width=".3" height="21" x="46" y="43" fill="#505878"/><rect width=".3" height="21" x="46.3" y="43" fill="#515979"/><rect width=".3" height="21" x="46.6" y="43" fill="#525a7a"/><rect width=".3" height="21" x="46.9" y="43" fill="#535b7b"/><rect width=".3" height="21" x="47.3" y="43" fill="#545c7b"/><rect width=".3" height="21" x="47.6" y="43" fill="#555d7c"/><rect width=".3" height="21" x="47.9" y="43" fill="#565e7d"/><rect width=".3" height="21" x="48.2" y="43" fill="#575e7d"/><rect width=".3" height="21" x="48.6" y="43" fill="#585f7e"/><rect width=".3" height="21" x="48.9" y="43" fill="#59607f"/><rect width=".3" height="21" x="49.2" y="43" fill="#5a6180"/><rect width=".3" height="21" x="49.6" y="43" fill="#5b6280"/><rect width=".3" height="21" x="49.9" y="43" fill="#5c6381"/><rect width=".3" height="21" x="50.2" y="43" fill="#5d6482"/><rect width=".3" height="21" x="50.5" y="43" fill="#5e6582"/><rect width=".3" height="21" x="50.9" y="43" fill="#5f6683"/><rect width=".3" height="21" x="51.2" y="43" fill="#606784"/><rect width=".3" height="21" x="51.5" y="43" fill="#616885"/><rect width=".3" height="21" x="51.9" y="43" fill="#626985"/><rect width=".3" height="21" x="52.2" y="43" fill="#636a86"/><rect width=".3" height="21" x="52.5" y="43" fill="#646b87"/><rect width=".3" height="21" x="52.8" y="43" fill="#656c87"/><rect width=".3" height="21" x="53.2" y="43" fill="#666d88"/><rect width=".3" height="21" x="53.5" y="43" fill="#686e89"/><rect width=".3" height="21" x="53.8" y="43" fill="#696f8a"/><rect width=".3" height="21" x="54.2" y="43" fill="#6a708a"/><rect width=".3" height="21" x="54.5" y="43" fill="#6b718b"/><rect width=".3" height="21" x="54.8" y="43" fill="#6c728c"/><rect width=".3" height="21" x="55.1" y="43" fill="#6d738c"/><rect width=".3" height="21" x="55.5" y="43" fill="#6e748d"/><rect width=".3" height="21" x="55.8" y="43" fill="#6f758e"/><rect width=".3" height="21" x="56.1" y="43" fill="#70768f"/><rect width=".3" height="21" x="56.5" y="43" fill="#71778f"/><rect width=".3" height="21" x="56.8" y="43" fill="#727890"/><rect width=".3" height="21" x="57.1" y="43" fill="#737991"/><rect width=".3" height="21" x="57.4" y="43" fill="#747a91"/><rect width=".3" height="21" x="57.8" y="43" fill="#757b92"/><rect width=".3" height="21" x="58.1" y="43" fill="#767c93"/><rect width=".3" height="21" x="58.4" y="43" fill="#777d94"/><rect width=".3" height="21" x="58.8" y="43" fill="#787d94"/><rect width=".3" height="21" x="59.1" y="43" fill="#797e95"/><rect width=".3" height="21" x="59.4" y="43" fill="#7a7f96"/><rect width=".3" height="21" x="59.7" y="43" fill="#7b8096"/><rect width=".3" height="21" x="60.1" y="43" fill="#7c8197"/><rect width=".3" height="21" x="60.4" y="43" fill="#7d8298"/><rect width=".3" height="21" x="60.7" y="43" fill="#7e8399"/><rect width=".3" height="21" x="61" y="43" fill="#7f8499"/><rect width=".3" height="21" x="61.4" y="43" fill="#80859a"/><rect width=".3" height="21" x="61.7" y="43" fill="#81869b"/><rect width=".3" height="21" x="62" y="43" fill="#82879b"/><rect width=".3" height="21" x="62.4" y="43" fill="#83889c"/><rect width=".3" height="21" x="62.7" y="43" fill="#84899d"/><rect width=".3" height="21" x="63" y="43" fill="#858a9e"/><rect width=".3" height="21" x="63.3" y="43" fill="#868b9e"/><rect width=".3" height="21" x="63.7" y="43" fill="#878c9f"/></g><defs><path id="c" d="M47,41l1.6,1.6c0.8,0.8,0.8,2,0,2.8l-3.2,3.2c-0.8,0.8-2,0.8-2.8,0L41,47L47,41z"/></defs><clipPath id="d"><use overflow="visible" xlink:href="#c"/></clipPath><g clip-path="url(#d)"><rect width="0" height="8.4" x="41" y="41" fill="#949aaf"/><path fill="#949aaf" d="M41.2,41c0,9.3,0.1,8.4-0.2,8.4C41,40.1,40.9,41,41.2,41z"/><path fill="#959bb0" d="M41.3,41c0,9.3,0.1,8.4-0.2,8.4C41.2,40.1,41.1,41,41.3,41z"/><path fill="#969cb1" d="M41.5,41c0,9.3,0.1,8.4-0.2,8.4C41.3,40.1,41.2,41,41.5,41z"/><path fill="#979db2" d="M41.7,41c0,9.3,0.1,8.4-0.2,8.4C41.5,40.1,41.4,41,41.7,41z"/><path fill="#989eb3" d="M41.8,41c0,9.3,0.1,8.4-0.2,8.4C41.7,40.1,41.6,41,41.8,41z"/><path fill="#999fb3" d="M42,41c0,9.3,0.1,8.4-0.2,8.4C41.8,40.1,41.7,41,42,41z"/><path fill="#9aa0b4" d="M42.1,41c0,9.3,0.1,8.4-0.2,8.4C42,40.1,41.9,41,42.1,41z"/><path fill="#9ba1b5" d="M42.3,41c0,9.3,0.1,8.4-0.2,8.4C42.1,40.1,42.1,41,42.3,41z"/><path fill="#9ca2b6" d="M42.5,41c0,9.3,0.1,8.4-0.2,8.4C42.3,40.1,42.2,41,42.5,41z"/><path fill="#9da3b7" d="M42.6,41c0,9.3,0.1,8.4-0.2,8.4C42.5,40.1,42.4,41,42.6,41z"/><path fill="#9ea4b8" d="M42.8,41c0,9.3,0.1,8.4-0.2,8.4C42.6,40.1,42.6,41,42.8,41z"/><path fill="#9fa5b9" d="M43,41c0,9.3,0.1,8.4-0.2,8.4C42.8,40.1,42.7,41,43,41z"/><path fill="#a0a6ba" d="M43.1,41c0,9.3,0.1,8.4-0.2,8.4C43,40.1,42.9,41,43.1,41z"/><path fill="#a1a7ba" d="M43.3,41c0,9.3,0.1,8.4-0.2,8.4C43.1,40.1,43,41,43.3,41z"/><path fill="#a2a8bb" d="M43.5,41c0,9.3,0.1,8.4-0.2,8.4C43.3,40.1,43.2,41,43.5,41z"/><path fill="#a3a9bc" d="M43.6,41c0,9.3,0.1,8.4-0.2,8.4C43.5,40.1,43.4,41,43.6,41z"/><path fill="#a4aabd" d="M43.8,41c0,9.3,0.1,8.4-0.2,8.4C43.6,40.1,43.5,41,43.8,41z"/><path fill="#a5abbe" d="M43.9,41c0,9.3,0.1,8.4-0.2,8.4C43.8,40.1,43.7,41,43.9,41z"/><path fill="#a6acbf" d="M44.1,41c0,9.3,0.1,8.4-0.2,8.4C43.9,40.1,43.9,41,44.1,41z"/><path fill="#a7adc0" d="M44.3,41c0,9.3,0.1,8.4-0.2,8.4C44.1,40.1,44,41,44.3,41z"/><path fill="#a8aec1" d="M44.4,41c0,9.3,0.1,8.4-0.2,8.4C44.3,40.1,44.2,41,44.4,41z"/><path fill="#a9afc1" d="M44.6,41c0,9.3,0.1,8.4-0.2,8.4C44.4,40.1,44.4,41,44.6,41z"/><path fill="#aab0c2" d="M44.8,41c0,9.3,0.1,8.4-0.2,8.4C44.6,40.1,44.5,41,44.8,41z"/><path fill="#abb1c3" d="M44.9,41c0,9.3,0.1,8.4-0.2,8.4C44.8,40.1,44.7,41,44.9,41z"/><path fill="#acb2c4" d="M45.1,41c0,9.3,0.1,8.4-0.2,8.4C44.9,40.1,44.8,41,45.1,41z"/><path fill="#aeb4c5" d="M45.2,41c0,9.3,0.1,8.4-0.2,8.4C45.1,40.1,45,41,45.2,41z"/><path fill="#afb5c6" d="M45.4,41c0,9.3,0.1,8.4-0.2,8.4C45.2,40.1,45.2,41,45.4,41z"/><path fill="#b0b6c7" d="M45.6,41c0,9.3,0.1,8.4-0.2,8.4C45.4,40.1,45.3,41,45.6,41z"/><path fill="#b1b7c8" d="M45.7,41c0,9.3,0.1,8.4-0.2,8.4C45.6,40.1,45.5,41,45.7,41z"/><path fill="#b2b8c8" d="M45.9,41c0,9.3,0.1,8.4-0.2,8.4C45.7,40.1,45.7,41,45.9,41z"/><path fill="#b3b9c9" d="M46.1,41c0,9.3,0.1,8.4-0.2,8.4C45.9,40.1,45.8,41,46.1,41z"/><path fill="#b4baca" d="M46.2,41c0,9.3,0.1,8.4-0.2,8.4C46.1,40.1,46,41,46.2,41z"/><path fill="#b5bbcb" d="M46.4,41c0,9.3,0.1,8.4-0.2,8.4C46.2,40.1,46.2,41,46.4,41z"/><path fill="#b6bccc" d="M46.6,41c0,9.3,0.1,8.4-0.2,8.4C46.4,40.1,46.3,41,46.6,41z"/><path fill="#b7bdcd" d="M46.7,41c0,9.3,0.1,8.4-0.2,8.4C46.6,40.1,46.5,41,46.7,41z"/><path fill="#b8bece" d="M46.9,41c0,9.3,0.1,8.4-0.2,8.4C46.7,40.1,46.7,41,46.9,41z"/><path fill="#b9bfcf" d="M47,41c0,9.3,0.1,8.4-0.2,8.4C46.9,40.1,46.8,41,47,41z"/><path fill="#bac0cf" d="M47.2,41c0,9.3,0.1,8.4-0.2,8.4C47,40.1,47,41,47.2,41z"/><path fill="#bbc1d0" d="M47.4,41c0,9.3,0.1,8.4-0.2,8.4C47.2,40.1,47.1,41,47.4,41z"/><path fill="#bcc2d1" d="M47.5,41c0,9.3,0.1,8.4-0.2,8.4C47.4,40.1,47.3,41,47.5,41z"/><path fill="#bdc3d2" d="M47.7,41c0,9.3,0.1,8.4-0.2,8.4C47.5,40.1,47.5,41,47.7,41z"/><path fill="#bec4d3" d="M47.9,41c0,9.3,0.1,8.4-0.2,8.4C47.7,40.1,47.6,41,47.9,41z"/><path fill="#bfc5d4" d="M48,41c0,9.3,0.1,8.4-0.2,8.4C47.9,40.1,47.8,41,48,41z"/><path fill="#c0c6d5" d="M48.2,41c0,9.3,0.1,8.4-0.2,8.4C48,40.1,48,41,48.2,41z"/><path fill="#c1c7d6" d="M48.3,41c0,9.3,0.1,8.4-0.2,8.4C48.2,40.1,48.1,41,48.3,41z"/><path fill="#c2c8d6" d="M48.5,41c0,9.3,0.1,8.4-0.2,8.4C48.3,40.1,48.3,41,48.5,41z"/><path fill="#c3c9d7" d="M48.7,41c0,9.3,0.1,8.4-0.2,8.4C48.5,40.1,48.4,41,48.7,41z"/><path fill="#c4cad8" d="M48.8,41c0,9.3,0.1,8.4-0.2,8.4C48.7,40.1,48.6,41,48.8,41z"/><path fill="#c5cbd9" d="M49,41c0,9.3,0.1,8.4-0.2,8.4C48.8,40.1,48.8,41,49,41z"/><path fill="#c6ccda" d="M49.2,41c0,9.3,0.1,8.4-0.2,8.4C49,40.1,48.9,41,49.2,41z"/><rect width=".2" height="8.4" x="49.2" y="41" fill="#c6ccda"/></g><defs><path id="e" d="M15,58C-1,46.7-4.8,24.5,6.5,8.5C8.8,5.2,11.7,2.3,15,0c16,11.3,19.8,33.5,8.5,49.5
			C21.2,52.8,18.3,55.7,15,58z"/></defs><clipPath id="f"><use overflow="visible" xlink:href="#e"/></clipPath><g clip-path="url(#f)"><path fill="#8cdd79" d="M0,0c0,58.6,0.1,58,0,58C0-0.6-0.1,0,0,0z"/><rect width=".4" height="58" fill="#8cdd79"/><rect width=".4" height="58" x=".4" fill="#8ddd7a"/><rect width=".4" height="58" x=".8" fill="#8edd7b"/><rect width=".4" height="58" x="1.2" fill="#8fdd7c"/><rect width=".4" height="58" x="1.7" fill="#90de7c"/><rect width=".4" height="58" x="2.1" fill="#91de7d"/><rect width=".4" height="58" x="2.5" fill="#92de7e"/><rect width=".4" height="58" x="2.9" fill="#93de7f"/><rect width=".4" height="58" x="3.3" fill="#94de80"/><rect width=".4" height="58" x="3.8" fill="#95de81"/><rect width=".4" height="58" x="4.2" fill="#96de82"/><rect width=".4" height="58" x="4.6" fill="#97de82"/><rect width=".4" height="58" x="5" fill="#98df83"/><rect width=".4" height="58" x="5.4" fill="#99df84"/><rect width=".4" height="58" x="5.8" fill="#9adf85"/><rect width=".4" height="58" x="6.2" fill="#9bdf86"/><rect width=".4" height="58" x="6.7" fill="#9cdf87"/><rect width=".4" height="58" x="7.1" fill="#9ddf88"/><rect width=".4" height="58" x="7.5" fill="#9edf88"/><rect width=".4" height="58" x="7.9" fill="#9fdf89"/><rect width=".4" height="58" x="8.3" fill="#a0e08a"/><rect width=".4" height="58" x="8.8" fill="#a1e08b"/><rect width=".4" height="58" x="9.2" fill="#a2e08c"/><rect width=".4" height="58" x="9.6" fill="#a3e08d"/><rect width=".4" height="58" x="10" fill="#a4e08e"/><rect width=".4" height="58" x="10.4" fill="#a5e08e"/><rect width=".4" height="58" x="10.8" fill="#a6e08f"/><rect width=".4" height="58" x="11.2" fill="#a7e090"/><rect width=".4" height="58" x="11.7" fill="#a8e191"/><rect width=".4" height="58" x="12.1" fill="#a9e192"/><rect width=".4" height="58" x="12.5" fill="#aae193"/><rect width=".4" height="58" x="12.9" fill="#abe194"/><rect width=".4" height="58" x="13.3" fill="#ace194"/><rect width=".4" height="58" x="13.8" fill="#ade195"/><rect width=".4" height="58" x="14.2" fill="#aee196"/><rect width=".4" height="58" x="14.6" fill="#afe197"/><rect width=".4" height="58" x="15" fill="#b1e298"/><rect width=".4" height="58" x="15.4" fill="#b2e299"/><rect width=".4" height="58" x="15.8" fill="#b3e29a"/><rect width=".4" height="58" x="16.2" fill="#b4e29b"/><rect width=".4" height="58" x="16.7" fill="#b5e29b"/><rect width=".4" height="58" x="17.1" fill="#b6e29c"/><rect width=".4" height="58" x="17.5" fill="#b7e29d"/><rect width=".4" height="58" x="17.9" fill="#b8e29e"/><rect width=".4" height="58" x="18.3" fill="#b9e39f"/><rect width=".4" height="58" x="18.8" fill="#bae3a0"/><rect width=".4" height="58" x="19.2" fill="#bbe3a1"/><rect width=".4" height="58" x="19.6" fill="#bce3a1"/><rect width=".4" height="58" x="20" fill="#bde3a2"/><rect width=".4" height="58" x="20.4" fill="#bee3a3"/><rect width=".4" height="58" x="20.8" fill="#bfe3a4"/><rect width=".4" height="58" x="21.2" fill="#c0e3a5"/><rect width=".4" height="58" x="21.7" fill="#c1e4a6"/><rect width=".4" height="58" x="22.1" fill="#c2e4a7"/><rect width=".4" height="58" x="22.5" fill="#c3e4a7"/><rect width=".4" height="58" x="22.9" fill="#c4e4a8"/><rect width=".4" height="58" x="23.3" fill="#c5e4a9"/><rect width=".4" height="58" x="23.8" fill="#c6e4aa"/><rect width=".4" height="58" x="24.2" fill="#c7e4ab"/><rect width=".4" height="58" x="24.6" fill="#c8e4ac"/><rect width=".4" height="58" x="25" fill="#c9e5ad"/><rect width=".4" height="58" x="25.4" fill="#cae5ad"/><rect width=".4" height="58" x="25.8" fill="#cbe5ae"/><rect width=".4" height="58" x="26.2" fill="#cce5af"/><rect width=".4" height="58" x="26.7" fill="#cde5b0"/><rect width=".4" height="58" x="27.1" fill="#cee5b1"/><rect width=".4" height="58" x="27.5" fill="#cfe5b2"/><rect width=".4" height="58" x="27.9" fill="#d0e5b3"/><rect width=".4" height="58" x="28.3" fill="#d1e6b3"/><rect width=".4" height="58" x="28.8" fill="#d2e6b4"/><rect width=".4" height="58" x="29.2" fill="#d3e6b5"/><rect width=".4" height="58" x="29.6" fill="#d4e6b6"/></g><path fill="#7ece67" d="M22.2,41.8c-0.4-0.4-1-0.4-1.4,0L16,46.6V38c0,0,0,0,0-0.1V25.4c0.7-0.7,2.3-2.3,5.7-5.7c0.4-0.4,0.4-1,0-1.4
	c-0.4-0.4-1-0.4-1.4,0L16,22.6V16c0-0.6-0.4-1-1-1s-1,0.4-1,1v9c0,0,0,0,0,0c0,0,0,0,0,0v10.5l-4.3-4.3c-0.4-0.4-1-0.4-1.4,0
	c-0.4,0.4-0.4,1,0,1.4c3.5,3.5,5,5,5.7,5.7V49c0,0,0,0,0,0c0,0,0,0,0,0v15h2V49.4c0.8-0.7,2.4-2.4,6.2-6.2
	C22.6,42.8,22.6,42.2,22.2,41.8z"/><defs><circle id="g" cx="32" cy="32" r="18"/></defs><clipPath id="h"><use overflow="visible" xlink:href="#g"/></clipPath><g clip-path="url(#h)"><path fill="#949aaf" d="M14,14c0,37.2,0.1,36,0,36C14,12.8,13.9,14,14,14z"/><rect width=".7" height="36" x="14" y="14" fill="#949aaf"/><rect width=".7" height="36" x="14.7" y="14" fill="#959bb0"/><rect width=".7" height="36" x="15.4" y="14" fill="#969cb1"/><rect width=".7" height="36" x="16.2" y="14" fill="#979db2"/><rect width=".7" height="36" x="16.9" y="14" fill="#989eb3"/><rect width=".7" height="36" x="17.6" y="14" fill="#999fb3"/><rect width=".7" height="36" x="18.3" y="14" fill="#9aa0b4"/><rect width=".7" height="36" x="19" y="14" fill="#9ba1b5"/><rect width=".7" height="36" x="19.8" y="14" fill="#9ca2b6"/><rect width=".7" height="36" x="20.5" y="14" fill="#9da3b7"/><rect width=".7" height="36" x="21.2" y="14" fill="#9ea4b8"/><rect width=".7" height="36" x="21.9" y="14" fill="#9fa5b9"/><rect width=".7" height="36" x="22.6" y="14" fill="#a0a6ba"/><rect width=".7" height="36" x="23.4" y="14" fill="#a1a7ba"/><rect width=".7" height="36" x="24.1" y="14" fill="#a2a8bb"/><rect width=".7" height="36" x="24.8" y="14" fill="#a3a9bc"/><rect width=".7" height="36" x="25.5" y="14" fill="#a4aabd"/><rect width=".7" height="36" x="26.2" y="14" fill="#a5abbe"/><rect width=".7" height="36" x="27" y="14" fill="#a6acbf"/><rect width=".7" height="36" x="27.7" y="14" fill="#a7adc0"/><rect width=".7" height="36" x="28.4" y="14" fill="#a8aec1"/><rect width=".7" height="36" x="29.1" y="14" fill="#a9afc1"/><rect width=".7" height="36" x="29.8" y="14" fill="#aab0c2"/><rect width=".7" height="36" x="30.6" y="14" fill="#abb1c3"/><rect width=".7" height="36" x="31.3" y="14" fill="#acb2c4"/><rect width=".7" height="36" x="32" y="14" fill="#aeb4c5"/><rect width=".7" height="36" x="32.7" y="14" fill="#afb5c6"/><rect width=".7" height="36" x="33.4" y="14" fill="#b0b6c7"/><rect width=".7" height="36" x="34.2" y="14" fill="#b1b7c8"/><rect width=".7" height="36" x="34.9" y="14" fill="#b2b8c8"/><rect width=".7" height="36" x="35.6" y="14" fill="#b3b9c9"/><rect width=".7" height="36" x="36.3" y="14" fill="#b4baca"/><rect width=".7" height="36" x="37" y="14" fill="#b5bbcb"/><rect width=".7" height="36" x="37.8" y="14" fill="#b6bccc"/><rect width=".7" height="36" x="38.5" y="14" fill="#b7bdcd"/><rect width=".7" height="36" x="39.2" y="14" fill="#b8bece"/><rect width=".7" height="36" x="39.9" y="14" fill="#b9bfcf"/><rect width=".7" height="36" x="40.6" y="14" fill="#bac0cf"/><rect width=".7" height="36" x="41.4" y="14" fill="#bbc1d0"/><rect width=".7" height="36" x="42.1" y="14" fill="#bcc2d1"/><rect width=".7" height="36" x="42.8" y="14" fill="#bdc3d2"/><rect width=".7" height="36" x="43.5" y="14" fill="#bec4d3"/><rect width=".7" height="36" x="44.2" y="14" fill="#bfc5d4"/><rect width=".7" height="36" x="45" y="14" fill="#c0c6d5"/><rect width=".7" height="36" x="45.7" y="14" fill="#c1c7d6"/><rect width=".7" height="36" x="46.4" y="14" fill="#c2c8d6"/><rect width=".7" height="36" x="47.1" y="14" fill="#c3c9d7"/><rect width=".7" height="36" x="47.8" y="14" fill="#c4cad8"/><rect width=".7" height="36" x="48.6" y="14" fill="#c5cbd9"/><rect width=".7" height="36" x="49.3" y="14" fill="#c6ccda"/></g><path fill="#d7f1ff" d="M47,32c0,8.3-6.7,15-15,15c-8.3,0-15-6.7-15-15c0-7.5,5.6-13.9,13-14.9C38.2,16,45.8,21.8,46.9,30
	C47,30.7,47,31.3,47,32z"/><g><defs><path id="i" d="M27.5,46.3c-7.9-2.5-12.3-10.9-9.8-18.8c1.7-5.5,6.5-9.6,12.3-10.4C33.4,26.8,32.5,37.4,27.5,46.3z"/></defs><clipPath id="j"><use overflow="visible" xlink:href="#i"/></clipPath><g clip-path="url(#j)"><path fill="#8cdd79" d="M17,17.1c0,30.3,0.1,29.2,0,29.2C17,16,16.9,17.1,17,17.1z"/><path fill="#8cdd79" d="M17.2,17.1c0,31.5,0.1,29.2-0.2,29.2C17,14.8,16.9,17.1,17.2,17.1z"/><path fill="#8ddd7a" d="M17.4,17.1c0,31.5,0.1,29.2-0.2,29.2C17.2,14.8,17.1,17.1,17.4,17.1z"/><path fill="#8edd7b" d="M17.6,17.1c0,31.5,0.1,29.2-0.2,29.2C17.4,14.8,17.3,17.1,17.6,17.1z"/><path fill="#8fdd7c" d="M17.8,17.1c0,31.5,0.1,29.2-0.2,29.2C17.6,14.8,17.5,17.1,17.8,17.1z"/><path fill="#90de7c" d="M18,17.1c0,31.5,0.1,29.2-0.2,29.2C17.8,14.8,17.7,17.1,18,17.1z"/><path fill="#91de7d" d="M18.2,17.1c0,31.5,0.1,29.2-0.2,29.2C18,14.8,17.9,17.1,18.2,17.1z"/><path fill="#92de7e" d="M18.5,17.1c0,31.5,0.1,29.2-0.2,29.2C18.2,14.8,18.1,17.1,18.5,17.1z"/><path fill="#93de7f" d="M18.7,17.1c0,31.5,0.1,29.2-0.2,29.2C18.5,14.8,18.4,17.1,18.7,17.1z"/><path fill="#94de80" d="M18.9,17.1c0,31.5,0.1,29.2-0.2,29.2C18.7,14.8,18.6,17.1,18.9,17.1z"/><path fill="#95de81" d="M19.1,17.1c0,31.5,0.1,29.2-0.2,29.2C18.9,14.8,18.8,17.1,19.1,17.1z"/><path fill="#96de82" d="M19.3,17.1c0,31.5,0.1,29.2-0.2,29.2C19.1,14.8,19,17.1,19.3,17.1z"/><path fill="#97de82" d="M19.5,17.1c0,31.5,0.1,29.2-0.2,29.2C19.3,14.8,19.2,17.1,19.5,17.1z"/><path fill="#98df83" d="M19.7,17.1c0,31.5,0.1,29.2-0.2,29.2C19.5,14.8,19.4,17.1,19.7,17.1z"/><path fill="#99df84" d="M19.9,17.1c0,31.5,0.1,29.2-0.2,29.2C19.7,14.8,19.6,17.1,19.9,17.1z"/><path fill="#9adf85" d="M20.1,17.1c0,31.5,0.1,29.2-0.2,29.2C19.9,14.8,19.8,17.1,20.1,17.1z"/><path fill="#9bdf86" d="M20.3,17.1c0,31.5,0.1,29.2-0.2,29.2C20.1,14.8,20,17.1,20.3,17.1z"/><path fill="#9cdf87" d="M20.5,17.1c0,31.5,0.1,29.2-0.2,29.2C20.3,14.8,20.2,17.1,20.5,17.1z"/><path fill="#9ddf88" d="M20.8,17.1c0,31.5,0.1,29.2-0.2,29.2C20.5,14.8,20.4,17.1,20.8,17.1z"/><path fill="#9edf88" d="M21,17.1c0,31.5,0.1,29.2-0.2,29.2C20.8,14.8,20.6,17.1,21,17.1z"/><path fill="#9fdf89" d="M21.2,17.1c0,31.5,0.1,29.2-0.2,29.2C21,14.8,20.9,17.1,21.2,17.1z"/><path fill="#a0e08a" d="M21.4,17.1c0,31.5,0.1,29.2-0.2,29.2C21.2,14.8,21.1,17.1,21.4,17.1z"/><path fill="#a1e08b" d="M21.6,17.1c0,31.5,0.1,29.2-0.2,29.2C21.4,14.8,21.3,17.1,21.6,17.1z"/><path fill="#a2e08c" d="M21.8,17.1c0,31.5,0.1,29.2-0.2,29.2C21.6,14.8,21.5,17.1,21.8,17.1z"/><path fill="#a3e08d" d="M22,17.1c0,31.5,0.1,29.2-0.2,29.2C21.8,14.8,21.7,17.1,22,17.1z"/><path fill="#a4e08e" d="M22.2,17.1c0,31.5,0.1,29.2-0.2,29.2C22,14.8,21.9,17.1,22.2,17.1z"/><path fill="#a5e08e" d="M22.4,17.1c0,31.5,0.1,29.2-0.2,29.2C22.2,14.8,22.1,17.1,22.4,17.1z"/><path fill="#a6e08f" d="M22.6,17.1c0,31.5,0.1,29.2-0.2,29.2C22.4,14.8,22.3,17.1,22.6,17.1z"/><path fill="#a7e090" d="M22.8,17.1c0,31.5,0.1,29.2-0.2,29.2C22.6,14.8,22.5,17.1,22.8,17.1z"/><path fill="#a8e191" d="M23,17.1c0,31.5,0.1,29.2-0.2,29.2C22.8,14.8,22.7,17.1,23,17.1z"/><path fill="#a9e192" d="M23.2,17.1c0,31.5,0.1,29.2-0.2,29.2C23,14.8,22.9,17.1,23.2,17.1z"/><path fill="#aae193" d="M23.5,17.1c0,31.5,0.1,29.2-0.2,29.2C23.2,14.8,23.1,17.1,23.5,17.1z"/><path fill="#abe194" d="M23.7,17.1c0,31.5,0.1,29.2-0.2,29.2C23.5,14.8,23.4,17.1,23.7,17.1z"/><path fill="#ace194" d="M23.9,17.1c0,31.5,0.1,29.2-0.2,29.2C23.7,14.8,23.6,17.1,23.9,17.1z"/><path fill="#ade195" d="M24.1,17.1c0,31.5,0.1,29.2-0.2,29.2C23.9,14.8,23.8,17.1,24.1,17.1z"/><path fill="#aee196" d="M24.3,17.1c0,31.5,0.1,29.2-0.2,29.2C24.1,14.8,24,17.1,24.3,17.1z"/><path fill="#afe197" d="M24.5,17.1c0,31.5,0.1,29.2-0.2,29.2C24.3,14.8,24.2,17.1,24.5,17.1z"/><path fill="#b1e298" d="M24.7,17.1c0,31.5,0.1,29.2-0.2,29.2C24.5,14.8,24.4,17.1,24.7,17.1z"/><path fill="#b2e299" d="M24.9,17.1c0,31.5,0.1,29.2-0.2,29.2C24.7,14.8,24.6,17.1,24.9,17.1z"/><path fill="#b3e29a" d="M25.1,17.1c0,31.5,0.1,29.2-0.2,29.2C24.9,14.8,24.8,17.1,25.1,17.1z"/><path fill="#b4e29b" d="M25.3,17.1c0,31.5,0.1,29.2-0.2,29.2C25.1,14.8,25,17.1,25.3,17.1z"/><path fill="#b5e29b" d="M25.5,17.1c0,31.5,0.1,29.2-0.2,29.2C25.3,14.8,25.2,17.1,25.5,17.1z"/><path fill="#b6e29c" d="M25.8,17.1c0,31.5,0.1,29.2-0.2,29.2C25.5,14.8,25.4,17.1,25.8,17.1z"/><path fill="#b7e29d" d="M26,17.1c0,31.5,0.1,29.2-0.2,29.2C25.8,14.8,25.6,17.1,26,17.1z"/><path fill="#b8e29e" d="M26.2,17.1c0,31.5,0.1,29.2-0.2,29.2C26,14.8,25.9,17.1,26.2,17.1z"/><path fill="#b9e39f" d="M26.4,17.1c0,31.5,0.1,29.2-0.2,29.2C26.2,14.8,26.1,17.1,26.4,17.1z"/><path fill="#bae3a0" d="M26.6,17.1c0,31.5,0.1,29.2-0.2,29.2C26.4,14.8,26.3,17.1,26.6,17.1z"/><path fill="#bbe3a1" d="M26.8,17.1c0,31.5,0.1,29.2-0.2,29.2C26.6,14.8,26.5,17.1,26.8,17.1z"/><path fill="#bce3a1" d="M27,17.1c0,31.5,0.1,29.2-0.2,29.2C26.8,14.8,26.7,17.1,27,17.1z"/><path fill="#bde3a2" d="M27.2,17.1c0,31.5,0.1,29.2-0.2,29.2C27,14.8,26.9,17.1,27.2,17.1z"/><path fill="#bee3a3" d="M27.4,17.1c0,31.5,0.1,29.2-0.2,29.2C27.2,14.8,27.1,17.1,27.4,17.1z"/><path fill="#bfe3a4" d="M27.6,17.1c0,31.5,0.1,29.2-0.2,29.2C27.4,14.8,27.3,17.1,27.6,17.1z"/><path fill="#c0e3a5" d="M27.8,17.1c0,31.5,0.1,29.2-0.2,29.2C27.6,14.8,27.5,17.1,27.8,17.1z"/><path fill="#c1e4a6" d="M28,17.1c0,31.5,0.1,29.2-0.2,29.2C27.8,14.8,27.7,17.1,28,17.1z"/><path fill="#c2e4a7" d="M28.2,17.1c0,31.5,0.1,29.2-0.2,29.2C28,14.8,27.9,17.1,28.2,17.1z"/><path fill="#c3e4a7" d="M28.5,17.1c0,31.5,0.1,29.2-0.2,29.2C28.2,14.8,28.1,17.1,28.5,17.1z"/><path fill="#c4e4a8" d="M28.7,17.1c0,31.5,0.1,29.2-0.2,29.2C28.5,14.8,28.4,17.1,28.7,17.1z"/><path fill="#c5e4a9" d="M28.9,17.1c0,31.5,0.1,29.2-0.2,29.2C28.7,14.8,28.6,17.1,28.9,17.1z"/><path fill="#c6e4aa" d="M29.1,17.1c0,31.5,0.1,29.2-0.2,29.2C28.9,14.8,28.8,17.1,29.1,17.1z"/><path fill="#c7e4ab" d="M29.3,17.1c0,31.5,0.1,29.2-0.2,29.2C29.1,14.8,29,17.1,29.3,17.1z"/><path fill="#c8e4ac" d="M29.5,17.1c0,31.5,0.1,29.2-0.2,29.2C29.3,14.8,29.2,17.1,29.5,17.1z"/><path fill="#c9e5ad" d="M29.7,17.1c0,31.5,0.1,29.2-0.2,29.2C29.5,14.8,29.4,17.1,29.7,17.1z"/><path fill="#cae5ad" d="M29.9,17.1c0,31.5,0.1,29.2-0.2,29.2C29.7,14.8,29.6,17.1,29.9,17.1z"/><path fill="#cbe5ae" d="M30.1,17.1c0,31.5,0.1,29.2-0.2,29.2C29.9,14.8,29.8,17.1,30.1,17.1z"/><path fill="#cce5af" d="M30.3,17.1c0,31.5,0.1,29.2-0.2,29.2C30.1,14.8,30,17.1,30.3,17.1z"/><path fill="#cde5b0" d="M30.5,17.1c0,31.5,0.1,29.2-0.2,29.2C30.3,14.8,30.2,17.1,30.5,17.1z"/><path fill="#cee5b1" d="M30.8,17.1c0,31.5,0.1,29.2-0.2,29.2C30.5,14.8,30.4,17.1,30.8,17.1z"/><path fill="#cfe5b2" d="M31,17.1c0,31.5,0.1,29.2-0.2,29.2C30.8,14.8,30.6,17.1,31,17.1z"/><path fill="#d0e5b3" d="M31.2,17.1c0,31.5,0.1,29.2-0.2,29.2C31,14.8,30.9,17.1,31.2,17.1z"/><path fill="#d1e6b3" d="M31.4,17.1c0,31.5,0.1,29.2-0.2,29.2C31.2,14.8,31.1,17.1,31.4,17.1z"/><path fill="#d2e6b4" d="M31.6,17.1c0,31.5,0.1,29.2-0.2,29.2C31.4,14.8,31.3,17.1,31.6,17.1z"/><path fill="#d3e6b5" d="M31.8,17.1c0,31.5,0.1,29.2-0.2,29.2C31.6,14.8,31.5,17.1,31.8,17.1z"/><path fill="#d4e6b6" d="M32,17.1c0,31.5,0.1,29.2-0.2,29.2C31.8,14.8,31.7,17.1,32,17.1z"/></g></g><path fill="#7ece67" d="M19,24.5v15C16.3,34.9,16.3,29.2,19,24.5z"/><g><defs><path id="k" d="M64,12c0,6.6-5.4,12-12,12H40V12c0-6.6,5.4-12,12-12S64,5.4,64,12z"/></defs><clipPath id="l"><use overflow="visible" xlink:href="#k"/></clipPath><g clip-path="url(#l)"><rect width=".8" height="24" x="40" fill="#d4d8e1"/><rect width=".8" height="24" x="40.8" fill="#d5d9e2"/><rect width=".8" height="24" x="41.5" fill="#d6dae2"/><rect width=".8" height="24" x="42.3" fill="#d7dbe3"/><rect width=".8" height="24" x="43.1" fill="#d8dce4"/><rect width=".8" height="24" x="43.9" fill="#d9dde4"/><rect width=".8" height="24" x="44.7" fill="#dadee5"/><rect width=".8" height="24" x="45.4" fill="#dbdfe6"/><rect width=".8" height="24" x="46.2" fill="#dcdfe6"/><rect width=".8" height="24" x="47" fill="#dde0e7"/><rect width=".8" height="24" x="47.7" fill="#dee1e8"/><rect width=".8" height="24" x="48.5" fill="#dfe2e8"/><rect width=".8" height="24" x="49.3" fill="#e0e3e9"/><rect width=".8" height="24" x="50.1" fill="#e1e4ea"/><rect width=".8" height="24" x="50.8" fill="#e2e5ea"/><rect width=".8" height="24" x="51.6" fill="#e4e6eb"/><rect width=".8" height="24" x="52.4" fill="#e5e7ec"/><rect width=".8" height="24" x="53.2" fill="#e6e8ec"/><rect width=".8" height="24" x="53.9" fill="#e7e9ed"/><rect width=".8" height="24" x="54.7" fill="#e8eaee"/><rect width=".8" height="24" x="55.5" fill="#e9ebee"/><rect width=".8" height="24" x="56.3" fill="#eaecef"/><rect width=".8" height="24" x="57" fill="#ebedf0"/><rect width=".8" height="24" x="57.8" fill="#ecedf0"/><rect width=".8" height="24" x="58.6" fill="#edeef1"/><rect width=".8" height="24" x="59.3" fill="#eeeff2"/><rect width=".8" height="24" x="60.1" fill="#eff0f2"/><rect width=".8" height="24" x="60.9" fill="#f0f1f3"/><rect width=".8" height="24" x="61.7" fill="#f1f2f4"/><rect width=".8" height="24" x="62.5" fill="#f2f3f4"/><rect width=".8" height="24" x="63.2" fill="#f3f4f5"/><path fill="#f3f4f5" d="M64,24c0-24.8-0.1-24,0-24C64,24.8,64.1,24,64,24z"/></g></g><g><defs><path id="m" d="M58.5,10.1l1.5,1.4c0.4,0.4,0.4,1.1,0,1.5c-0.4,0.4-1.1,0.4-1.5,0l-1.4-1.4c-0.4-0.4-0.4-1,0-1.4
			C57.5,9.7,58.1,9.7,58.5,10.1z"/></defs><clipPath id="n"><use overflow="visible" xlink:href="#m"/></clipPath><g clip-path="url(#n)"><path fill="#8cdd79" d="M56.8 9.7c0 4 0 3.6-.1 3.6C56.7 9.3 56.7 9.7 56.8 9.7zM56.9 9.7c0 3.9 0 3.6 0 3.6C56.8 9.4 56.8 9.7 56.9 9.7z"/><path fill="#8ddd7a" d="M56.9,9.7c0,3.9,0.1,3.6,0,3.6C56.9,9.4,56.8,9.7,56.9,9.7z"/><path fill="#8edd7b" d="M57,9.7c0,3.9,0,3.6,0,3.6C56.9,9.4,56.9,9.7,57,9.7z"/><path fill="#8fdd7c" d="M57,9.7c0,3.9,0,3.6,0,3.6C57,9.4,56.9,9.7,57,9.7z"/><path fill="#90de7c" d="M57.1,9.7c0,3.9,0,3.6,0,3.6C57,9.4,57,9.7,57.1,9.7z"/><path fill="#91de7d" d="M57.1,9.7c0,3.9,0.1,3.6,0,3.6C57.1,9.4,57,9.7,57.1,9.7z"/><path fill="#92de7e" d="M57.2,9.7c0,3.9,0,3.6,0,3.6C57.1,9.4,57.1,9.7,57.2,9.7z"/><path fill="#93de7f" d="M57.2,9.7c0,3.9,0,3.6,0,3.6C57.2,9.4,57.1,9.7,57.2,9.7z"/><path fill="#94de80" d="M57.3,9.7c0,3.9,0,3.6,0,3.6C57.2,9.4,57.2,9.7,57.3,9.7z"/><path fill="#95de81" d="M57.3,9.7c0,3.9,0.1,3.6,0,3.6C57.3,9.4,57.2,9.7,57.3,9.7z"/><path fill="#96de82" d="M57.3,9.7c0,3.9,0,3.6,0,3.6C57.3,9.4,57.2,9.7,57.3,9.7z"/><path fill="#97de82" d="M57.4,9.7c0,3.9,0,3.6,0,3.6C57.3,9.4,57.3,9.7,57.4,9.7z"/><path fill="#98df83" d="M57.4,9.7c0,3.9,0.1,3.6,0,3.6C57.4,9.4,57.3,9.7,57.4,9.7z"/><path fill="#99df84" d="M57.5,9.7c0,3.9,0.1,3.6,0,3.6C57.4,9.4,57.4,9.7,57.5,9.7z"/><path fill="#9adf85" d="M57.5,9.7c0,3.9,0,3.6,0,3.6C57.5,9.4,57.4,9.7,57.5,9.7z"/><path fill="#9bdf86" d="M57.6,9.7c0,3.9,0,3.6,0,3.6C57.5,9.4,57.5,9.7,57.6,9.7z"/><path fill="#9cdf87" d="M57.6,9.7c0,3.9,0.1,3.6,0,3.6C57.6,9.4,57.5,9.7,57.6,9.7z"/><path fill="#9ddf88" d="M57.7,9.7c0,3.9,0.1,3.6,0,3.6C57.6,9.4,57.6,9.7,57.7,9.7z"/><path fill="#9edf88" d="M57.7,9.7c0,3.9,0,3.6,0,3.6C57.7,9.4,57.6,9.7,57.7,9.7z"/><path fill="#9fdf89" d="M57.8,9.7c0,3.9,0,3.6,0,3.6C57.7,9.4,57.7,9.7,57.8,9.7z"/><path fill="#a0e08a" d="M57.8,9.7c0,3.9,0.1,3.6,0,3.6C57.8,9.4,57.7,9.7,57.8,9.7z"/><path fill="#a1e08b" d="M57.9,9.7c0,3.9,0.1,3.6,0,3.6C57.8,9.4,57.8,9.7,57.9,9.7z"/><path fill="#a2e08c" d="M57.9,9.7c0,3.9,0,3.6,0,3.6C57.9,9.4,57.8,9.7,57.9,9.7z"/><path fill="#a3e08d" d="M58,9.7c0,3.9,0,3.6,0,3.6C57.9,9.4,57.9,9.7,58,9.7z"/><path fill="#a4e08e" d="M58,9.7c0,3.9,0.1,3.6,0,3.6C58,9.4,57.9,9.7,58,9.7z"/><path fill="#a5e08e" d="M58.1,9.7c0,3.9,0,3.6,0,3.6C58,9.4,58,9.7,58.1,9.7z"/><path fill="#a6e08f" d="M58.1,9.7c0,3.9,0,3.6,0,3.6C58.1,9.4,58,9.7,58.1,9.7z"/><path fill="#a7e090" d="M58.2,9.7c0,3.9,0,3.6,0,3.6C58.1,9.4,58.1,9.7,58.2,9.7z"/><path fill="#a8e191" d="M58.2,9.7c0,3.9,0.1,3.6,0,3.6C58.2,9.4,58.1,9.7,58.2,9.7z"/><path fill="#a9e192" d="M58.2,9.7c0,3.9,0,3.6,0,3.6C58.2,9.4,58.2,9.7,58.2,9.7z"/><path fill="#aae193" d="M58.3,9.7c0,3.9,0,3.6,0,3.6C58.2,9.4,58.2,9.7,58.3,9.7z"/><path fill="#abe194" d="M58.3,9.7c0,3.9,0,3.6,0,3.6C58.3,9.4,58.2,9.7,58.3,9.7z"/><path fill="#ace194" d="M58.4,9.7c0,3.9,0.1,3.6,0,3.6C58.3,9.4,58.3,9.7,58.4,9.7z"/><path fill="#ade195" d="M58.4,9.7c0,3.9,0,3.6,0,3.6C58.4,9.4,58.3,9.7,58.4,9.7z"/><path fill="#aee196" d="M58.5,9.7c0,3.9,0,3.6,0,3.6C58.4,9.4,58.4,9.7,58.5,9.7z"/><path fill="#afe197" d="M58.5,9.7c0,3.9,0,3.6,0,3.6C58.5,9.4,58.4,9.7,58.5,9.7z"/><path fill="#b1e298" d="M58.6,9.7c0,3.9,0.1,3.6,0,3.6C58.5,9.4,58.5,9.7,58.6,9.7z"/><path fill="#b2e299" d="M58.6,9.7c0,3.9,0,3.6,0,3.6C58.6,9.4,58.5,9.7,58.6,9.7z"/><path fill="#b3e29a" d="M58.7,9.7c0,3.9,0,3.6,0,3.6C58.6,9.4,58.6,9.7,58.7,9.7z"/><path fill="#b4e29b" d="M58.7,9.7c0,3.9,0,3.6,0,3.6C58.7,9.4,58.6,9.7,58.7,9.7z"/><path fill="#b5e29b" d="M58.8,9.7c0,3.9,0.1,3.6,0,3.6C58.7,9.4,58.7,9.7,58.8,9.7z"/><path fill="#b6e29c" d="M58.8,9.7c0,3.9,0,3.6,0,3.6C58.8,9.4,58.7,9.7,58.8,9.7z"/><path fill="#b7e29d" d="M58.9,9.7c0,3.9,0,3.6,0,3.6C58.8,9.4,58.8,9.7,58.9,9.7z"/><path fill="#b8e29e" d="M58.9,9.7c0,3.9,0.1,3.6,0,3.6C58.9,9.4,58.8,9.7,58.9,9.7z"/><path fill="#b9e39f" d="M59,9.7c0,3.9,0.1,3.6,0,3.6C58.9,9.4,58.9,9.7,59,9.7z"/><path fill="#bae3a0" d="M59,9.7c0,3.9,0,3.6,0,3.6C59,9.4,58.9,9.7,59,9.7z"/><path fill="#bbe3a1" d="M59.1,9.7c0,3.9,0,3.6,0,3.6C59,9.4,59,9.7,59.1,9.7z"/><path fill="#bce3a1" d="M59.1,9.7c0,3.9,0.1,3.6,0,3.6C59.1,9.4,59,9.7,59.1,9.7z"/><path fill="#bde3a2" d="M59.2,9.7c0,3.9,0.1,3.6,0,3.6C59.1,9.4,59,9.7,59.2,9.7z"/><path fill="#bee3a3" d="M59.2,9.7c0,3.9,0,3.6,0,3.6C59.2,9.4,59.1,9.7,59.2,9.7z"/><path fill="#bfe3a4" d="M59.2,9.7c0,3.9,0,3.6,0,3.6C59.2,9.4,59.2,9.7,59.2,9.7z"/><path fill="#c0e3a5" d="M59.3,9.7c0,3.9,0.1,3.6,0,3.6C59.2,9.4,59.2,9.7,59.3,9.7z"/><path fill="#c1e4a6" d="M59.3,9.7c0,3.9,0.1,3.6,0,3.6C59.3,9.4,59.2,9.7,59.3,9.7z"/><path fill="#c2e4a7" d="M59.4,9.7c0,3.9,0,3.6,0,3.6C59.3,9.4,59.3,9.7,59.4,9.7z"/><path fill="#c3e4a7" d="M59.4,9.7c0,3.9,0,3.6,0,3.6C59.4,9.4,59.3,9.7,59.4,9.7z"/><path fill="#c4e4a8" d="M59.5,9.7c0,3.9,0.1,3.6,0,3.6C59.4,9.4,59.4,9.7,59.5,9.7z"/><path fill="#c5e4a9" d="M59.5,9.7c0,3.9,0,3.6,0,3.6C59.5,9.4,59.4,9.7,59.5,9.7z"/><path fill="#c6e4aa" d="M59.6,9.7c0,3.9,0,3.6,0,3.6C59.5,9.4,59.5,9.7,59.6,9.7z"/><path fill="#c7e4ab" d="M59.6,9.7c0,3.9,0,3.6,0,3.6C59.6,9.4,59.5,9.7,59.6,9.7z"/><path fill="#c8e4ac" d="M59.7,9.7c0,3.9,0.1,3.6,0,3.6C59.6,9.4,59.6,9.7,59.7,9.7z"/><path fill="#c9e5ad" d="M59.7,9.7c0,3.9,0,3.6,0,3.6C59.7,9.4,59.6,9.7,59.7,9.7z"/><path fill="#cae5ad" d="M59.8,9.7c0,3.9,0,3.6,0,3.6C59.7,9.4,59.7,9.7,59.8,9.7z"/><path fill="#cbe5ae" d="M59.8,9.7c0,3.9,0,3.6,0,3.6C59.8,9.4,59.7,9.7,59.8,9.7z"/><path fill="#cce5af" d="M59.9,9.7c0,3.9,0.1,3.6,0,3.6C59.8,9.4,59.8,9.7,59.9,9.7z"/><path fill="#cde5b0" d="M59.9,9.7c0,3.9,0,3.6,0,3.6C59.9,9.4,59.8,9.7,59.9,9.7z"/><path fill="#cee5b1" d="M60,9.7c0,3.9,0,3.6,0,3.6C59.9,9.4,59.9,9.7,60,9.7z"/><path fill="#cfe5b2" d="M60,9.7c0,3.9,0,3.6,0,3.6C60,9.4,59.9,9.7,60,9.7z"/><path fill="#d0e5b3" d="M60,9.7c0,3.9,0.1,3.6,0,3.6C60,9.4,60,9.7,60,9.7z"/><path fill="#d1e6b3" d="M60.1,9.7c0,3.9,0,3.6,0,3.6C60,9.4,60,9.7,60.1,9.7z"/><path fill="#d2e6b4" d="M60.2,9.7c0,3.9,0,3.6,0,3.6C60.1,9.4,60,9.7,60.2,9.7z"/><path fill="#d3e6b5" d="M60.2,9.7c0,3.9,0,3.6,0,3.6C60.2,9.4,60.1,9.7,60.2,9.7z"/><path fill="#d4e6b6" d="M60.2,9.7c0,3.9,0.1,3.6,0,3.6C60.2,9.4,60.1,9.7,60.2,9.7z"/><path fill="#d4e6b6" d="M60.2,13.3c0-4,0-3.6,0.1-3.6C60.3,13.7,60.4,13.3,60.2,13.3z"/></g></g><g><defs><circle id="o" cx="56" cy="9" r="4"/></defs><clipPath id="p"><use overflow="visible" xlink:href="#o"/></clipPath><g clip-path="url(#p)"><rect width="0" height="8" x="52" y="5" fill="#8cdd79"/><path fill="#8cdd79" d="M52.1,5c0,8.9,0,8-0.1,8C52,4.2,52,5,52.1,5z"/><path fill="#8ddd7a" d="M52.2,5c0,8.9,0,8-0.1,8C52.1,4.2,52.1,5,52.2,5z"/><path fill="#8edd7b" d="M52.3,5c0,8.9,0,8-0.1,8C52.2,4.2,52.2,5,52.3,5z"/><path fill="#8fdd7c" d="M52.4,5c0,8.9,0.1,8-0.1,8C52.3,4.2,52.3,5,52.4,5z"/><path fill="#90de7c" d="M52.6,5c0,8.9,0,8-0.1,8C52.4,4.2,52.4,5,52.6,5z"/><path fill="#91de7d" d="M52.7,5c0,8.9,0,8-0.1,8C52.6,4.2,52.5,5,52.7,5z"/><path fill="#92de7e" d="M52.8,5c0,8.9,0,8-0.1,8C52.7,4.2,52.6,5,52.8,5z"/><path fill="#93de7f" d="M52.9,5c0,8.9,0,8-0.1,8C52.8,4.2,52.7,5,52.9,5z"/><path fill="#94de80" d="M53,5c0,8.9,0,8-0.1,8C52.9,4.2,52.8,5,53,5z"/><path fill="#95de81" d="M53.1,5c0,8.9,0,8-0.1,8C53,4.2,53,5,53.1,5z"/><path fill="#96de82" d="M53.2,5c0,8.9,0,8-0.1,8C53.1,4.2,53.1,5,53.2,5z"/><path fill="#97de82" d="M53.3,5c0,8.9,0,8-0.1,8C53.2,4.2,53.2,5,53.3,5z"/><path fill="#98df83" d="M53.4,5c0,8.9,0.1,8-0.1,8C53.3,4.2,53.3,5,53.4,5z"/><path fill="#99df84" d="M53.6,5c0,8.9,0,8-0.1,8C53.4,4.2,53.4,5,53.6,5z"/><path fill="#9adf85" d="M53.7,5c0,8.9,0,8-0.1,8C53.6,4.2,53.5,5,53.7,5z"/><path fill="#9bdf86" d="M53.8,5c0,8.9,0,8-0.1,8C53.7,4.2,53.6,5,53.8,5z"/><path fill="#9cdf87" d="M53.9,5c0,8.9,0,8-0.1,8C53.8,4.2,53.7,5,53.9,5z"/><path fill="#9ddf88" d="M54,5c0,8.9,0,8-0.1,8C53.9,4.2,53.8,5,54,5z"/><path fill="#9edf88" d="M54.1,5c0,8.9,0,8-0.1,8C54,4.2,54,5,54.1,5z"/><path fill="#9fdf89" d="M54.2,5c0,8.9,0,8-0.1,8C54.1,4.2,54.1,5,54.2,5z"/><path fill="#a0e08a" d="M54.3,5c0,8.9,0,8-0.1,8C54.2,4.2,54.2,5,54.3,5z"/><path fill="#a1e08b" d="M54.4,5c0,8.9,0.1,8-0.1,8C54.3,4.2,54.3,5,54.4,5z"/><path fill="#a2e08c" d="M54.6,5c0,8.9,0,8-0.1,8C54.4,4.2,54.4,5,54.6,5z"/><path fill="#a3e08d" d="M54.7,5c0,8.9,0,8-0.1,8C54.6,4.2,54.5,5,54.7,5z"/><path fill="#a4e08e" d="M54.8,5c0,8.9,0,8-0.1,8C54.7,4.2,54.6,5,54.8,5z"/><path fill="#a5e08e" d="M54.9,5c0,8.9,0,8-0.1,8C54.8,4.2,54.7,5,54.9,5z"/><path fill="#a6e08f" d="M55,5c0,8.9,0,8-0.1,8C54.9,4.2,54.8,5,55,5z"/><path fill="#a7e090" d="M55.1,5c0,8.9,0,8-0.1,8C55,4.2,55,5,55.1,5z"/><path fill="#a8e191" d="M55.2,5c0,8.9,0,8-0.1,8C55.1,4.2,55.1,5,55.2,5z"/><path fill="#a9e192" d="M55.3,5c0,8.9,0,8-0.1,8C55.2,4.2,55.2,5,55.3,5z"/><path fill="#aae193" d="M55.4,5c0,8.9,0.1,8-0.1,8C55.3,4.2,55.3,5,55.4,5z"/><path fill="#abe194" d="M55.6,5c0,8.9,0,8-0.1,8C55.4,4.2,55.4,5,55.6,5z"/><path fill="#ace194" d="M55.7,5c0,8.9,0,8-0.1,8C55.6,4.2,55.5,5,55.7,5z"/><path fill="#ade195" d="M55.8,5c0,8.9,0,8-0.1,8C55.7,4.2,55.6,5,55.8,5z"/><path fill="#aee196" d="M55.9,5c0,8.9,0,8-0.1,8C55.8,4.2,55.7,5,55.9,5z"/><path fill="#afe197" d="M56,5c0,8.9,0,8-0.1,8C55.9,4.2,55.8,5,56,5z"/><path fill="#b1e298" d="M56.1,5c0,8.9,0,8-0.1,8C56,4.2,56,5,56.1,5z"/><path fill="#b2e299" d="M56.2,5c0,8.9,0,8-0.1,8C56.1,4.2,56.1,5,56.2,5z"/><path fill="#b3e29a" d="M56.3,5c0,8.9,0,8-0.1,8C56.2,4.2,56.2,5,56.3,5z"/><path fill="#b4e29b" d="M56.4,5c0,8.9,0.1,8-0.1,8C56.3,4.2,56.3,5,56.4,5z"/><path fill="#b5e29b" d="M56.6,5c0,8.9,0,8-0.1,8C56.4,4.2,56.4,5,56.6,5z"/><path fill="#b6e29c" d="M56.7,5c0,8.9,0,8-0.1,8C56.6,4.2,56.5,5,56.7,5z"/><path fill="#b7e29d" d="M56.8,5c0,8.9,0,8-0.1,8C56.7,4.2,56.6,5,56.8,5z"/><path fill="#b8e29e" d="M56.9,5c0,8.9,0,8-0.1,8C56.8,4.2,56.7,5,56.9,5z"/><path fill="#b9e39f" d="M57,5c0,8.9,0,8-0.1,8C56.9,4.2,56.8,5,57,5z"/><path fill="#bae3a0" d="M57.1,5c0,8.9,0,8-0.1,8C57,4.2,57,5,57.1,5z"/><path fill="#bbe3a1" d="M57.2,5c0,8.9,0,8-0.1,8C57.1,4.2,57.1,5,57.2,5z"/><path fill="#bce3a1" d="M57.3,5c0,8.9,0,8-0.1,8C57.2,4.2,57.2,5,57.3,5z"/><path fill="#bde3a2" d="M57.4,5c0,8.9,0.1,8-0.1,8C57.3,4.2,57.3,5,57.4,5z"/><path fill="#bee3a3" d="M57.6,5c0,8.9,0,8-0.1,8C57.4,4.2,57.4,5,57.6,5z"/><path fill="#bfe3a4" d="M57.7,5c0,8.9,0,8-0.1,8C57.6,4.2,57.5,5,57.7,5z"/><path fill="#c0e3a5" d="M57.8,5c0,8.9,0,8-0.1,8C57.7,4.2,57.6,5,57.8,5z"/><path fill="#c1e4a6" d="M57.9,5c0,8.9,0,8-0.1,8C57.8,4.2,57.7,5,57.9,5z"/><path fill="#c2e4a7" d="M58,5c0,8.9,0,8-0.1,8C57.9,4.2,57.8,5,58,5z"/><path fill="#c3e4a7" d="M58.1,5c0,8.9,0,8-0.1,8C58,4.2,58,5,58.1,5z"/><path fill="#c4e4a8" d="M58.2,5c0,8.9,0,8-0.1,8C58.1,4.2,58.1,5,58.2,5z"/><path fill="#c5e4a9" d="M58.3,5c0,8.9,0,8-0.1,8C58.2,4.2,58.2,5,58.3,5z"/><path fill="#c6e4aa" d="M58.4,5c0,8.9,0.1,8-0.1,8C58.3,4.2,58.3,5,58.4,5z"/><path fill="#c7e4ab" d="M58.6,5c0,8.9,0,8-0.1,8C58.4,4.2,58.4,5,58.6,5z"/><path fill="#c8e4ac" d="M58.7,5c0,8.9,0,8-0.1,8C58.6,4.2,58.5,5,58.7,5z"/><path fill="#c9e5ad" d="M58.8,5c0,8.9,0,8-0.1,8C58.7,4.2,58.6,5,58.8,5z"/><path fill="#cae5ad" d="M58.9,5c0,8.9,0,8-0.1,8C58.8,4.2,58.7,5,58.9,5z"/><path fill="#cbe5ae" d="M59,5c0,8.9,0,8-0.1,8C58.9,4.2,58.8,5,59,5z"/><path fill="#cce5af" d="M59.1,5c0,8.9,0,8-0.1,8C59,4.2,59,5,59.1,5z"/><path fill="#cde5b0" d="M59.2,5c0,8.9,0,8-0.1,8C59.1,4.2,59.1,5,59.2,5z"/><path fill="#cee5b1" d="M59.3,5c0,8.9,0,8-0.1,8C59.2,4.2,59.2,5,59.3,5z"/><path fill="#cfe5b2" d="M59.4,5c0,8.9,0.1,8-0.1,8C59.3,4.2,59.3,5,59.4,5z"/><path fill="#d0e5b3" d="M59.6,5c0,8.9,0,8-0.1,8C59.4,4.2,59.4,5,59.6,5z"/><path fill="#d1e6b3" d="M59.7,5c0,8.9,0,8-0.1,8C59.6,4.2,59.5,5,59.7,5z"/><path fill="#d2e6b4" d="M59.8,5c0,8.9,0,8-0.1,8C59.7,4.2,59.6,5,59.8,5z"/><path fill="#d3e6b5" d="M59.9,5c0,8.9,0,8-0.1,8C59.8,4.2,59.7,5,59.9,5z"/><path fill="#d4e6b6" d="M60,5c0,8.9,0,8-0.1,8C59.9,4.2,59.8,5,60,5z"/></g></g><g><defs><path id="q" d="M46,11V9c0-0.6,0.4-1,1-1s1,0.4,1,1v2c0,0.6-0.4,1-1,1S46,11.6,46,11z"/></defs><clipPath id="r"><use overflow="visible" xlink:href="#q"/></clipPath><g clip-path="url(#r)"><rect width="0" height="4" x="46" y="8" fill="#8cdd79"/><rect width="0" height="4" x="46" y="8" fill="#8cdd79"/><rect width="0" height="4" x="46" y="8" fill="#8ddd7a"/><rect width="0" height="4" x="46.1" y="8" fill="#8edd7b"/><rect width="0" height="4" x="46.1" y="8" fill="#8fdd7c"/><rect width="0" height="4" x="46.1" y="8" fill="#90de7c"/><rect width="0" height="4" x="46.1" y="8" fill="#91de7d"/><rect width="0" height="4" x="46.2" y="8" fill="#92de7e"/><rect width="0" height="4" x="46.2" y="8" fill="#93de7f"/><rect width="0" height="4" x="46.2" y="8" fill="#94de80"/><rect width="0" height="4" x="46.2" y="8" fill="#95de81"/><rect width="0" height="4" x="46.3" y="8" fill="#96de82"/><rect width="0" height="4" x="46.3" y="8" fill="#97de82"/><rect width="0" height="4" x="46.3" y="8" fill="#98df83"/><rect width="0" height="4" x="46.4" y="8" fill="#99df84"/><rect width="0" height="4" x="46.4" y="8" fill="#9adf85"/><rect width="0" height="4" x="46.4" y="8" fill="#9bdf86"/><rect width="0" height="4" x="46.4" y="8" fill="#9cdf87"/><rect width="0" height="4" x="46.5" y="8" fill="#9ddf88"/><rect width="0" height="4" x="46.5" y="8" fill="#9edf88"/><rect width="0" height="4" x="46.5" y="8" fill="#9fdf89"/><rect width="0" height="4" x="46.6" y="8" fill="#a0e08a"/><rect width="0" height="4" x="46.6" y="8" fill="#a1e08b"/><rect width="0" height="4" x="46.6" y="8" fill="#a2e08c"/><rect width="0" height="4" x="46.6" y="8" fill="#a3e08d"/><rect width="0" height="4" x="46.7" y="8" fill="#a4e08e"/><rect width="0" height="4" x="46.7" y="8" fill="#a5e08e"/><rect width="0" height="4" x="46.7" y="8" fill="#a6e08f"/><rect width="0" height="4" x="46.8" y="8" fill="#a7e090"/><rect width="0" height="4" x="46.8" y="8" fill="#a8e191"/><rect width="0" height="4" x="46.8" y="8" fill="#a9e192"/><rect width="0" height="4" x="46.8" y="8" fill="#aae193"/><rect width="0" height="4" x="46.9" y="8" fill="#abe194"/><rect width="0" height="4" x="46.9" y="8" fill="#ace194"/><rect width="0" height="4" x="46.9" y="8" fill="#ade195"/><rect width="0" height="4" x="46.9" y="8" fill="#aee196"/><rect width="0" height="4" x="47" y="8" fill="#afe197"/><rect width="0" height="4" x="47" y="8" fill="#b1e298"/><rect width="0" height="4" x="47" y="8" fill="#b2e299"/><rect width="0" height="4" x="47.1" y="8" fill="#b3e29a"/><rect width="0" height="4" x="47.1" y="8" fill="#b4e29b"/><rect width="0" height="4" x="47.1" y="8" fill="#b5e29b"/><rect width="0" height="4" x="47.1" y="8" fill="#b6e29c"/><rect width="0" height="4" x="47.2" y="8" fill="#b7e29d"/><rect width="0" height="4" x="47.2" y="8" fill="#b8e29e"/><rect width="0" height="4" x="47.2" y="8" fill="#b9e39f"/><rect width="0" height="4" x="47.2" y="8" fill="#bae3a0"/><rect width="0" height="4" x="47.3" y="8" fill="#bbe3a1"/><rect width="0" height="4" x="47.3" y="8" fill="#bce3a1"/><rect width="0" height="4" x="47.3" y="8" fill="#bde3a2"/><rect width="0" height="4" x="47.4" y="8" fill="#bee3a3"/><rect width="0" height="4" x="47.4" y="8" fill="#bfe3a4"/><rect width="0" height="4" x="47.4" y="8" fill="#c0e3a5"/><rect width="0" height="4" x="47.4" y="8" fill="#c1e4a6"/><rect width="0" height="4" x="47.5" y="8" fill="#c2e4a7"/><rect width="0" height="4" x="47.5" y="8" fill="#c3e4a7"/><rect width="0" height="4" x="47.5" y="8" fill="#c4e4a8"/><rect width="0" height="4" x="47.6" y="8" fill="#c5e4a9"/><rect width="0" height="4" x="47.6" y="8" fill="#c6e4aa"/><rect width="0" height="4" x="47.6" y="8" fill="#c7e4ab"/><rect width="0" height="4" x="47.6" y="8" fill="#c8e4ac"/><rect width="0" height="4" x="47.7" y="8" fill="#c9e5ad"/><rect width="0" height="4" x="47.7" y="8" fill="#cae5ad"/><rect width="0" height="4" x="47.7" y="8" fill="#cbe5ae"/><rect width="0" height="4" x="47.8" y="8" fill="#cce5af"/><rect width="0" height="4" x="47.8" y="8" fill="#cde5b0"/><rect width="0" height="4" x="47.8" y="8" fill="#cee5b1"/><rect width="0" height="4" x="47.8" y="8" fill="#cfe5b2"/><rect width="0" height="4" x="47.9" y="8" fill="#d0e5b3"/><rect width="0" height="4" x="47.9" y="8" fill="#d1e6b3"/><rect width="0" height="4" x="47.9" y="8" fill="#d2e6b4"/><rect width="0" height="4" x="47.9" y="8" fill="#d3e6b5"/><rect width="0" height="4" x="48" y="8" fill="#d4e6b6"/></g></g><g><defs><circle id="s" cx="47" cy="15" r="5"/></defs><clipPath id="t"><use overflow="visible" xlink:href="#s"/></clipPath><g clip-path="url(#t)"><rect width="0" height="10" x="42" y="10" fill="#8cdd79"/><path fill="#8cdd79" d="M42.1,10c0,11,0.1,10-0.1,10C42,9,41.9,10,42.1,10z"/><path fill="#8ddd7a" d="M42.3,10c0,11,0.1,10-0.1,10C42.1,9,42.1,10,42.3,10z"/><path fill="#8edd7b" d="M42.4,10c0,11,0.1,10-0.1,10C42.3,9,42.2,10,42.4,10z"/><path fill="#8fdd7c" d="M42.6,10c0,11,0.1,10-0.1,10C42.4,9,42.4,10,42.6,10z"/><path fill="#90de7c" d="M42.7,10c0,11,0.1,10-0.1,10C42.6,9,42.5,10,42.7,10z"/><path fill="#91de7d" d="M42.8,10c0,11,0.1,10-0.1,10C42.7,9,42.6,10,42.8,10z"/><path fill="#92de7e" d="M43,10c0,11,0.1,10-0.1,10C42.8,9,42.8,10,43,10z"/><path fill="#93de7f" d="M43.1,10c0,11,0.1,10-0.1,10C43,9,42.9,10,43.1,10z"/><path fill="#94de80" d="M43.2,10c0,11,0.1,10-0.1,10C43.1,9,43,10,43.2,10z"/><path fill="#95de81" d="M43.4,10c0,11,0.1,10-0.1,10C43.2,9,43.2,10,43.4,10z"/><path fill="#96de82" d="M43.5,10c0,11,0.1,10-0.1,10C43.4,9,43.3,10,43.5,10z"/><path fill="#97de82" d="M43.7,10c0,11,0.1,10-0.1,10C43.5,9,43.5,10,43.7,10z"/><path fill="#98df83" d="M43.8,10c0,11,0.1,10-0.1,10C43.7,9,43.6,10,43.8,10z"/><path fill="#99df84" d="M43.9,10c0,11,0.1,10-0.1,10C43.8,9,43.7,10,43.9,10z"/><path fill="#9adf85" d="M44.1,10c0,11,0.1,10-0.1,10C43.9,9,43.9,10,44.1,10z"/><path fill="#9bdf86" d="M44.2,10c0,11,0.1,10-0.1,10C44.1,9,44,10,44.2,10z"/><path fill="#9cdf87" d="M44.4,10c0,11,0.1,10-0.1,10C44.2,9,44.2,10,44.4,10z"/><path fill="#9ddf88" d="M44.5,10c0,11,0.1,10-0.1,10C44.4,9,44.3,10,44.5,10z"/><path fill="#9edf88" d="M44.6,10c0,11,0.1,10-0.1,10C44.5,9,44.4,10,44.6,10z"/><path fill="#9fdf89" d="M44.8,10c0,11,0.1,10-0.1,10C44.6,9,44.6,10,44.8,10z"/><path fill="#a0e08a" d="M44.9,10c0,11,0.1,10-0.1,10C44.8,9,44.7,10,44.9,10z"/><path fill="#a1e08b" d="M45.1,10c0,11,0.1,10-0.1,10C44.9,9,44.9,10,45.1,10z"/><path fill="#a2e08c" d="M45.2,10c0,11,0.1,10-0.1,10C45.1,9,45,10,45.2,10z"/><path fill="#a3e08d" d="M45.3,10c0,11,0.1,10-0.1,10C45.2,9,45.1,10,45.3,10z"/><path fill="#a4e08e" d="M45.5,10c0,11,0.1,10-0.1,10C45.3,9,45.3,10,45.5,10z"/><path fill="#a5e08e" d="M45.6,10c0,11,0.1,10-0.1,10C45.5,9,45.4,10,45.6,10z"/><path fill="#a6e08f" d="M45.8,10c0,11,0.1,10-0.1,10C45.6,9,45.5,10,45.8,10z"/><path fill="#a7e090" d="M45.9,10c0,11,0.1,10-0.1,10C45.8,9,45.7,10,45.9,10z"/><path fill="#a8e191" d="M46,10c0,11,0.1,10-0.1,10C45.9,9,45.8,10,46,10z"/><path fill="#a9e192" d="M46.2,10c0,11,0.1,10-0.1,10C46,9,46,10,46.2,10z"/><path fill="#aae193" d="M46.3,10c0,11,0.1,10-0.1,10C46.2,9,46.1,10,46.3,10z"/><path fill="#abe194" d="M46.4,10c0,11,0.1,10-0.1,10C46.3,9,46.2,10,46.4,10z"/><path fill="#ace194" d="M46.6,10c0,11,0.1,10-0.1,10C46.4,9,46.4,10,46.6,10z"/><path fill="#ade195" d="M46.7,10c0,11,0.1,10-0.1,10C46.6,9,46.5,10,46.7,10z"/><path fill="#aee196" d="M46.9,10c0,11,0.1,10-0.1,10C46.7,9,46.7,10,46.9,10z"/><path fill="#afe197" d="M47,10c0,11,0.1,10-0.1,10C46.9,9,46.8,10,47,10z"/><path fill="#b1e298" d="M47.1,10c0,11,0.1,10-0.1,10C47,9,46.9,10,47.1,10z"/><path fill="#b2e299" d="M47.3,10c0,11,0.1,10-0.1,10C47.1,9,47.1,10,47.3,10z"/><path fill="#b3e29a" d="M47.4,10c0,11,0.1,10-0.1,10C47.3,9,47.2,10,47.4,10z"/><path fill="#b4e29b" d="M47.6,10c0,11,0.1,10-0.1,10C47.4,9,47.4,10,47.6,10z"/><path fill="#b5e29b" d="M47.7,10c0,11,0.1,10-0.1,10C47.6,9,47.5,10,47.7,10z"/><path fill="#b6e29c" d="M47.8,10c0,11,0.1,10-0.1,10C47.7,9,47.6,10,47.8,10z"/><path fill="#b7e29d" d="M48,10c0,11,0.1,10-0.1,10C47.8,9,47.8,10,48,10z"/><path fill="#b8e29e" d="M48.1,10c0,11,0.1,10-0.1,10C48,9,47.9,10,48.1,10z"/><path fill="#b9e39f" d="M48.2,10c0,11,0.1,10-0.1,10C48.1,9,48,10,48.2,10z"/><path fill="#bae3a0" d="M48.4,10c0,11,0.1,10-0.1,10C48.2,9,48.2,10,48.4,10z"/><path fill="#bbe3a1" d="M48.5,10c0,11,0.1,10-0.1,10C48.4,9,48.3,10,48.5,10z"/><path fill="#bce3a1" d="M48.7,10c0,11,0.1,10-0.1,10C48.5,9,48.5,10,48.7,10z"/><path fill="#bde3a2" d="M48.8,10c0,11,0.1,10-0.1,10C48.7,9,48.6,10,48.8,10z"/><path fill="#bee3a3" d="M48.9,10c0,11,0.1,10-0.1,10C48.8,9,48.7,10,48.9,10z"/><path fill="#bfe3a4" d="M49.1,10c0,11,0.1,10-0.1,10C48.9,9,48.9,10,49.1,10z"/><path fill="#c0e3a5" d="M49.2,10c0,11,0.1,10-0.1,10C49.1,9,49,10,49.2,10z"/><path fill="#c1e4a6" d="M49.4,10c0,11,0.1,10-0.1,10C49.2,9,49.2,10,49.4,10z"/><path fill="#c2e4a7" d="M49.5,10c0,11,0.1,10-0.1,10C49.4,9,49.3,10,49.5,10z"/><path fill="#c3e4a7" d="M49.6,10c0,11,0.1,10-0.1,10C49.5,9,49.4,10,49.6,10z"/><path fill="#c4e4a8" d="M49.8,10c0,11,0.1,10-0.1,10C49.6,9,49.6,10,49.8,10z"/><path fill="#c5e4a9" d="M49.9,10c0,11,0.1,10-0.1,10C49.8,9,49.7,10,49.9,10z"/><path fill="#c6e4aa" d="M50.1,10c0,11,0.1,10-0.1,10C49.9,9,49.9,10,50.1,10z"/><path fill="#c7e4ab" d="M50.2,10c0,11,0.1,10-0.1,10C50.1,9,50,10,50.2,10z"/><path fill="#c8e4ac" d="M50.3,10c0,11,0.1,10-0.1,10C50.2,9,50.1,10,50.3,10z"/><path fill="#c9e5ad" d="M50.5,10c0,11,0.1,10-0.1,10C50.3,9,50.3,10,50.5,10z"/><path fill="#cae5ad" d="M50.6,10c0,11,0.1,10-0.1,10C50.5,9,50.4,10,50.6,10z"/><path fill="#cbe5ae" d="M50.8,10c0,11,0.1,10-0.1,10C50.6,9,50.5,10,50.8,10z"/><path fill="#cce5af" d="M50.9,10c0,11,0.1,10-0.1,10C50.8,9,50.7,10,50.9,10z"/><path fill="#cde5b0" d="M51,10c0,11,0.1,10-0.1,10C50.9,9,50.8,10,51,10z"/><path fill="#cee5b1" d="M51.2,10c0,11,0.1,10-0.1,10C51,9,51,10,51.2,10z"/><path fill="#cfe5b2" d="M51.3,10c0,11,0.1,10-0.1,10C51.2,9,51.1,10,51.3,10z"/><path fill="#d0e5b3" d="M51.4,10c0,11,0.1,10-0.1,10C51.3,9,51.2,10,51.4,10z"/><path fill="#d1e6b3" d="M51.6,10c0,11,0.1,10-0.1,10C51.4,9,51.4,10,51.6,10z"/><path fill="#d2e6b4" d="M51.7,10c0,11,0.1,10-0.1,10C51.6,9,51.5,10,51.7,10z"/><path fill="#d3e6b5" d="M51.9,10c0,11,0.1,10-0.1,10C51.7,9,51.7,10,51.9,10z"/><path fill="#d4e6b6" d="M52,10c0,11,0.1,10-0.1,10C51.9,9,51.8,10,52,10z"/></g></g><g><defs><path id="u" d="M50.5,17.1l1.5,1.4c0.4,0.4,0.4,1.1,0,1.5s-1.1,0.4-1.5,0l-1.4-1.4c-0.4-0.4-0.4-1,0-1.4
			C49.5,16.7,50.1,16.7,50.5,17.1z"/></defs><clipPath id="v"><use overflow="visible" xlink:href="#u"/></clipPath><g clip-path="url(#v)"><path fill="#8cdd79" d="M48.8 16.7c0 4 0 3.6-.1 3.6C48.7 16.3 48.7 16.7 48.8 16.7zM48.9 16.7c0 3.9 0 3.6 0 3.6C48.8 16.4 48.8 16.7 48.9 16.7z"/><path fill="#8ddd7a" d="M48.9,16.7c0,3.9,0.1,3.6,0,3.6C48.9,16.4,48.8,16.7,48.9,16.7z"/><path fill="#8edd7b" d="M49,16.7c0,3.9,0,3.6,0,3.6C48.9,16.4,48.9,16.7,49,16.7z"/><path fill="#8fdd7c" d="M49,16.7c0,3.9,0,3.6,0,3.6C49,16.4,48.9,16.7,49,16.7z"/><path fill="#90de7c" d="M49.1,16.7c0,3.9,0,3.6,0,3.6C49,16.4,49,16.7,49.1,16.7z"/><path fill="#91de7d" d="M49.1,16.7c0,3.9,0.1,3.6,0,3.6C49.1,16.4,49,16.7,49.1,16.7z"/><path fill="#92de7e" d="M49.2,16.7c0,3.9,0,3.6,0,3.6C49.1,16.4,49.1,16.7,49.2,16.7z"/><path fill="#93de7f" d="M49.2,16.7c0,3.9,0,3.6,0,3.6C49.2,16.4,49.1,16.7,49.2,16.7z"/><path fill="#94de80" d="M49.3,16.7c0,3.9,0,3.6,0,3.6C49.2,16.4,49.2,16.7,49.3,16.7z"/><path fill="#95de81" d="M49.3,16.7c0,3.9,0.1,3.6,0,3.6C49.3,16.4,49.2,16.7,49.3,16.7z"/><path fill="#96de82" d="M49.3,16.7c0,3.9,0,3.6,0,3.6C49.3,16.4,49.2,16.7,49.3,16.7z"/><path fill="#97de82" d="M49.4,16.7c0,3.9,0,3.6,0,3.6C49.3,16.4,49.3,16.7,49.4,16.7z"/><path fill="#98df83" d="M49.4,16.7c0,3.9,0.1,3.6,0,3.6C49.4,16.4,49.3,16.7,49.4,16.7z"/><path fill="#99df84" d="M49.5,16.7c0,3.9,0.1,3.6,0,3.6C49.4,16.4,49.4,16.7,49.5,16.7z"/><path fill="#9adf85" d="M49.5,16.7c0,3.9,0,3.6,0,3.6C49.5,16.4,49.4,16.7,49.5,16.7z"/><path fill="#9bdf86" d="M49.6,16.7c0,3.9,0,3.6,0,3.6C49.5,16.4,49.5,16.7,49.6,16.7z"/><path fill="#9cdf87" d="M49.6,16.7c0,3.9,0.1,3.6,0,3.6C49.6,16.4,49.5,16.7,49.6,16.7z"/><path fill="#9ddf88" d="M49.7,16.7c0,3.9,0.1,3.6,0,3.6C49.6,16.4,49.6,16.7,49.7,16.7z"/><path fill="#9edf88" d="M49.7,16.7c0,3.9,0,3.6,0,3.6C49.7,16.4,49.6,16.7,49.7,16.7z"/><path fill="#9fdf89" d="M49.8,16.7c0,3.9,0,3.6,0,3.6C49.7,16.4,49.7,16.7,49.8,16.7z"/><path fill="#a0e08a" d="M49.8,16.7c0,3.9,0.1,3.6,0,3.6C49.8,16.4,49.7,16.7,49.8,16.7z"/><path fill="#a1e08b" d="M49.9,16.7c0,3.9,0.1,3.6,0,3.6C49.8,16.4,49.8,16.7,49.9,16.7z"/><path fill="#a2e08c" d="M49.9,16.7c0,3.9,0,3.6,0,3.6C49.9,16.4,49.8,16.7,49.9,16.7z"/><path fill="#a3e08d" d="M50,16.7c0,3.9,0,3.6,0,3.6C49.9,16.4,49.9,16.7,50,16.7z"/><path fill="#a4e08e" d="M50,16.7c0,3.9,0.1,3.6,0,3.6C50,16.4,49.9,16.7,50,16.7z"/><path fill="#a5e08e" d="M50.1,16.7c0,3.9,0,3.6,0,3.6C50,16.4,50,16.7,50.1,16.7z"/><path fill="#a6e08f" d="M50.1,16.7c0,3.9,0,3.6,0,3.6C50.1,16.4,50,16.7,50.1,16.7z"/><path fill="#a7e090" d="M50.2,16.7c0,3.9,0,3.6,0,3.6C50.1,16.4,50.1,16.7,50.2,16.7z"/><path fill="#a8e191" d="M50.2,16.7c0,3.9,0.1,3.6,0,3.6C50.2,16.4,50.1,16.7,50.2,16.7z"/><path fill="#a9e192" d="M50.2,16.7c0,3.9,0,3.6,0,3.6C50.2,16.4,50.2,16.7,50.2,16.7z"/><path fill="#aae193" d="M50.3,16.7c0,3.9,0,3.6,0,3.6C50.2,16.4,50.2,16.7,50.3,16.7z"/><path fill="#abe194" d="M50.3,16.7c0,3.9,0,3.6,0,3.6C50.3,16.4,50.2,16.7,50.3,16.7z"/><path fill="#ace194" d="M50.4,16.7c0,3.9,0.1,3.6,0,3.6C50.3,16.4,50.3,16.7,50.4,16.7z"/><path fill="#ade195" d="M50.4,16.7c0,3.9,0,3.6,0,3.6C50.4,16.4,50.3,16.7,50.4,16.7z"/><path fill="#aee196" d="M50.5,16.7c0,3.9,0,3.6,0,3.6C50.4,16.4,50.4,16.7,50.5,16.7z"/><path fill="#afe197" d="M50.5,16.7c0,3.9,0,3.6,0,3.6C50.5,16.4,50.4,16.7,50.5,16.7z"/><path fill="#b1e298" d="M50.6,16.7c0,3.9,0.1,3.6,0,3.6C50.5,16.4,50.5,16.7,50.6,16.7z"/><path fill="#b2e299" d="M50.6,16.7c0,3.9,0,3.6,0,3.6C50.6,16.4,50.5,16.7,50.6,16.7z"/><path fill="#b3e29a" d="M50.7,16.7c0,3.9,0,3.6,0,3.6C50.6,16.4,50.6,16.7,50.7,16.7z"/><path fill="#b4e29b" d="M50.7,16.7c0,3.9,0,3.6,0,3.6C50.7,16.4,50.6,16.7,50.7,16.7z"/><path fill="#b5e29b" d="M50.8,16.7c0,3.9,0.1,3.6,0,3.6C50.7,16.4,50.7,16.7,50.8,16.7z"/><path fill="#b6e29c" d="M50.8,16.7c0,3.9,0,3.6,0,3.6C50.8,16.4,50.7,16.7,50.8,16.7z"/><path fill="#b7e29d" d="M50.9,16.7c0,3.9,0,3.6,0,3.6C50.8,16.4,50.8,16.7,50.9,16.7z"/><path fill="#b8e29e" d="M50.9,16.7c0,3.9,0.1,3.6,0,3.6C50.9,16.4,50.8,16.7,50.9,16.7z"/><path fill="#b9e39f" d="M51,16.7c0,3.9,0.1,3.6,0,3.6C50.9,16.4,50.9,16.7,51,16.7z"/><path fill="#bae3a0" d="M51,16.7c0,3.9,0,3.6,0,3.6C51,16.4,50.9,16.7,51,16.7z"/><path fill="#bbe3a1" d="M51.1,16.7c0,3.9,0,3.6,0,3.6C51,16.4,51,16.7,51.1,16.7z"/><path fill="#bce3a1" d="M51.1,16.7c0,3.9,0.1,3.6,0,3.6C51.1,16.4,51,16.7,51.1,16.7z"/><path fill="#bde3a2" d="M51.2,16.7c0,3.9,0.1,3.6,0,3.6C51.1,16.4,51,16.7,51.2,16.7z"/><path fill="#bee3a3" d="M51.2,16.7c0,3.9,0,3.6,0,3.6C51.2,16.4,51.1,16.7,51.2,16.7z"/><path fill="#bfe3a4" d="M51.2,16.7c0,3.9,0,3.6,0,3.6C51.2,16.4,51.2,16.7,51.2,16.7z"/><path fill="#c0e3a5" d="M51.3,16.7c0,3.9,0.1,3.6,0,3.6C51.2,16.4,51.2,16.7,51.3,16.7z"/><path fill="#c1e4a6" d="M51.3,16.7c0,3.9,0.1,3.6,0,3.6C51.3,16.4,51.2,16.7,51.3,16.7z"/><path fill="#c2e4a7" d="M51.4,16.7c0,3.9,0,3.6,0,3.6C51.3,16.4,51.3,16.7,51.4,16.7z"/><path fill="#c3e4a7" d="M51.4,16.7c0,3.9,0,3.6,0,3.6C51.4,16.4,51.3,16.7,51.4,16.7z"/><path fill="#c4e4a8" d="M51.5,16.7c0,3.9,0.1,3.6,0,3.6C51.4,16.4,51.4,16.7,51.5,16.7z"/><path fill="#c5e4a9" d="M51.5,16.7c0,3.9,0,3.6,0,3.6C51.5,16.4,51.4,16.7,51.5,16.7z"/><path fill="#c6e4aa" d="M51.6,16.7c0,3.9,0,3.6,0,3.6C51.5,16.4,51.5,16.7,51.6,16.7z"/><path fill="#c7e4ab" d="M51.6,16.7c0,3.9,0,3.6,0,3.6C51.6,16.4,51.5,16.7,51.6,16.7z"/><path fill="#c8e4ac" d="M51.7,16.7c0,3.9,0.1,3.6,0,3.6C51.6,16.4,51.6,16.7,51.7,16.7z"/><path fill="#c9e5ad" d="M51.7,16.7c0,3.9,0,3.6,0,3.6C51.7,16.4,51.6,16.7,51.7,16.7z"/><path fill="#cae5ad" d="M51.8,16.7c0,3.9,0,3.6,0,3.6C51.7,16.4,51.7,16.7,51.8,16.7z"/><path fill="#cbe5ae" d="M51.8,16.7c0,3.9,0,3.6,0,3.6C51.8,16.4,51.7,16.7,51.8,16.7z"/><path fill="#cce5af" d="M51.9,16.7c0,3.9,0.1,3.6,0,3.6C51.8,16.4,51.8,16.7,51.9,16.7z"/><path fill="#cde5b0" d="M51.9,16.7c0,3.9,0,3.6,0,3.6C51.9,16.4,51.8,16.7,51.9,16.7z"/><path fill="#cee5b1" d="M52,16.7c0,3.9,0,3.6,0,3.6C51.9,16.4,51.9,16.7,52,16.7z"/><path fill="#cfe5b2" d="M52,16.7c0,3.9,0,3.6,0,3.6C52,16.4,51.9,16.7,52,16.7z"/><path fill="#d0e5b3" d="M52,16.7c0,3.9,0.1,3.6,0,3.6C52,16.4,52,16.7,52,16.7z"/><path fill="#d1e6b3" d="M52.1,16.7c0,3.9,0,3.6,0,3.6C52,16.4,52,16.7,52.1,16.7z"/><path fill="#d2e6b4" d="M52.2,16.7c0,3.9,0,3.6,0,3.6C52.1,16.4,52,16.7,52.2,16.7z"/><path fill="#d3e6b5" d="M52.2,16.7c0,3.9,0,3.6,0,3.6C52.2,16.4,52.1,16.7,52.2,16.7z"/><path fill="#d4e6b6" d="M52.2,16.7c0,3.9,0.1,3.6,0,3.6C52.2,16.4,52.1,16.7,52.2,16.7z"/><path fill="#d4e6b6" d="M52.2,20.3c0-4,0-3.6,0.1-3.6C52.3,20.7,52.4,20.3,52.2,20.3z"/></g></g></svg>