<svg xmlns="http://www.w3.org/2000/svg" xmlns:xlink="http://www.w3.org/1999/xlink" id="Capa_1" width="512" height="512" enable-background="new 0 0 510 510" viewBox="0 0 510 510">
  <linearGradient id="SVGID_1_" x1="46.071" x2="135.922" y1="119.033" y2="208.883" gradientUnits="userSpaceOnUse">
    <stop offset="0" stop-color="#ff7044"/>
    <stop offset="1" stop-color="#f92814"/>
  </linearGradient>
  <linearGradient id="SVGID_2_" x1="80.351" x2="37.547" y1="156.79" y2="96.106" gradientUnits="userSpaceOnUse">
    <stop offset="0" stop-color="#ff7044" stop-opacity="0"/>
    <stop offset="1" stop-color="#ffa425"/>
  </linearGradient>
  <linearGradient id="lg1">
    <stop offset="0" stop-color="#f92814" stop-opacity="0"/>
    <stop offset="1" stop-color="#c1272d"/>
  </linearGradient>
  <linearGradient xlink:href="#lg1" id="SVGID_3_" x1="74.437" x2="169.795" y1="171.577" y2="-5.775" gradientUnits="userSpaceOnUse"/>
  <linearGradient xlink:href="#lg1" id="SVGID_4_" x1="130.273" x2="118.168" y1="203.005" y2="182.593" gradientUnits="userSpaceOnUse"/>
  <linearGradient id="lg2">
    <stop offset="0" stop-color="#7e8595"/>
    <stop offset="1" stop-color="#555a66"/>
  </linearGradient>
  <linearGradient xlink:href="#lg2" id="SVGID_5_" x1="142.479" x2="134.646" y1="170.5" y2="188.301" gradientUnits="userSpaceOnUse"/>
  <linearGradient id="SVGID_6_" x1="234.752" x2="404.373" y1="174.592" y2="344.213" gradientUnits="userSpaceOnUse">
    <stop offset="0" stop-color="#92f37f"/>
    <stop offset="1" stop-color="#4ab272"/>
  </linearGradient>
  <linearGradient id="SVGID_7_" x1="299.466" x2="218.66" y1="245.87" y2="131.31" gradientUnits="userSpaceOnUse">
    <stop offset="0" stop-color="#92f37f" stop-opacity="0"/>
    <stop offset="1" stop-color="#ffee83"/>
  </linearGradient>
  <linearGradient id="lg3">
    <stop offset="0" stop-color="#4ab272" stop-opacity="0"/>
    <stop offset="1" stop-color="#009245"/>
  </linearGradient>
  <linearGradient xlink:href="#lg3" id="SVGID_8_" x1="288.302" x2="468.319" y1="273.786" y2="-61.022" gradientUnits="userSpaceOnUse"/>
  <linearGradient xlink:href="#lg3" id="SVGID_9_" x1="426.874" x2="348.009" y1="210.626" y2="131.762" gradientUnits="userSpaceOnUse"/>
  <linearGradient xlink:href="#lg3" id="SVGID_10_" x1="365.113" x2="329.984" y1="350.429" y2="320.522" gradientUnits="userSpaceOnUse"/>
  <linearGradient xlink:href="#lg2" id="SVGID_11_" x1="768.167" x2="807.49" y1="-2808.985" y2="-2808.985" gradientTransform="rotate(161.44 298.963 -1267.626)" gradientUnits="userSpaceOnUse"/>
  <linearGradient xlink:href="#lg2" id="SVGID_12_" x1="1423.924" x2="1463.247" y1="-353.397" y2="-353.397" gradientTransform="rotate(45 352.082 -1388.431)" gradientUnits="userSpaceOnUse"/>
  <linearGradient id="SVGID_13_" x1="412.016" x2="501.866" y1="43.417" y2="133.268" gradientUnits="userSpaceOnUse">
    <stop offset="0" stop-color="#18cffc"/>
    <stop offset="1" stop-color="#4a98f7"/>
  </linearGradient>
  <linearGradient id="SVGID_14_" x1="446.296" x2="403.492" y1="81.174" y2="20.49" gradientUnits="userSpaceOnUse">
    <stop offset="0" stop-color="#18cffc" stop-opacity="0"/>
    <stop offset="1" stop-color="#65e1dc"/>
  </linearGradient>
  <linearGradient id="SVGID_15_" x1="440.382" x2="535.739" y1="95.961" y2="-81.391" gradientUnits="userSpaceOnUse">
    <stop offset="0" stop-color="#0469bc" stop-opacity="0"/>
    <stop offset="1" stop-color="#0469bc"/>
  </linearGradient>
  <linearGradient id="SVGID_16_" x1="1170.464" x2="1260.314" y1="378.762" y2="468.612" gradientTransform="rotate(16.13 650.163 -2527.403)" gradientUnits="userSpaceOnUse">
    <stop offset="0" stop-color="#ffda45"/>
    <stop offset="1" stop-color="#ffa425"/>
  </linearGradient>
  <linearGradient id="SVGID_17_" x1="1204.744" x2="1161.94" y1="416.519" y2="355.835" gradientTransform="rotate(16.13 650.163 -2527.403)" gradientUnits="userSpaceOnUse">
    <stop offset="0" stop-color="#ffda45" stop-opacity="0"/>
    <stop offset="1" stop-color="#fcee21"/>
  </linearGradient>
  <linearGradient id="SVGID_18_" x1="1198.83" x2="1294.188" y1="431.306" y2="253.955" gradientTransform="rotate(16.13 650.163 -2527.403)" gradientUnits="userSpaceOnUse">
    <stop offset="0" stop-color="#ffda45" stop-opacity="0"/>
    <stop offset="1" stop-color="#b53759"/>
  </linearGradient>
  <circle cx="72.028" cy="144.99" r="69.374" fill="url(#SVGID_1_)"/>
  <circle cx="72.028" cy="144.99" r="57.898" fill="url(#SVGID_2_)"/>
  <path fill="url(#SVGID_3_)" d="m103.061 82.932c4.679 9.338 7.316 19.877 7.316 31.033 0 38.314-31.06 69.374-69.374 69.374-11.156 0-21.695-2.637-31.033-7.316 11.39 22.733 34.9 38.341 62.058 38.341 38.314 0 69.374-31.059 69.374-69.374 0-27.158-15.608-50.668-38.341-62.058z"/>
  <path fill="url(#SVGID_4_)" d="m129.509 183.839-26.364-8.699 18.409 18.409c2.931-2.988 5.601-6.232 7.955-9.71z"/>
  <path fill="url(#SVGID_5_)" d="m96.269 151.834c4.02-10.087 15.456-15.006 25.543-10.986l56.078 22.347c10.087 4.02 15.006 15.456 10.986 25.543-4.02 10.087-15.456 15.006-25.543 10.986l-56.078-22.347c-10.087-4.019-15.006-15.455-10.986-25.543z"/>
  <circle cx="283.753" cy="223.593" r="130.965" fill="url(#SVGID_6_)"/>
  <circle cx="283.753" cy="223.593" r="109.302" fill="url(#SVGID_7_)"/>
  <path fill="url(#SVGID_8_)" d="m342.338 106.44c8.833 17.629 13.812 37.524 13.812 58.585 0 72.33-58.635 130.965-130.965 130.965-21.061 0-40.956-4.979-58.585-13.812 21.503 42.916 65.884 72.38 117.153 72.38 72.33 0 130.965-58.635 130.965-130.964 0-51.27-29.465-95.651-72.38-117.154z"/>
  <path fill="url(#SVGID_9_)" d="m414.655 227.519c.038-1.304.064-2.612.064-3.926 0-35.899-14.449-68.421-37.843-92.078l-29.635 28.59z"/>
  <path fill="url(#SVGID_10_)" d="m331.094 308.724 8.982 33.133c5.36-2.557 10.517-5.472 15.444-8.706z"/>
  <path fill="url(#SVGID_11_)" d="m309.254 302.061c10.296-3.451 21.44 2.097 24.891 12.393l19.187 57.237c3.451 10.296-2.097 21.44-12.393 24.891-10.296 3.451-21.44-2.097-24.891-12.393l-19.187-57.237c-3.451-10.296 2.097-21.44 12.393-24.891z"/>
  <path fill="url(#SVGID_12_)" d="m347.241 160.105c-7.678-7.678-7.678-20.127 0-27.806l62.109-62.109c7.678-7.678 20.127-7.678 27.806 0 7.678 7.678 7.678 20.127 0 27.806l-62.109 62.109c-7.679 7.679-20.128 7.679-27.806 0z"/>
  <circle cx="437.972" cy="69.374" r="69.374" fill="url(#SVGID_13_)"/>
  <circle cx="437.972" cy="69.374" r="57.899" fill="url(#SVGID_14_)"/>
  <path fill="url(#SVGID_15_)" d="m469.005 7.316c4.679 9.338 7.316 19.877 7.316 31.033 0 38.314-31.06 69.374-69.374 69.374-11.156 0-21.695-2.637-31.033-7.316 11.39 22.733 34.899 38.341 62.058 38.341 38.314 0 69.374-31.06 69.374-69.374 0-27.158-15.608-50.667-38.341-62.058z"/>
  <circle cx="360.051" cy="440.608" r="69.374" fill="url(#SVGID_16_)"/>
  <circle cx="360.051" cy="440.608" r="57.898" fill="url(#SVGID_17_)"/>
  <path fill="url(#SVGID_18_)" d="m407.09 389.603c1.903 10.27 1.512 21.127-1.585 31.844-10.635 36.809-49.095 58.027-85.904 47.392-10.718-3.097-20.11-8.556-27.783-15.643 4.633 25.001 22.886 46.521 48.977 54.06 36.809 10.635 75.269-10.583 85.904-47.392 7.538-26.091-.931-53.008-19.609-70.261z"/>
</svg>
