<svg xmlns="http://www.w3.org/2000/svg" viewBox="0 0 48 48"><g data-name="E=mc2"><rect width="42" height="30" x="3" y="9" fill="#df8761"/><path fill="#f29b75" d="M45,9V37H34A28,28,0,0,1,6,9Z"/><rect width="34" height="22" x="7" y="13" fill="#84b749"/><path fill="#9dcc6b" d="M41,13V33H30A20,20,0,0,1,10,13Z"/><rect width="46" height="4" x="1" y="39" fill="#df8761"/><path fill="#f29b75" d="M47,39v2H6a2,2,0,0,1-2-2Z"/><path fill="#c6c3d8" d="M11,7V9H7c0-1.62-.3-3.15,1.18-3.82A2,2,0,0,1,11,7Z"/><path fill="#dad7e5" d="M11,7V8H10A2,2,0,0,1,8.18,5.18,2,2,0,0,1,11,7Z"/><path fill="#c6c3d8" d="M41,7V9H37c0-1.62-.3-3.15,1.18-3.82A2,2,0,0,1,41,7Z"/><path fill="#dad7e5" d="M41,7V8H40a2,2,0,0,1-1.82-2.82A2,2,0,0,1,41,7Z"/><path fill="#edebf2" d="M15 30H11a1 1 0 0 1-1-1V23a1 1 0 0 1 1-1h4a1 1 0 0 1 0 2H12v1h2a1 1 0 0 1 0 2H12v1h3A1 1 0 0 1 15 30zM26 29V27.41l-.29.3a1 1 0 0 1-1.42 0l-.29-.3V29a1 1 0 0 1-2 0c0-4.16-.19-4.59.62-4.92s1 .14 2.38 1.51c1.11-1.11 1.56-1.86 2.38-1.51S28 24.94 28 29A1 1 0 0 1 26 29zM33 30H32a3 3 0 0 1 0-6h1a1 1 0 0 1 0 2H32a1 1 0 0 0 0 2h1A1 1 0 0 1 33 30zM37 23c-2.76 0-3.58.22-3.92-.62s.23-1.1 2.51-3.38H34a1 1 0 0 1 0-2h1.59A2 2 0 0 1 37 20.41l-.59.59H37A1 1 0 0 1 37 23zM20 29H18a1 1 0 0 1 0-2h2A1 1 0 0 1 20 29zM20 26H18a1 1 0 0 1 0-2h2A1 1 0 0 1 20 26z"/></g></svg>