<svg xmlns="http://www.w3.org/2000/svg" xmlns:xlink="http://www.w3.org/1999/xlink" viewBox="0 0 64 64"><defs><linearGradient id="a" x1="32" x2="50" y1="7" y2="7" gradientUnits="userSpaceOnUse"><stop offset="0" stop-color="#8cdd79"/><stop offset="1" stop-color="#d4e6b6"/></linearGradient><linearGradient id="b" x1="14" x2="32" y1="13" y2="13" xlink:href="#a"/><linearGradient id="c" x1="31" x2="33" y1="29" y2="29" gradientUnits="userSpaceOnUse"><stop offset="0" stop-color="#9b756d"/><stop offset="1" stop-color="#bc9388"/></linearGradient><linearGradient id="d" x1="15.86" x2="46.22" y1="57.99" y2="57.99" gradientUnits="userSpaceOnUse"><stop offset="0" stop-color="#d1a788"/><stop offset="1" stop-color="#f2d3b8"/></linearGradient><linearGradient id="e" x1="23" x2="41" y1="24" y2="24" gradientUnits="userSpaceOnUse"><stop offset="0" stop-color="#9dd5df"/><stop offset="1" stop-color="#c3e1f5"/></linearGradient></defs><path fill="url(#a)" d="M38,13H32A12,12,0,0,1,44,1h6A12,12,0,0,1,38,13Z"/><path fill="url(#b)" d="M26,19h6A12,12,0,0,0,20,7H14A12,12,0,0,0,26,19Z"/><path fill="#d7f1ff" d="M39,26c0-.1.87,0-14,0a5.74,5.74,0,0,1-2.71,4.84,18,18,0,1,0,19.41,0A5.7,5.7,0,0,1,39,26Z"/><path fill="url(#c)" d="M31,57V1a1,1,0,0,1,2,0V57A1,1,0,0,1,31,57Z"/><path fill="url(#d)" d="M38,54c-2.7,0-4.86,1.25-9.19-.75A14,14,0,0,0,15.86,54,18,18,0,0,0,46.22,57,12.12,12.12,0,0,0,38,54Z"/><path fill="url(#e)" d="M39,26H25a2,2,0,0,1,0-4H39a2,2,0,0,1,0,4Z"/></svg>