<svg xmlns="http://www.w3.org/2000/svg" xmlns:xlink="http://www.w3.org/1999/xlink" viewBox="0 0 64 64"><defs><linearGradient id="a" x1="6" x2="35" y1="18.5" y2="18.5" gradientTransform="matrix(-1 0 0 1 66 0)" gradientUnits="userSpaceOnUse"><stop offset="0" stop-color="#fbcc88"/><stop offset="1" stop-color="#ffe5c3"/></linearGradient><linearGradient id="b" x1="4" x2="18" y1="30" y2="30" gradientTransform="matrix(-1 0 0 1 66 0)" gradientUnits="userSpaceOnUse"><stop offset="0" stop-color="#d4d8e1"/><stop offset="1" stop-color="#f3f4f5"/></linearGradient><linearGradient id="c" x1="2" x2="20" y1="48" y2="48" gradientTransform="matrix(-1 0 0 1 66 0)" gradientUnits="userSpaceOnUse"><stop offset="0" stop-color="#e9a254"/><stop offset="1" stop-color="#f4bb79"/></linearGradient><linearGradient id="d" x1="4" x2="33" y1="18.5" y2="18.5" xlink:href="#a"/><linearGradient id="e" x1="31" x2="33" y1="35" y2="35" xlink:href="#a"/><linearGradient id="f" x1="28" x2="36" y1="4" y2="4" xlink:href="#a"/><linearGradient id="g" x1="2" x2="16" y1="30" y2="30" xlink:href="#b"/><linearGradient id="h" x1="0" x2="18" y1="48" y2="48" xlink:href="#c"/><linearGradient id="i" x1="28" x2="36" y1="8.5" y2="8.5" xlink:href="#c"/><linearGradient id="j" x1="27" x2="37" y1="59" y2="59" xlink:href="#a"/><linearGradient id="k" x1="21" x2="43" y1="62" y2="62" xlink:href="#c"/></defs><path fill="url(#a)" d="M55,22a5,5,0,0,1-5-5H32a1,1,0,0,1,0-2H51a1,1,0,0,1,1,1v1a3,3,0,0,0,6,0V16a1,1,0,0,1,2,0v1A5,5,0,0,1,55,22Z"/><path fill="url(#b)" d="M61,44a1,1,0,0,1-1-.77L55,21.45,50,43.23a1,1,0,0,1-1.2.74,1,1,0,0,1-.75-1.2l6-26a1,1,0,0,1,1.95,0l6,26A1,1,0,0,1,61,44Z"/><path fill="url(#c)" d="M55,53a9,9,0,0,0,9-9,1,1,0,0,0-1-1H47a1,1,0,0,0-1,1A9,9,0,0,0,55,53Z"/><path fill="url(#d)" d="M9,22a5,5,0,0,1-5-5V16a1,1,0,0,1,2,0v1a3,3,0,0,0,6,0V16a1,1,0,0,1,1-1H32a1,1,0,0,1,0,2H14A5,5,0,0,1,9,22Z"/><path fill="url(#e)" d="M32,61a1,1,0,0,1-1-1V10a1,1,0,0,1,2,0V60A1,1,0,0,1,32,61Z"/><circle cx="32" cy="4" r="4" fill="url(#f)"/><path fill="url(#g)" d="M15,44a1,1,0,0,1-1-.77L9,21.45,4,43.23A1,1,0,0,1,2,42.77l6-26a1,1,0,0,1,1.94,0l6,26A1,1,0,0,1,15,44Z"/><path fill="url(#h)" d="M9,53a9,9,0,0,1-9-9,1,1,0,0,1,1-1H17a1,1,0,0,1,1,1A9,9,0,0,1,9,53Z"/><rect width="8" height="3" x="28" y="7" fill="url(#i)" rx="1.5"/><path fill="url(#j)" d="M37,60H27a2,2,0,0,1,2-2h6A2,2,0,0,1,37,60Z"/><path fill="url(#k)" d="M24,60H40a3,3,0,0,1,3,3v1a0,0,0,0,1,0,0H21a0,0,0,0,1,0,0V63A3,3,0,0,1,24,60Z"/></svg>