<svg xmlns="http://www.w3.org/2000/svg" viewBox="0 0 48 48"><path fill="#f6ccaf" d="M37,22.51a44.71,44.71,0,0,0-5.32,7.87A34.12,34.12,0,0,1,37,28.5V41H7V7H37Z"/><path fill="#ffdec7" d="M37,39A27,27,0,0,1,10,12V7H37Z"/><rect width="34" height="4" x="5" y="3" fill="#7c7d7d"/><path fill="#919191" d="M39,3V5H9A2,2,0,0,1,7,3Z"/><rect width="34" height="4" x="5" y="41" fill="#7c7d7d"/><path fill="#919191" d="M39,41v2H9a2,2,0,0,1-2-2Z"/><path fill="#fc6" d="M43,3c0,4.2.07,4.31-.18,4.82A2,2,0,0,1,39,7V3a2,2,0,0,1,4,0Z"/><path fill="#ffde76" d="M43,3c0,4.2.07,4.31-.18,4.82A2,2,0,0,1,40,6c0-4.2-.07-4.31.18-4.82A2,2,0,0,1,43,3Z"/><path fill="#fc6" d="M5,3c0,4.2.07,4.31-.18,4.82A2,2,0,0,1,1,7V3A2,2,0,0,1,5,3Z"/><path fill="#ffde76" d="M5,3c0,4.2.07,4.31-.18,4.82A2,2,0,0,1,2,6c0-4.2-.07-4.31.18-4.82A2,2,0,0,1,5,3Z"/><path fill="#fc6" d="M43,41c0,4.2.07,4.31-.18,4.82A2,2,0,0,1,39,45V41a2,2,0,0,1,4,0Z"/><path fill="#ffde76" d="M43,41c0,4.2.07,4.31-.18,4.82A2,2,0,0,1,40,44c0-4.2-.07-4.31.18-4.82A2,2,0,0,1,43,41Z"/><path fill="#fc6" d="M5,41c0,4.2.07,4.31-.18,4.82A2,2,0,0,1,1,45V41a2,2,0,0,1,4,0Z"/><path fill="#ffde76" d="M5,41c0,4.2.07,4.31-.18,4.82A2,2,0,0,1,2,44c0-4.2-.07-4.31.18-4.82A2,2,0,0,1,5,41Z"/><path fill="#dad7e5" d="M44,20s2,2-4,5c3.57,2.68-5.59,3.76-8.32,5.38.33-.63.68-1.25,1-1.85h0C36.44,22.24,42.87,16,46,14a4.38,4.38,0,0,1,1,3C47,19,44,20,44,20Z"/><path fill="#edebf2" d="M43,19s2,2-4,5c2.91,2.19-2.65,3.31-6.28,4.53a51.52,51.52,0,0,1,13-14.31A5.15,5.15,0,0,1,46,16C46,18,43,19,43,19Z"/><path fill="#374f68" d="M14 16H11a1 1 0 0 1-1-1V12a1 1 0 0 1 2 0v2h2A1 1 0 0 1 14 16zM18 15V12a1 1 0 0 1 2 0v3A1 1 0 0 1 18 15zM26 15H23a1 1 0 0 1 0-2h2V12a1 1 0 0 1 2 0v2A1 1 0 0 1 26 15zM33 13H30a1 1 0 0 1 0-2h3A1 1 0 0 1 33 13zM33 16H31a1 1 0 0 1 0-2h2A1 1 0 0 1 33 16zM17 23V20a1 1 0 0 1 1-1h3a1 1 0 0 1 0 2H19v2A1 1 0 0 1 17 23zM24 23V20a1 1 0 0 1 2 0v3A1 1 0 0 1 24 23zM30 23V20a1 1 0 0 1 1-1h2a1 1 0 0 1 0 2H32v2A1 1 0 0 1 30 23zM14 21H11a1 1 0 0 1 0-2h3A1 1 0 0 1 14 21zM13 24H11a1 1 0 0 1 0-2h2A1 1 0 0 1 13 24z"/><path fill="#374f68" d="M23 15V14a1 1 0 0 1 2 0v1A1 1 0 0 1 23 15zM14 32H11a1 1 0 0 1-1-1V28a1 1 0 0 1 2 0v2h2A1 1 0 0 1 14 32zM27 32H25a1 1 0 0 1-1-1V28a1 1 0 0 1 2 0v2h1A1 1 0 0 1 27 32zM20 31V28a1 1 0 0 1 2 0v3A1 1 0 0 1 20 31zM17 31V29a1 1 0 0 1 2 0v2A1 1 0 0 1 17 31z"/><path fill="#374f68" d="M13,31V28a1,1,0,0,1,2,0v3A1,1,0,0,1,13,31Z"/><path fill="#dad7e5" d="M29,36.73a36.12,36.12,0,0,1,2.74-6.8,1,1,0,0,1,1.35-.43c1.52.79-.5,1.94-2.17,7.77A1,1,0,0,1,29,36.73Z"/></svg>