<svg xmlns="http://www.w3.org/2000/svg" viewBox="0 0 48 48"><path fill="#374f68" d="M45.17,9.71a2,2,0,0,1-1,2l-6.93,4A2,2,0,0,1,34.53,15C30.15,7.38,30.26,7.77,30.26,7a2,2,0,0,1,1-1.74l6.91-4A2,2,0,0,1,40.92,2C45.22,9.48,45.1,9.14,45.17,9.71Z"/><path fill="#425b72" d="M45.17,9.71l-6.91,4a2,2,0,0,1-2,0c-.63-.37-.47-.29-4.72-7.65a2,2,0,0,1-.25-.75l6.91-4A2,2,0,0,1,40.92,2C45.22,9.48,45.1,9.14,45.17,9.71Z"/><path fill="#6fabe6" d="M35.25,15.69,25,21.63c-.43-3.66-6-3.39-6,.37a3,3,0,0,0,1.19,2.39l-6,3.44-5-8.66L30.26,7c0,.77,0,.62,3.91,7.31A3.08,3.08,0,0,0,35.25,15.69Z"/><path fill="#82bcf4" d="M34.17,14.34l-9.89,5.71A3,3,0,0,0,19.18,23a4.15,4.15,0,0,1-5.68-1.52L11.44,17.9,30.26,7C30.26,7.8,30.31,7.65,34.17,14.34Z"/><path fill="#dad7e5" d="M13.24,26.1l-5.19,3-3-5.2,5.19-3C12.8,25.35,12.14,24.21,13.24,26.1Z"/><path fill="#edebf2" d="M12.37,24.6l-.62.36A4.27,4.27,0,0,1,5.92,23.4l4.32-2.5Z"/><path fill="#374f68" d="M8.55,30,5.08,32,1.08,25l3.47-2C8.48,29.85,7.73,28.55,8.55,30Z"/><path fill="#425b72" d="M7.93,28.89h0A2.14,2.14,0,0,1,5,28.11l-2.31-4L4.55,23Z"/><path fill="#2c435e" d="M36.13,12.49,31.92,4.92l1.73-1,4.22,7.59A1,1,0,0,1,36.13,12.49Z"/><path fill="#dad7e5" d="M46,47H2a1,1,0,0,1,0-2H46A1,1,0,0,1,46,47Z"/><path fill="#dad7e5" d="M20.94,22.35l-9,24a1,1,0,0,1-1.88-.7l9-24A1,1,0,0,1,20.94,22.35Z"/><path fill="#edebf2" d="M19.69,25.7c-7.37,19.64-6.78,18.33-7,18.24a1,1,0,0,1-.59-1.29L18.7,24.93A3.14,3.14,0,0,0,19.69,25.7Z"/><path fill="#dad7e5" d="M32.06,46.35l-9-24a1,1,0,0,1,1.88-.7c9.42,25.11,8.11,21.63,9,24A1,1,0,0,1,32.06,46.35Z"/><path fill="#edebf2" d="M33.3,44a1,1,0,0,1-1.24-.6L23.7,21.05a1,1,0,0,1,1.24.6Z"/><path fill="#dad7e5" d="M23,24V46a1,1,0,0,1-2,0V24A1,1,0,0,1,23,24Z"/><path fill="#edebf2" d="M23,25.23V44a1,1,0,0,1-1-1V25.82A2.68,2.68,0,0,0,23,25.23Z"/><circle cx="22" cy="22" r="3" fill="#374f68"/><path fill="#425b72" d="M24.56,23.56a3,3,0,0,1-4.12-4.12A3,3,0,0,1,24.56,23.56Z"/></svg>