<?xml version="1.0" encoding="UTF-8"?>
<svg xmlns="http://www.w3.org/2000/svg" viewBox="0 0 1200 630" preserveAspectRatio="xMidYMid meet" role="img" aria-labelledby="og-title">
  <title id="og-title">Studora — A quieter place to practice for Pakistan's toughest exams</title>
  <!-- Paper background -->
  <rect width="1200" height="630" fill="#faf8f1"/>
  <!-- Subtle grid lines, notebook-style -->
  <g stroke="#eae3cf" stroke-width="1" opacity="0.7">
    <line x1="0" y1="120" x2="1200" y2="120"/>
    <line x1="0" y1="160" x2="1200" y2="160"/>
    <line x1="0" y1="200" x2="1200" y2="200"/>
    <line x1="0" y1="240" x2="1200" y2="240"/>
    <line x1="0" y1="280" x2="1200" y2="280"/>
    <line x1="0" y1="320" x2="1200" y2="320"/>
    <line x1="0" y1="360" x2="1200" y2="360"/>
    <line x1="0" y1="400" x2="1200" y2="400"/>
    <line x1="0" y1="440" x2="1200" y2="440"/>
    <line x1="0" y1="480" x2="1200" y2="480"/>
    <line x1="0" y1="520" x2="1200" y2="520"/>
  </g>
  <!-- Red margin line, notebook-style -->
  <line x1="100" y1="0" x2="100" y2="630" stroke="#d97b6c" stroke-width="1.5" opacity="0.55"/>

  <!-- Brand chip -->
  <g transform="translate(140,90)">
    <rect width="170" height="34" rx="6" fill="#17181c"/>
    <text x="14" y="23" font-family="ui-monospace, 'JetBrains Mono', monospace" font-size="13" font-weight="600" fill="#ffe680">STUDORA</text>
    <text x="86" y="23" font-family="ui-monospace, 'JetBrains Mono', monospace" font-size="12" font-weight="500" fill="#faf8f1" opacity="0.65">/ MCQ BANK</text>
  </g>

  <!-- Headline -->
  <text x="140" y="220" font-family="Fraunces, Georgia, serif" font-size="68" font-weight="700" fill="#17181c">A quieter place to <tspan font-style="italic">practice</tspan></text>
  <text x="140" y="298" font-family="Fraunces, Georgia, serif" font-size="68" font-weight="700" fill="#17181c">for <tspan fill="#17181c" font-weight="800">Pakistan's</tspan> toughest exams.</text>

  <!-- Highlight band behind "Pakistan's" -->
  <rect x="246" y="248" width="246" height="62" fill="#ffe680" opacity="0.55"/>
  <text x="140" y="298" font-family="Fraunces, Georgia, serif" font-size="68" font-weight="800" fill="#17181c">for <tspan>Pakistan's</tspan> toughest exams.</text>

  <!-- Subhead -->
  <text x="140" y="372" font-family="Inter, system-ui, sans-serif" font-size="22" font-weight="500" fill="#3a3a3a">105,890+ MCQs · 47 subjects · 8 exam tracks · no paywall for the basics.</text>

  <!-- Exam track chips -->
  <g font-family="ui-monospace, 'JetBrains Mono', monospace" font-size="14" font-weight="600" fill="#17181c">
    <g transform="translate(140,420)">
      <rect width="72" height="36" rx="18" fill="none" stroke="#17181c" stroke-width="1.4"/>
      <text x="36" y="23" text-anchor="middle">CSS</text>
    </g>
    <g transform="translate(224,420)">
      <rect width="82" height="36" rx="18" fill="none" stroke="#17181c" stroke-width="1.4"/>
      <text x="41" y="23" text-anchor="middle">PMS</text>
    </g>
    <g transform="translate(318,420)">
      <rect width="108" height="36" rx="18" fill="none" stroke="#17181c" stroke-width="1.4"/>
      <text x="54" y="23" text-anchor="middle">MDCAT</text>
    </g>
    <g transform="translate(438,420)">
      <rect width="92" height="36" rx="18" fill="none" stroke="#17181c" stroke-width="1.4"/>
      <text x="46" y="23" text-anchor="middle">PPSC</text>
    </g>
    <g transform="translate(542,420)">
      <rect width="92" height="36" rx="18" fill="none" stroke="#17181c" stroke-width="1.4"/>
      <text x="46" y="23" text-anchor="middle">FPSC</text>
    </g>
    <g transform="translate(646,420)">
      <rect width="82" height="36" rx="18" fill="none" stroke="#17181c" stroke-width="1.4"/>
      <text x="41" y="23" text-anchor="middle">NTS</text>
    </g>
    <g transform="translate(740,420)">
      <rect width="100" height="36" rx="18" fill="none" stroke="#17181c" stroke-width="1.4"/>
      <text x="50" y="23" text-anchor="middle">KPPSC</text>
    </g>
  </g>

  <!-- Footer tagline -->
  <line x1="140" y1="520" x2="1060" y2="520" stroke="#17181c" stroke-width="1" opacity="0.25"/>
  <text x="140" y="560" font-family="Fraunces, Georgia, serif" font-size="32" font-style="italic" font-weight="500" fill="#17181c">Study quietly. <tspan font-weight="700" font-style="normal">Score loudly.</tspan></text>
  <text x="1060" y="560" text-anchor="end" font-family="ui-monospace, 'JetBrains Mono', monospace" font-size="14" fill="#3a3a3a">mcqbank.vercel.app</text>
</svg>
