<?xml version="1.0" encoding="UTF-8"?>
<svg xmlns="http://www.w3.org/2000/svg" viewBox="370 245 280 310" preserveAspectRatio="xMidYMid meet">
<path fill="#17181c" d="M0,0 L81,0 L81,1 L88,1 L88,2 L91,2 L91,3 L94,3 L94,4 L98,4 L98,5 L100,5 L100,6 L103,6 L103,7 L105,7 L105,8 L107,8 L107,9 L109,9 L109,10 L111,10 L111,11 L112,11 L112,12 L114,12 L114,13 L115,13 L115,14 L117,14 L117,15 L118,15 L118,16 L119,16 L119,17 L120,17 L120,18 L121,18 L121,19 L123,19 L123,20 L124,20 L124,21 L125,21 L125,22 L126,22 L126,23 L127,23 L127,24 L128,24 L128,25 L129,25 L129,27 L130,27 L130,28 L131,28 L131,29 L132,29 L132,30 L133,30 L133,32 L134,32 L134,33 L135,33 L135,34 L136,34 L136,36 L137,36 L137,38 L138,38 L138,39 L139,39 L139,41 L140,41 L140,43 L141,43 L141,44 L142,44 L142,46 L143,46 L143,48 L144,48 L144,50 L145,50 L145,53 L146,53 L146,55 L147,55 L147,58 L148,58 L148,61 L149,61 L149,66 L150,66 L150,70 L151,70 L151,74 L152,74 L152,98 L151,98 L151,103 L150,103 L150,107 L149,107 L149,111 L148,111 L148,114 L147,114 L147,117 L146,117 L146,120 L145,120 L145,122 L144,122 L144,124 L143,124 L143,126 L142,126 L142,129 L141,129 L141,130 L140,130 L140,132 L139,132 L139,134 L138,134 L138,135 L137,135 L137,137 L136,137 L136,138 L135,138 L135,140 L134,140 L134,141 L133,141 L133,143 L132,143 L132,144 L131,144 L131,145 L130,145 L130,146 L129,146 L129,148 L128,148 L128,149 L127,149 L127,150 L126,150 L126,151 L125,151 L125,152 L124,152 L124,153 L123,153 L123,154 L122,154 L122,155 L121,155 L121,156 L119,156 L119,157 L118,157 L118,158 L117,158 L117,159 L116,159 L116,160 L114,160 L114,161 L113,161 L113,162 L112,162 L112,163 L110,163 L110,164 L109,164 L109,165 L107,165 L107,166 L105,166 L105,167 L104,167 L104,168 L102,168 L102,169 L99,169 L99,170 L97,170 L97,171 L95,171 L95,172 L92,172 L92,173 L89,173 L89,174 L86,174 L86,175 L83,175 L83,176 L78,176 L78,177 L72,177 L72,178 L-92,178 L-92,177 L-93,177 L-93,174 L-92,174 L-92,172 L-91,172 L-91,167 L-90,167 L-90,165 L-89,165 L-89,163 L-88,163 L-88,161 L-87,161 L-87,159 L-86,159 L-86,157 L-85,157 L-85,155 L-84,155 L-84,154 L-83,154 L-83,152 L-82,152 L-82,151 L-81,151 L-81,150 L-80,150 L-80,148 L-79,148 L-79,147 L-78,147 L-78,146 L-77,146 L-77,145 L-76,145 L-76,144 L-75,144 L-75,143 L-73,143 L-73,142 L-72,142 L-72,141 L-71,141 L-71,140 L-70,140 L-70,139 L-68,139 L-68,138 L-67,138 L-67,137 L-65,137 L-65,136 L-64,136 L-64,135 L-62,135 L-62,134 L-60,134 L-60,133 L-58,133 L-58,132 L-56,132 L-56,131 L-53,131 L-53,130 L-51,130 L-51,129 L-45,129 L-45,128 L-41,128 L-41,127 L69,127 L69,126 L74,126 L74,125 L77,125 L77,124 L80,124 L80,123 L82,123 L82,122 L84,122 L84,121 L85,121 L85,120 L87,120 L87,119 L88,119 L88,118 L90,118 L90,117 L91,117 L91,116 L92,116 L92,115 L93,115 L93,114 L94,114 L94,113 L95,113 L95,112 L96,112 L96,110 L97,110 L97,109 L98,109 L98,107 L99,107 L99,105 L100,105 L100,103 L101,103 L101,100 L102,100 L102,98 L103,98 L103,94 L104,94 L104,83 L103,83 L103,79 L102,79 L102,75 L101,75 L101,73 L100,73 L100,71 L99,71 L99,69 L98,69 L98,67 L97,67 L97,66 L96,66 L96,65 L95,65 L95,63 L94,63 L94,62 L93,62 L93,61 L92,61 L92,60 L91,60 L91,59 L90,59 L90,58 L88,58 L88,57 L87,57 L87,56 L85,56 L85,55 L84,55 L84,54 L82,54 L82,53 L80,53 L80,52 L77,52 L77,51 L74,51 L74,50 L62,50 L62,49 L59,49 L59,48 L57,48 L57,47 L56,47 L56,46 L54,46 L54,45 L53,45 L53,44 L52,44 L52,43 L51,43 L51,42 L49,42 L49,41 L48,41 L48,40 L47,40 L47,39 L46,39 L46,38 L45,38 L45,37 L43,37 L43,36 L42,36 L42,35 L41,35 L41,34 L40,34 L40,33 L39,33 L39,32 L37,32 L37,31 L36,31 L36,30 L35,30 L35,29 L34,29 L34,28 L33,28 L33,27 L31,27 L31,26 L30,26 L30,25 L29,25 L29,24 L28,24 L28,23 L27,23 L27,22 L25,22 L25,21 L24,21 L24,20 L23,20 L23,19 L22,19 L22,18 L20,18 L20,17 L19,17 L19,16 L18,16 L18,15 L17,15 L17,14 L16,14 L16,13 L14,13 L14,12 L13,12 L13,11 L12,11 L12,10 L11,10 L11,9 L9,9 L9,8 L8,8 L8,7 L7,7 L7,6 L6,6 L6,5 L5,5 L5,4 L3,4 L3,3 L2,3 L2,2 L1,2 L1,1 L0,1 Z" transform="translate(470,372)"/>
<path fill="#17181c" d="M0,0 L81,0 L81,3 L80,3 L80,7 L79,7 L79,9 L78,9 L78,13 L77,13 L77,36 L78,36 L78,42 L79,42 L79,46 L80,46 L80,48 L81,48 L81,50 L3,50 L3,51 L-3,51 L-3,52 L-6,52 L-6,53 L-8,53 L-8,54 L-11,54 L-11,55 L-12,55 L-12,56 L-14,56 L-14,57 L-16,57 L-16,58 L-17,58 L-17,59 L-18,59 L-18,60 L-20,60 L-20,61 L-21,61 L-21,62 L-22,62 L-22,63 L-23,63 L-23,64 L-24,64 L-24,65 L-25,65 L-25,67 L-26,67 L-26,68 L-27,68 L-27,70 L-28,70 L-28,71 L-29,71 L-29,73 L-30,73 L-30,75 L-31,75 L-31,77 L-32,77 L-32,80 L-33,80 L-33,87 L-34,87 L-34,100 L-33,100 L-33,103 L-32,103 L-32,106 L-31,106 L-31,108 L-30,108 L-30,110 L-29,110 L-29,112 L-28,112 L-28,114 L-27,114 L-27,115 L-26,115 L-26,116 L-25,116 L-25,117 L-24,117 L-24,118 L-23,118 L-23,120 L-21,120 L-21,121 L-20,121 L-20,122 L-19,122 L-19,123 L-18,123 L-18,124 L-17,124 L-17,125 L-15,125 L-15,126 L-14,126 L-14,127 L-13,127 L-13,128 L-11,128 L-11,129 L-10,129 L-10,130 L-9,130 L-9,131 L-7,131 L-7,132 L-6,132 L-6,133 L-5,133 L-5,134 L-3,134 L-3,135 L-2,135 L-2,136 L-1,136 L-1,137 L1,137 L1,138 L2,138 L2,139 L3,139 L3,140 L5,140 L5,141 L6,141 L6,142 L7,142 L7,143 L9,143 L9,144 L10,144 L10,145 L11,145 L11,146 L13,146 L13,147 L14,147 L14,148 L15,148 L15,149 L16,149 L16,150 L18,150 L18,151 L19,151 L19,152 L21,152 L21,153 L22,153 L22,154 L23,154 L23,155 L25,155 L25,156 L26,156 L26,157 L27,157 L27,158 L29,158 L29,159 L30,159 L30,160 L31,160 L31,161 L33,161 L33,162 L34,162 L34,163 L35,163 L35,164 L37,164 L37,165 L38,165 L38,166 L39,166 L39,167 L41,167 L41,168 L42,168 L42,169 L43,169 L43,170 L45,170 L45,171 L46,171 L46,172 L47,172 L47,173 L49,173 L49,174 L50,174 L50,175 L49,175 L49,176 L-11,176 L-11,175 L-16,175 L-16,174 L-22,174 L-22,173 L-26,173 L-26,172 L-29,172 L-29,171 L-32,171 L-32,170 L-34,170 L-34,169 L-36,169 L-36,168 L-38,168 L-38,167 L-40,167 L-40,166 L-42,166 L-42,165 L-44,165 L-44,164 L-45,164 L-45,163 L-47,163 L-47,162 L-48,162 L-48,161 L-49,161 L-49,160 L-51,160 L-51,159 L-52,159 L-52,158 L-53,158 L-53,157 L-54,157 L-54,156 L-55,156 L-55,155 L-56,155 L-56,154 L-57,154 L-57,153 L-58,153 L-58,152 L-59,152 L-59,151 L-60,151 L-60,150 L-61,150 L-61,149 L-62,149 L-62,148 L-63,148 L-63,146 L-64,146 L-64,145 L-65,145 L-65,144 L-66,144 L-66,142 L-67,142 L-67,141 L-68,141 L-68,139 L-69,139 L-69,138 L-70,138 L-70,136 L-71,136 L-71,134 L-72,134 L-72,133 L-73,133 L-73,131 L-74,131 L-74,129 L-75,129 L-75,126 L-76,126 L-76,124 L-77,124 L-77,121 L-78,121 L-78,118 L-79,118 L-79,114 L-80,114 L-80,109 L-81,109 L-81,106 L-82,106 L-82,81 L-81,81 L-81,76 L-80,76 L-80,72 L-79,72 L-79,68 L-78,68 L-78,65 L-77,65 L-77,63 L-76,63 L-76,60 L-75,60 L-75,58 L-74,58 L-74,56 L-73,56 L-73,54 L-72,54 L-72,52 L-71,52 L-71,50 L-70,50 L-70,48 L-69,48 L-69,46 L-68,46 L-68,45 L-67,45 L-67,43 L-66,43 L-66,42 L-65,42 L-65,40 L-64,40 L-64,39 L-63,39 L-63,38 L-62,38 L-62,36 L-61,36 L-61,35 L-60,35 L-60,34 L-59,34 L-59,33 L-58,33 L-58,32 L-57,32 L-57,31 L-56,31 L-56,29 L-55,29 L-55,28 L-54,28 L-54,27 L-53,27 L-53,26 L-52,26 L-52,25 L-50,25 L-50,24 L-49,24 L-49,23 L-48,23 L-48,22 L-47,22 L-47,21 L-46,21 L-46,20 L-45,20 L-45,19 L-43,19 L-43,18 L-42,18 L-42,17 L-41,17 L-41,16 L-39,16 L-39,15 L-38,15 L-38,14 L-36,14 L-36,13 L-34,13 L-34,12 L-33,12 L-33,11 L-31,11 L-31,10 L-29,10 L-29,9 L-27,9 L-27,8 L-24,8 L-24,7 L-22,7 L-22,6 L-20,6 L-20,5 L-17,5 L-17,4 L-14,4 L-14,3 L-10,3 L-10,2 L-6,2 L-6,1 L0,1 Z" transform="translate(458,266)"/>
<path fill="#ffe680" d="M0,0 L3,0 L3,1 L4,1 L4,3 L5,3 L5,5 L6,5 L6,7 L7,7 L7,10 L8,10 L8,12 L9,12 L9,14 L10,14 L10,16 L11,16 L11,17 L12,17 L12,18 L14,18 L14,19 L17,19 L17,20 L20,20 L20,21 L24,21 L24,22 L27,22 L27,23 L29,23 L29,26 L28,26 L28,28 L27,28 L27,31 L26,31 L26,33 L25,33 L25,36 L24,36 L24,38 L23,38 L23,44 L24,44 L24,45 L25,45 L25,47 L26,47 L26,49 L27,49 L27,51 L28,51 L28,53 L29,53 L29,55 L30,55 L30,57 L31,57 L31,59 L30,59 L30,60 L28,60 L28,61 L26,61 L26,62 L23,62 L23,63 L21,63 L21,64 L19,64 L19,65 L16,65 L16,66 L14,66 L14,67 L13,67 L13,69 L12,69 L12,74 L11,74 L11,76 L10,76 L10,79 L9,79 L9,82 L8,82 L8,85 L5,85 L5,84 L2,84 L2,83 L0,83 L0,82 L-3,82 L-3,81 L-5,81 L-5,80 L-8,80 L-8,79 L-13,79 L-13,80 L-15,80 L-15,81 L-17,81 L-17,82 L-19,82 L-19,83 L-21,83 L-21,84 L-23,84 L-23,85 L-24,85 L-24,86 L-26,86 L-26,87 L-29,87 L-29,84 L-30,84 L-30,82 L-31,82 L-31,80 L-32,80 L-32,77 L-33,77 L-33,75 L-34,75 L-34,73 L-35,73 L-35,71 L-36,71 L-36,69 L-40,69 L-40,68 L-43,68 L-43,67 L-46,67 L-46,66 L-49,66 L-49,65 L-52,65 L-52,64 L-54,64 L-54,60 L-53,60 L-53,57 L-52,57 L-52,55 L-51,55 L-51,52 L-50,52 L-50,50 L-49,50 L-49,47 L-48,47 L-48,44 L-49,44 L-49,42 L-50,42 L-50,40 L-51,40 L-51,38 L-52,38 L-52,36 L-53,36 L-53,34 L-54,34 L-54,32 L-55,32 L-55,30 L-56,30 L-56,27 L-54,27 L-54,26 L-52,26 L-52,25 L-49,25 L-49,24 L-47,24 L-47,23 L-45,23 L-45,22 L-42,22 L-42,21 L-40,21 L-40,20 L-39,20 L-39,19 L-38,19 L-38,16 L-37,16 L-37,12 L-36,12 L-36,9 L-35,9 L-35,6 L-34,6 L-34,3 L-33,3 L-33,2 L-30,2 L-30,3 L-27,3 L-27,4 L-25,4 L-25,5 L-22,5 L-22,6 L-19,6 L-19,7 L-17,7 L-17,8 L-13,8 L-13,7 L-11,7 L-11,6 L-9,6 L-9,5 L-7,5 L-7,4 L-5,4 L-5,3 L-3,3 L-3,2 L-1,2 L-1,1 L0,1 Z" transform="translate(615,250)"/>
</svg>
